<?xml version="1.0" encoding="utf-8"?>
<!-- Generator: Adobe Illustrator 26.3.1, SVG Export Plug-In . SVG Version: 6.00 Build 0)  -->
<svg version="1.1" id="Capa_1" xmlns="http://www.w3.org/2000/svg" xmlns:xlink="http://www.w3.org/1999/xlink" x="0px" y="0px"
	 viewBox="0 0 42 42" style="enable-background:new 0 0 42 42;" xml:space="preserve">
<style type="text/css">
	.st0{fill:#FFFFFF;}
</style>
<path class="st0" d="M14.6,33.9C14.6,33.9,14.6,33.9,14.6,33.9c0.6,0.1,1.1,0.2,1.7,0.2h9.9c0.6,0,1.2-0.1,1.7-0.2c0,0,0,0,0,0
	c1-0.2,2-0.6,2.8-1.2c0,0,0,0,0,0c0.9-0.6,1.7-1.3,2.3-2.2c1.6-2.3,2-5.1,1.1-7.7l-1.7-4.9c0-0.1-0.1-0.3,0-0.4h-6.4
	c-0.2,0-0.3-0.1-0.3-0.3c0-0.2,0.1-0.3,0.3-0.3h7.2h0.6c0.4,0,0.7-0.3,0.7-0.7V16c0-0.4-0.3-0.7-0.7-0.7h-4.4h-2.8h-18
	C8.3,15.3,8,15.6,8,16v0.2c0,0.4,0.3,0.7,0.7,0.7h0.5h0.1h10.1c0.2,0,0.3,0.1,0.3,0.3c0,0.2-0.1,0.3-0.3,0.3h-9.3c0,0.1,0,0.3,0,0.4
	l-1.7,4.9c-0.9,2.6-0.5,5.4,1.1,7.7c0.6,0.9,1.4,1.6,2.3,2.2c0,0,0,0,0,0C12.6,33.3,13.6,33.7,14.6,33.9z M21.4,16.8h2.7
	c0.2,0,0.3,0.1,0.3,0.3c0,0.2-0.1,0.3-0.3,0.3h-2.7c-0.2,0-0.3-0.1-0.3-0.3C21.1,17,21.2,16.8,21.4,16.8z"/>
<path class="st0" d="M10.7,34.3c-0.2,0.2-0.3,0.5-0.3,0.8c0,0.3,0.1,0.6,0.3,0.8c0.4,0.4,1.2,0.4,1.6,0l1.6-1.6
	c-0.8-0.2-1.6-0.5-2.3-1L10.7,34.3z"/>
<path class="st0" d="M31.9,36c0.2-0.2,0.3-0.5,0.3-0.8c0-0.3-0.1-0.6-0.3-0.8l-0.9-0.9c-0.7,0.4-1.5,0.8-2.3,1l1.6,1.6
	C30.7,36.4,31.4,36.4,31.9,36z"/>
<path class="st0" d="M33.4,5C33,4.8,32.5,5,32.3,5.4l-5.1,9.3h2.1l4.4-8.6C33.9,5.7,33.8,5.2,33.4,5z"/>
</svg>
