<?xml version="1.0" encoding="utf-8"?>
<!-- Generator: Adobe Illustrator 26.3.1, SVG Export Plug-In . SVG Version: 6.00 Build 0)  -->
<svg version="1.1" id="Capa_1" xmlns="http://www.w3.org/2000/svg" xmlns:xlink="http://www.w3.org/1999/xlink" x="0px" y="0px"
	 viewBox="0 0 30.3 37.9" style="enable-background:new 0 0 30.3 37.9;" xml:space="preserve">
<style type="text/css">
	.st0{fill:#FFFFFF;}
</style>
<path class="st0" d="M22.2,16.4c-0.1,0-0.2-0.1-0.2-0.2c0-2.9-1.8-5.3-3.9-5.3c-0.1,0-0.2-0.1-0.2-0.2s0.1-0.2,0.2-0.2
	c1.2,0,2.3-0.7,3-1.9c-1.6-1.3-3.6-2-5.7-2c-5.1,0-9.1,4.1-9.1,9.1s4.1,9.1,9.1,9.1s9.1-4.1,9.1-9.1c0-1.2-0.2-2.3-0.7-3.4
	c-0.8,1-1.3,2.4-1.3,3.9C22.5,16.3,22.4,16.4,22.2,16.4z"/>
<path class="st0" d="M19.3,10.6c1.4,0.5,2.5,1.9,2.9,3.7c0.3-1,0.7-1.9,1.3-2.5c-0.5-1.1-1.3-2.1-2.2-2.9
	C20.9,9.7,20.1,10.3,19.3,10.6z"/>
<path d="M9.8,10.5c-0.1,0-0.1,0-0.2-0.1c-0.1-0.1-0.1-0.2,0-0.3c0.8-0.8,1.7-1.4,2.7-1.8c0.1,0,0.3,0,0.3,0.1c0,0.1,0,0.3-0.1,0.3
	c-1,0.4-1.8,1-2.6,1.7C9.9,10.5,9.8,10.5,9.8,10.5L9.8,10.5z"/>
<path d="M20.9,21.1c-0.1,0-0.1,0-0.2-0.1c-0.1-0.1-0.1-0.2,0-0.3c0.4-0.4,0.8-0.9,1.1-1.5c0.1-0.1,0.2-0.2,0.3-0.1
	c0.1,0.1,0.2,0.2,0.1,0.3c-0.3,0.6-0.7,1.1-1.1,1.6C21.1,21,21,21,20.9,21.1L20.9,21.1z"/>
<path d="M8.4,12.5c0,0-0.1,0-0.1,0c-0.1-0.1-0.2-0.2-0.1-0.3c0.2-0.4,0.4-0.8,0.7-1.2c0.1-0.1,0.2-0.1,0.3-0.1s0.1,0.2,0.1,0.3
	c-0.3,0.4-0.5,0.7-0.7,1.1C8.5,12.4,8.5,12.5,8.4,12.5L8.4,12.5z"/>
<path class="st0" d="M23.7,27.1H6.9c-0.1,0-0.2-0.1-0.2-0.2v-0.7c0-0.4,0.3-0.7,0.7-0.7c0.2,0,0.3-0.1,0.4-0.3l0.9-3.2
	c0-0.1,0.1-0.1,0.2-0.2s0.2,0,0.2,0.1c1.7,1.7,3.9,2.6,6.3,2.6s4.6-0.9,6.3-2.6c0.1-0.1,0.1-0.1,0.2-0.1c0.1,0,0.1,0.1,0.2,0.2
	l0.9,3.2c0,0.2,0.2,0.3,0.4,0.3c0.4,0,0.7,0.3,0.7,0.7v0.7C23.9,27,23.8,27.1,23.7,27.1L23.7,27.1z M7.1,26.6h16.4v-0.5
	c0-0.1-0.1-0.2-0.2-0.2c-0.4,0-0.7-0.3-0.9-0.6l-0.8-2.8c-1.7,1.6-4,2.5-6.3,2.5s-4.6-0.9-6.3-2.5l-0.8,2.8
	c-0.1,0.4-0.5,0.6-0.9,0.6c-0.1,0-0.2,0.1-0.2,0.2C7.1,26.1,7.1,26.6,7.1,26.6z"/>
<path class="st0" d="M24.7,31.1H5.9c-0.1,0-0.2-0.1-0.2-0.2v-4c0-0.1,0.1-0.2,0.2-0.2h18.8c0.1,0,0.2,0.1,0.2,0.2v4
	C24.9,30.9,24.8,31.1,24.7,31.1z M6.1,30.6h18.3v-3.5H6.1L6.1,30.6L6.1,30.6z"/>
<path class="st0" d="M11.9,25.9H7.3c-0.1,0-0.2-0.1-0.2-0.2c0-0.1,0.1-0.2,0.2-0.2h4.6c0.1,0,0.2,0.1,0.2,0.2
	C12.2,25.8,12.1,25.9,11.9,25.9L11.9,25.9z"/>
<path class="st0" d="M18.7,25.9h-5.3c-0.1,0-0.2-0.1-0.2-0.2c0-0.1,0.1-0.2,0.2-0.2h5.3c0.1,0,0.2,0.1,0.2,0.2
	C19,25.8,18.9,25.9,18.7,25.9z"/>
<path class="st0" d="M23.3,25.9h-3.4c-0.1,0-0.2-0.1-0.2-0.2c0-0.1,0.1-0.2,0.2-0.2h3.4c0.1,0,0.2,0.1,0.2,0.2
	C23.5,25.8,23.4,25.9,23.3,25.9z"/>
<path class="st0" d="M22.2,16.4c-0.1,0-0.2-0.1-0.2-0.2c0-2.9-1.8-5.3-3.9-5.3c-0.1,0-0.2-0.1-0.2-0.2c0-0.1,0.1-0.2,0.2-0.2
	c2.2,0,3.9-2.4,3.9-5.3c0-0.1,0.1-0.2,0.2-0.2c0.1,0,0.2,0.1,0.2,0.2c0,2.9,1.8,5.3,3.9,5.3c0.1,0,0.2,0.1,0.2,0.2
	c0,0.1-0.1,0.2-0.2,0.2c-2.2,0-3.9,2.4-3.9,5.3C22.5,16.3,22.4,16.4,22.2,16.4z M19.3,10.6c1.4,0.5,2.5,1.9,2.9,3.7
	c0.5-1.8,1.6-3.1,2.9-3.7c-1.4-0.5-2.5-1.9-2.9-3.7C21.8,8.7,20.7,10.1,19.3,10.6z"/>
<path class="st0" d="M15.3,24.9c-5.2,0-9.3-4.2-9.3-9.3s4.2-9.3,9.3-9.3c2.2,0,4.4,0.8,6.1,2.2c0.1,0.1,0.1,0.2,0,0.3
	c-0.6,0.9-1.3,1.5-2.1,1.8c1.4,0.5,2.5,1.9,2.9,3.7c0.2-0.9,0.7-1.8,1.2-2.4c0.1-0.1,0.1-0.1,0.2-0.1c0.1,0,0.2,0.1,0.2,0.1
	c0.5,1.2,0.8,2.4,0.8,3.7C24.6,20.8,20.4,24.9,15.3,24.9z M15.3,6.8c-4.9,0-8.9,4-8.9,8.9s4,8.9,8.9,8.9s8.9-4,8.9-8.9
	c0-1.1-0.2-2.1-0.6-3.1c-0.7,1-1.1,2.3-1.1,3.7c0,0.1-0.1,0.2-0.2,0.2c-0.1,0-0.2-0.1-0.2-0.2c0-2.9-1.8-5.3-3.9-5.3
	c-0.1,0-0.2-0.1-0.2-0.2s0.1-0.2,0.2-0.2c1.1,0,2.1-0.6,2.8-1.6C19.3,7.4,17.3,6.7,15.3,6.8L15.3,6.8z"/>
<path d="M22.2,14.3c-0.5-1.8-1.6-3.1-2.9-3.7c0.8-0.3,1.5-1,2.1-1.8c-0.1-0.1-0.2-0.2-0.4-0.3c-0.7,1.1-1.8,1.9-3,1.9
	c-0.1,0-0.2,0.1-0.2,0.2s0.1,0.2,0.2,0.2c2.2,0,3.9,2.4,3.9,5.3c0,0.1,0.1,0.2,0.2,0.2c0.1,0,0.2-0.1,0.2-0.2c0-1.6,0.5-3,1.3-3.9
	c-0.1-0.2-0.1-0.3-0.2-0.5C23,12.4,22.5,13.3,22.2,14.3z"/>
</svg>
