<?xml version="1.0" encoding="utf-8"?>
<!-- Generator: Adobe Illustrator 26.3.1, SVG Export Plug-In . SVG Version: 6.00 Build 0)  -->
<svg version="1.1" id="Capa_1" xmlns="http://www.w3.org/2000/svg" xmlns:xlink="http://www.w3.org/1999/xlink" x="0px" y="0px"
	 viewBox="0 0 164 132" style="enable-background:new 0 0 164 132;" xml:space="preserve">
<style type="text/css">
	.st0{fill:#1B1B1B;}
</style>
<g>
	<g>
		<path class="st0" d="M106.49,119.44c0.08-0.22,0.16-0.44,0.25-0.66c0.05-0.13,0.1-0.25,0.15-0.38c0.13-0.32,0.27-0.63,0.42-0.93
			c0.05-0.1,0.1-0.19,0.15-0.29c0.11-0.23,0.23-0.45,0.35-0.67c0.07-0.12,0.14-0.25,0.21-0.37c0.12-0.2,0.24-0.41,0.37-0.6
			c0.07-0.1,0.13-0.21,0.2-0.31c0.19-0.29,0.4-0.58,0.61-0.86c0.04-0.05,0.08-0.1,0.12-0.16c0.18-0.24,0.38-0.48,0.57-0.71
			c0.06-0.08,0.13-0.15,0.19-0.22c0.2-0.23,0.41-0.45,0.62-0.67c0.04-0.04,0.08-0.08,0.12-0.13c0.54-0.55,1.12-1.07,1.73-1.56
			c0.01-0.01,0.02-0.02,0.03-0.03c1.89-1.49,4.07-2.63,6.44-3.31V25.42c-2.37-0.68-4.55-1.81-6.44-3.3
			c-0.01-0.01-0.02-0.02-0.04-0.03c-0.61-0.48-1.19-1-1.73-1.56c-0.04-0.04-0.08-0.09-0.13-0.13c-0.21-0.22-0.41-0.44-0.61-0.66
			c-0.07-0.08-0.14-0.15-0.2-0.23c-0.19-0.23-0.38-0.46-0.56-0.69c-0.04-0.06-0.09-0.11-0.14-0.17c-0.21-0.28-0.41-0.56-0.6-0.85
			c-0.07-0.11-0.14-0.22-0.21-0.33c-0.12-0.19-0.24-0.39-0.36-0.59c-0.07-0.13-0.15-0.25-0.22-0.38c-0.12-0.21-0.23-0.42-0.34-0.64
			c-0.05-0.11-0.11-0.21-0.16-0.32c-0.15-0.3-0.28-0.61-0.41-0.92c-0.06-0.13-0.11-0.27-0.16-0.4c-0.08-0.21-0.16-0.42-0.24-0.63
			c-0.05-0.14-0.1-0.28-0.14-0.42c-0.08-0.26-0.16-0.52-0.23-0.78c-0.02-0.07-0.05-0.15-0.07-0.22H53.34
			c-0.02,0.06-0.04,0.13-0.06,0.19c-0.08,0.28-0.16,0.55-0.24,0.82c-0.04,0.13-0.09,0.26-0.13,0.39c-0.08,0.22-0.16,0.44-0.25,0.66
			c-0.05,0.13-0.1,0.25-0.15,0.38c-0.13,0.32-0.27,0.63-0.42,0.93c-0.05,0.1-0.1,0.19-0.15,0.29c-0.11,0.23-0.23,0.45-0.35,0.67
			c-0.07,0.12-0.14,0.25-0.21,0.37c-0.12,0.2-0.24,0.41-0.37,0.6c-0.07,0.1-0.13,0.21-0.2,0.31c-0.19,0.29-0.4,0.58-0.61,0.86
			c-0.04,0.05-0.08,0.1-0.12,0.16c-0.18,0.24-0.38,0.48-0.57,0.71c-0.06,0.08-0.13,0.15-0.19,0.22c-0.2,0.23-0.41,0.45-0.62,0.67
			c-0.04,0.04-0.08,0.08-0.12,0.13c-0.54,0.55-1.12,1.07-1.73,1.56c-0.01,0.01-0.02,0.02-0.03,0.03c-1.89,1.49-4.07,2.63-6.44,3.3
			v82.17c2.37,0.68,4.55,1.81,6.43,3.3c0.01,0.01,0.03,0.02,0.04,0.03c0.61,0.48,1.18,1,1.73,1.55c0.04,0.05,0.09,0.09,0.13,0.14
			c0.21,0.22,0.41,0.44,0.61,0.66c0.07,0.08,0.14,0.16,0.2,0.23c0.19,0.22,0.38,0.45,0.55,0.69c0.05,0.06,0.09,0.12,0.14,0.17
			c0.21,0.28,0.41,0.56,0.6,0.85c0.07,0.11,0.14,0.22,0.21,0.33c0.12,0.19,0.24,0.39,0.36,0.58c0.08,0.13,0.15,0.25,0.22,0.38
			c0.12,0.21,0.23,0.42,0.34,0.64c0.05,0.11,0.11,0.21,0.16,0.32c0.15,0.3,0.28,0.61,0.41,0.92c0.06,0.13,0.11,0.27,0.16,0.4
			c0.08,0.21,0.16,0.42,0.24,0.63c0.05,0.14,0.1,0.28,0.14,0.42c0.08,0.26,0.16,0.52,0.23,0.78c0.02,0.07,0.05,0.15,0.07,0.22h52.72
			c0.02-0.06,0.04-0.13,0.06-0.19c0.08-0.28,0.16-0.55,0.24-0.82C106.4,119.7,106.44,119.57,106.49,119.44z M95.93,94.78H64.64
			c-0.42,0-0.81-0.23-1.02-0.59l-15.65-27.1c-0.21-0.37-0.21-0.82,0-1.18l15.65-27.1c0.21-0.37,0.6-0.59,1.02-0.59h31.29
			c0.42,0,0.81,0.23,1.02,0.59l15.64,27.1c0.21,0.37,0.21,0.82,0,1.18l-15.64,27.1C96.74,94.55,96.35,94.78,95.93,94.78z"/>
		<path class="st0" d="M120.48,109.66c-0.36,0.08-0.72,0.18-1.07,0.29c-0.05,0.02-0.11,0.03-0.16,0.05c-0.34,0.11-0.67,0.22-1,0.35
			c-0.04,0.02-0.09,0.04-0.13,0.05c-0.95,0.38-1.85,0.85-2.71,1.39c-0.12,0.08-0.25,0.15-0.37,0.24c-0.2,0.14-0.4,0.28-0.6,0.43
			c-0.16,0.12-0.32,0.24-0.48,0.37c-0.17,0.14-0.34,0.27-0.5,0.42c-0.19,0.16-0.37,0.34-0.56,0.51c-0.13,0.12-0.26,0.24-0.38,0.36
			c-0.3,0.3-0.59,0.61-0.86,0.94c-0.05,0.06-0.1,0.13-0.15,0.19c-0.23,0.28-0.45,0.57-0.66,0.86c-0.08,0.11-0.15,0.22-0.22,0.33
			c-0.18,0.27-0.35,0.54-0.52,0.81c-0.07,0.11-0.13,0.23-0.2,0.34c-0.17,0.31-0.33,0.62-0.49,0.94c-0.04,0.08-0.08,0.17-0.12,0.25
			c-0.19,0.42-0.37,0.84-0.52,1.27c0,0.01-0.01,0.03-0.01,0.04c-0.14,0.4-0.27,0.82-0.38,1.24c-0.03,0.13-0.06,0.26-0.1,0.39
			c-0.21,0.87-0.36,1.77-0.43,2.69h13.19c1.08,0,1.95-0.88,1.95-1.95v-2.23v-10.95C122.17,109.33,121.32,109.46,120.48,109.66
			L120.48,109.66z"/>
		<polygon class="st0" points="87.74,55.94 93.16,65.32 102.55,65.32 92.44,47.8 		"/>
		<path class="st0" d="M124.18,26.14c-0.45,0-0.89-0.02-1.33-0.05c-0.03,0-0.06,0-0.09-0.01c-0.46-0.03-0.91-0.08-1.36-0.15v81.13
			c0.45-0.07,0.9-0.11,1.36-0.15c0.03,0,0.06,0,0.09-0.01c0.44-0.03,0.88-0.05,1.33-0.05c0.65,0,1.18,0.53,1.18,1.18v11h0.72
			c1.39,0,2.53-1.13,2.53-2.53V16.49c0-1.39-1.13-2.53-2.53-2.53h-0.72v11C125.36,25.61,124.83,26.14,124.18,26.14z"/>
		<polygon class="st0" points="87.74,77.06 92.44,85.2 102.55,67.68 93.16,67.68 		"/>
		<path class="st0" d="M38.35,8.6c-1.08,0-1.95,0.88-1.95,1.95v13.18c0.86-0.06,1.7-0.2,2.51-0.39c0,0,0,0,0,0
			c0.36-0.08,0.72-0.18,1.07-0.29c0.05-0.02,0.11-0.03,0.16-0.05c0.34-0.11,0.67-0.22,1-0.35c0.04-0.02,0.09-0.04,0.13-0.05
			c0.95-0.38,1.85-0.85,2.71-1.39c0.12-0.08,0.25-0.15,0.37-0.24c0.2-0.14,0.4-0.28,0.6-0.43c0.16-0.12,0.32-0.24,0.48-0.37
			c0.17-0.14,0.34-0.27,0.5-0.42c0.19-0.16,0.37-0.34,0.56-0.51c0.13-0.12,0.26-0.24,0.38-0.36c0.3-0.3,0.59-0.61,0.86-0.94
			c0.05-0.06,0.1-0.13,0.15-0.19c0.23-0.28,0.45-0.57,0.66-0.86c0.08-0.11,0.15-0.22,0.22-0.33c0.18-0.27,0.35-0.54,0.52-0.81
			c0.07-0.11,0.13-0.23,0.2-0.34c0.17-0.31,0.33-0.62,0.49-0.94c0.04-0.08,0.08-0.17,0.12-0.25c0.19-0.42,0.37-0.84,0.52-1.27
			c0-0.01,0.01-0.03,0.01-0.04c0.14-0.4,0.27-0.82,0.38-1.24c0.03-0.13,0.06-0.26,0.1-0.39c0.21-0.87,0.36-1.77,0.43-2.69H38.35z"/>
		<polygon class="st0" points="74.87,78.24 70.17,86.38 90.4,86.38 85.7,78.24 		"/>
		<path class="st0" d="M108.76,12.91c0.01,0.01,0.01,0.03,0.01,0.04c0.16,0.43,0.33,0.86,0.52,1.27c0.04,0.08,0.08,0.17,0.12,0.25
			c0.15,0.32,0.32,0.63,0.49,0.94c0.06,0.11,0.13,0.23,0.2,0.34c0.17,0.28,0.34,0.55,0.52,0.82c0.07,0.11,0.15,0.22,0.22,0.32
			c0.21,0.3,0.43,0.58,0.67,0.87c0.05,0.06,0.1,0.13,0.15,0.19c0.27,0.33,0.56,0.64,0.86,0.94c0.12,0.12,0.25,0.24,0.37,0.36
			c0.18,0.18,0.37,0.35,0.56,0.51c0.16,0.14,0.33,0.28,0.5,0.41c0.16,0.13,0.32,0.25,0.48,0.37c0.2,0.14,0.39,0.29,0.59,0.43
			c0.12,0.08,0.25,0.16,0.38,0.24c0.85,0.54,1.75,1.01,2.7,1.39c0.05,0.02,0.09,0.04,0.14,0.06c0.33,0.13,0.66,0.24,1,0.35
			c0.05,0.02,0.11,0.03,0.16,0.05c0.35,0.11,0.71,0.2,1.07,0.29l0,0c0.85,0.2,1.69,0.33,2.52,0.39V12.78v-2.23
			c0-1.08-0.88-1.95-1.95-1.95h-13.19c0.07,0.92,0.22,1.81,0.43,2.69c0.03,0.13,0.06,0.26,0.1,0.39
			C108.49,12.09,108.62,12.5,108.76,12.91z"/>
		<polygon class="st0" points="74.87,57.12 69.45,66.5 74.87,75.88 85.7,75.88 91.11,66.5 85.7,57.12 		"/>
		<polygon class="st0" points="67.41,67.68 58.01,67.68 68.13,85.2 72.82,77.06 		"/>
		<path class="st0" d="M50.63,120.09c-0.01-0.01-0.01-0.03-0.01-0.04c-0.16-0.43-0.33-0.86-0.52-1.27
			c-0.04-0.08-0.08-0.17-0.12-0.25c-0.15-0.32-0.32-0.63-0.49-0.94c-0.06-0.11-0.13-0.23-0.2-0.34c-0.17-0.28-0.34-0.55-0.52-0.81
			c-0.07-0.11-0.15-0.22-0.22-0.33c-0.21-0.3-0.43-0.58-0.66-0.87c-0.05-0.06-0.1-0.13-0.15-0.19c-0.27-0.33-0.56-0.64-0.86-0.94
			c-0.12-0.12-0.25-0.24-0.37-0.35c-0.18-0.18-0.37-0.35-0.56-0.52c-0.16-0.14-0.33-0.28-0.5-0.41c-0.16-0.13-0.32-0.25-0.49-0.38
			c-0.19-0.14-0.39-0.29-0.59-0.42c-0.13-0.09-0.26-0.17-0.39-0.25c-0.84-0.53-1.73-1-2.67-1.37c-0.05-0.02-0.11-0.05-0.16-0.07
			c-0.32-0.12-0.65-0.24-0.98-0.34c-0.06-0.02-0.13-0.04-0.19-0.06c-0.34-0.1-0.69-0.2-1.05-0.28c-0.82-0.19-1.66-0.33-2.52-0.39
			v13.18c0,1.08,0.88,1.95,1.95,1.95h13.19c-0.07-0.92-0.22-1.81-0.43-2.69c-0.03-0.13-0.06-0.26-0.1-0.39
			C50.9,120.91,50.78,120.5,50.63,120.09z"/>
		<polygon class="st0" points="72.82,55.94 68.13,47.8 58.01,65.32 67.41,65.32 		"/>
		<polygon class="st0" points="85.7,54.76 90.4,46.62 70.17,46.62 74.87,54.76 		"/>
	</g>
</g>
</svg>
