<?xml version="1.0" encoding="utf-8"?>
<!-- Generator: Adobe Illustrator 24.3.0, SVG Export Plug-In . SVG Version: 6.00 Build 0)  -->
<svg version="1.1" xmlns="http://www.w3.org/2000/svg" xmlns:xlink="http://www.w3.org/1999/xlink" x="0px" y="0px"
	 viewBox="0 0 41.9 41.9" style="enable-background:new 0 0 41.9 41.9;" xml:space="preserve">
<style type="text/css">
	.st0{fill:#FFFFFF;}
</style>
<g id="libroabierto">
	<rect x="30.6" y="8.8" class="st0" width="0.3" height="27.2"/>
	<rect x="31" y="8.8" class="st0" width="0.2" height="27.2"/>
	<rect x="31.3" y="8.8" class="st0" width="0.2" height="27.2"/>
	<rect x="31.6" y="8.8" class="st0" width="0.2" height="27.2"/>
	<path class="st0" d="M6.9,10c0-0.1,0-2.3,0-2.8c0,0,0-0.1,0.1-0.1l0.8,0c0,0,0,0,0-0.3H7.1c-0.3,0-0.5,0.2-0.5,0.5V8V10
		C6.8,10,6.9,10,6.9,10z"/>
	<path class="st0" d="M6.6,32v2.1v0.6c0,0.3,0.2,0.5,0.5,0.5h0.7c0-0.3,0-0.3,0-0.3l-0.8,0c0,0-0.1,0-0.1-0.1c0-0.5,0-2.7,0-2.8
		C6.9,32,6.8,32,6.6,32z"/>
	<path class="st0" d="M10.9,12c0-0.2,0-0.6,0-0.6S11,9.7,11,9.1c0,0-0.8-0.8-1.3-1C9,7.7,7.9,7.4,7.9,7.4v27.2c0,0,1.1,0.1,1.6,0.3
		c0.6,0.2,1.6,0.8,1.6,0.8L10.9,12z"/>
	<path class="st0" d="M32,11.4c0.2,0,0.2,0.1,0.4,0.1V8.2c0-0.3-0.2-0.5-0.5-0.5h-3.3c0,0.2,0.1,0.6,0.1,0.8l2.9,0
		c0.2,0,0.4,0.2,0.4,0.3L32,11.4z"/>
	<path class="st0" d="M31.9,36c0,0.2-0.2,0.3-0.4,0.3l-2.9,0c0,0.2-0.1,0.6-0.1,0.8h3.3c0.3,0,0.5-0.2,0.5-0.5v-3.3
		c-0.2,0-0.2,0.1-0.4,0.1L31.9,36z"/>
	<path class="st0" d="M11,8.9c0-0.2,0.2-0.3,0.4-0.3l2.9,0c0-0.2,0.1-0.6,0.1-0.8H11c-0.3,0-0.5,0.2-0.5,0.5v0.3
		C10.7,8.5,10.8,8.7,11,8.9L11,8.9z"/>
	<path class="st0" d="M11.1,35.9c-0.2,0-0.2-0.1-0.4-0.1v0.8c0,0.3,0.2,0.5,0.5,0.5h3.3c0-0.2-0.1-0.6-0.1-0.8l-2.9,0
		C11.2,36.3,11.1,36.1,11.1,35.9L11.1,35.9z"/>
	<rect x="30" y="8.8" class="st0" width="0.3" height="27.2"/>
	<path class="st0" d="M29.6,8.8h-18c-0.2,0-0.3,0.1-0.3,0.3v26.6c0,0.2,0.1,0.3,0.3,0.3h18c0.2,0,0.3-0.1,0.3-0.3V9.1
		C29.9,9,29.8,8.8,29.6,8.8z M22.7,14h-0.9l-0.5-0.9l0.4-0.7L22.7,14z M21.2,15.2l0.4,0.7h-1.9l0.4-0.7H21.2z M19.7,14.1l0.5-0.9h1
		l0.5,0.9l-0.5,0.9h-1L19.7,14.1z M21.4,15.1l0.5-0.9h0.9l-0.9,1.6L21.4,15.1z M21.6,12.3L21.2,13h-1l-0.4-0.7H21.6z M19.5,12.4
		l0.4,0.7L19.5,14h-0.9L19.5,12.4z M19.5,14.2l0.5,0.9l-0.4,0.7l-0.9-1.6H19.5z M28.2,29h-15v-0.3h15V29z M28.2,26.9h-15v-0.3h15
		V26.9z M28.2,25h-15v-0.3h15V25z M28.2,23.1h-15v-0.3h15V23.1z M28.2,21.1h-15v-0.3h15V21.1z M28.2,19.1h-15v-0.3h15V19.1z"/>
	<rect x="7.1" y="7.3" class="st0" width="0.5" height="27.2"/>
</g>
<g id="librocerrado">
	<path class="st0" d="M27,33.9c0-0.1,0-0.1,0.1-0.2v-0.1c0-0.1,0.1-0.2,0.1-0.2s0,0,0-0.1s0.1-0.1,0.1-0.2c0,0,0-0.1,0.1-0.1
		c0,0,0.1-0.1,0.1-0.2v-0.1c0-0.1,0.1-0.1,0.2-0.2l0,0c0-0.1,0.1-0.1,0.1-0.2c0,0,0,0,0-0.1s0.1-0.1,0.2-0.2l0,0
		c0.1-0.1,0.3-0.3,0.4-0.4l0,0c0.5-0.4,1-0.7,1.6-0.8V10.4c-0.6-0.2-1.1-0.5-1.6-0.8l0,0c-0.2-0.1-0.3-0.2-0.4-0.4l0,0
		C28,9.1,27.9,9,27.9,9s0,0,0-0.1s-0.1-0.1-0.1-0.2l0,0c-0.1-0.1-0.1-0.1-0.1-0.2c0,0,0-0.1-0.1-0.1l-0.1-0.1c0,0,0-0.1-0.1-0.1
		c0-0.1-0.1-0.1-0.1-0.2V7.9c0-0.1-0.1-0.2-0.1-0.2V7.6c0-0.1,0-0.1-0.1-0.2V7.3c0-0.1,0-0.1-0.1-0.2c0,0,0,0,0-0.1H13.7l0,0
		c0,0.1,0,0.1-0.1,0.2v0.1c0,0.1,0,0.1-0.1,0.2v0.1c0,0.1-0.1,0.2-0.1,0.2s0,0,0,0.1S13.3,8,13.3,8.1c0,0,0,0.1-0.1,0.1l-0.1,0.1
		v0.1c0,0.1-0.1,0.1-0.2,0.2l0,0c0,0.1-0.1,0.1-0.1,0.2c0,0,0,0,0,0.1C12.7,9,12.7,9,12.6,9.1l0,0c-0.1,0.1-0.3,0.3-0.4,0.4l0,0
		c-0.5,0.4-1,0.7-1.6,0.8v20.5c0.6,0.2,1.1,0.5,1.6,0.8l0,0c0.2,0.1,0.3,0.2,0.4,0.4l0,0c0.1,0.1,0.1,0.1,0.2,0.2c0,0,0,0,0.1,0.1
		c0,0.1,0.1,0.1,0.1,0.2l0,0c0.1,0.1,0.1,0.1,0.2,0.2c0,0,0,0.1,0.1,0.1l0.1,0.1c0,0,0,0.1,0.1,0.1c0,0.1,0.1,0.1,0.1,0.2v0.1
		c0,0.1,0.1,0.2,0.1,0.2v0.1c0,0.1,0,0.1,0.1,0.2v0.1c0,0.1,0,0.1,0.1,0.2c0,0,0,0,0,0.1h13.2l0,0C26.9,34.1,26.9,34.1,27,33.9
		C26.9,34,27,33.9,27,33.9z M24.3,27.7h-7.8c-0.1,0-0.2-0.1-0.3-0.1l-3.9-6.8c-0.1-0.1-0.1-0.2,0-0.3l3.9-6.8
		c0.1-0.1,0.1-0.1,0.3-0.1h7.8c0.1,0,0.2,0.1,0.3,0.1l3.9,6.8c0.1,0.1,0.1,0.2,0,0.3l-3.9,6.8C24.5,27.7,24.4,27.7,24.3,27.7z"/>
	<path class="st0" d="M30.5,31.5c-0.1,0-0.2,0-0.3,0.1l0,0c-0.1,0-0.2,0.1-0.2,0.1l0,0c-0.2,0.1-0.5,0.2-0.7,0.3c0,0-0.1,0-0.1,0.1
		c-0.1,0-0.1,0.1-0.1,0.1L29,32.3l-0.1,0.1l-0.1,0.1l-0.1,0.1c-0.1,0.1-0.1,0.2-0.2,0.2l0,0c-0.1,0.1-0.1,0.1-0.2,0.2
		c0,0,0,0.1-0.1,0.1c0,0.1-0.1,0.1-0.1,0.2v0.1c0,0.1-0.1,0.2-0.1,0.2s0,0,0,0.1s-0.1,0.2-0.1,0.3l0,0c0,0.1-0.1,0.2-0.1,0.3v0.1
		c-0.1,0.2-0.1,0.4-0.1,0.7H31c0.3,0,0.5-0.2,0.5-0.5V34v-2.7C30.9,31.4,30.7,31.4,30.5,31.5z"/>
	<path class="st0" d="M22.3,18l1.4,2.3H26L23.5,16L22.3,18z"/>
	<path class="st0" d="M31.4,10.6c-0.1,0-0.2,0-0.3,0l0,0c-0.1,0-0.2,0-0.3,0v20.3c0.1,0,0.2,0,0.3,0l0,0c0.1,0,0.2,0,0.3,0
		c0.2,0,0.3,0.1,0.3,0.3V34h0.2c0.3,0,0.6-0.3,0.6-0.6v-25c0-0.3-0.3-0.6-0.6-0.6h-0.2v2.8C31.7,10.4,31.6,10.6,31.4,10.6z"/>
	<path class="st0" d="M22.3,23.3l1.2,2L26,21h-2.3L22.3,23.3z"/>
	<path class="st0" d="M9.9,6.2c-0.3,0-0.5,0.2-0.5,0.5V10c0.2,0,0.4-0.1,0.6-0.1c0.1,0,0.2,0,0.3-0.1l0,0c0.1,0,0.2-0.1,0.2-0.1l0,0
		c0.2-0.1,0.5-0.2,0.7-0.3c0,0,0.1,0,0.1-0.1c0.1,0,0.1-0.1,0.2-0.1l0.1-0.1L11.7,9l0.1-0.1l0.1-0.1C12,8.7,12,8.6,12.1,8.6l0,0
		c0.1-0.1,0.1-0.1,0.2-0.2c0,0,0-0.1,0.1-0.1c0-0.1,0.1-0.1,0.1-0.2c0,0,0-0.1,0.1-0.1c0-0.1,0.1-0.2,0.1-0.2s0,0,0-0.1
		s0.1-0.2,0.1-0.3l0,0c0-0.1,0.1-0.2,0.1-0.3V7C13,6.8,13,6.6,13,6.3L9.9,6.2L9.9,6.2z"/>
	<path class="st0" d="M19.1,23.6l-1.2,2H23l-1.2-2H19.1z"/>
	<path class="st0" d="M27.5,7.3L27.5,7.3c0,0.1,0.1,0.2,0.1,0.3c0,0,0,0,0,0.1s0.1,0.2,0.1,0.2V8C27.9,8,28,8.1,28,8.2
		c0,0,0,0.1,0.1,0.1c0.1,0.1,0.1,0.1,0.2,0.2l0,0c0.1,0.1,0.1,0.2,0.2,0.2l0.1,0.1l0.1,0.1L28.8,9l0.1,0.1L29,9.2c0,0,0.1,0,0.1,0.1
		c0.2,0.1,0.4,0.3,0.7,0.3l0,0c0.1,0,0.2,0.1,0.2,0.1l0,0c0.1,0,0.2,0.1,0.3,0.1c0.2,0.1,0.4,0.1,0.6,0.1V7.2V6.7
		c0-0.3-0.2-0.5-0.5-0.5h-3.3c0,0.2,0.1,0.5,0.1,0.7V7C27.5,7.1,27.5,7.2,27.5,7.3z"/>
	<path class="st0" d="M19.1,18.3l-1.4,2.3l1.4,2.3h2.7l1.4-2.3l-1.4-2.3H19.1z"/>
	<path class="st0" d="M17.2,21h-2.4l2.5,4.4l1.2-2L17.2,21z"/>
	<path class="st0" d="M13,34.1L13,34.1c0-0.1-0.1-0.2-0.1-0.3c0,0,0,0,0-0.1s-0.1-0.2-0.1-0.2v-0.1c0-0.1-0.1-0.1-0.1-0.2
		c0,0,0-0.1-0.1-0.1c-0.1-0.1-0.1-0.1-0.2-0.2l0,0c-0.1-0.1-0.1-0.2-0.2-0.2l-0.1-0.1L12,32.5l-0.1-0.1l-0.1-0.1l-0.1-0.1
		c0,0-0.1,0-0.1-0.1c-0.2-0.1-0.4-0.2-0.7-0.3l0,0c-0.1,0-0.2-0.1-0.2-0.1l0,0c-0.1,0-0.2-0.1-0.3-0.1c-0.2,0-0.4-0.1-0.6-0.1v3.3
		c0,0.3,0.2,0.5,0.5,0.5h3.3c0-0.2-0.1-0.5-0.1-0.7v-0.1C13.1,34.3,13,34.2,13,34.1z"/>
	<path class="st0" d="M18.6,18l-1.2-2l-2.5,4.4h2.4L18.6,18z"/>
	<path class="st0" d="M21.8,17.7l1.2-2h-5.1l1.2,2H21.8z"/>
</g>
</svg>
