<?xml version="1.0" encoding="utf-8"?>
<!-- Generator: Adobe Illustrator 26.3.1, SVG Export Plug-In . SVG Version: 6.00 Build 0)  -->
<svg version="1.1" xmlns="http://www.w3.org/2000/svg" xmlns:xlink="http://www.w3.org/1999/xlink" x="0px" y="0px"
	 viewBox="0 0 41.9 41.9" style="enable-background:new 0 0 41.9 41.9;" xml:space="preserve">
<style type="text/css">
	.st0{display:none;stroke:#000000;stroke-miterlimit:10;}
	.st1{fill:#FFFFFF;}
</style>
<g id="Capa_2">
	<rect x="-87.2" y="6.9" class="st0" width="149.6" height="41.5"/>
</g>
<g id="Capa_1">
	<path class="st1" d="M27,33.9c0-0.1,0-0.1,0.1-0.2c0,0,0-0.1,0-0.1c0-0.1,0.1-0.2,0.1-0.2c0,0,0,0,0-0.1c0-0.1,0.1-0.1,0.1-0.2
		c0,0,0-0.1,0.1-0.1c0,0,0.1-0.1,0.1-0.2c0,0,0-0.1,0-0.1c0-0.1,0.1-0.1,0.2-0.2c0,0,0,0,0,0c0-0.1,0.1-0.1,0.1-0.2c0,0,0,0,0-0.1
		c0-0.1,0.1-0.1,0.2-0.2c0,0,0,0,0,0c0.1-0.1,0.3-0.3,0.4-0.4c0,0,0,0,0,0c0.5-0.4,1-0.7,1.6-0.8V10.4c-0.6-0.2-1.1-0.5-1.6-0.8
		c0,0,0,0,0,0c-0.2-0.1-0.3-0.2-0.4-0.4c0,0,0,0,0,0C28,9.1,27.9,9,27.9,9c0,0,0,0,0-0.1c0-0.1-0.1-0.1-0.1-0.2c0,0,0,0,0,0
		c-0.1-0.1-0.1-0.1-0.1-0.2c0,0,0-0.1-0.1-0.1c0,0-0.1-0.1-0.1-0.1c0,0,0-0.1-0.1-0.1c0-0.1-0.1-0.1-0.1-0.2c0,0,0-0.1,0-0.1
		c0-0.1-0.1-0.2-0.1-0.2c0,0,0-0.1,0-0.1c0-0.1,0-0.1-0.1-0.2c0,0,0-0.1,0-0.1c0-0.1,0-0.1-0.1-0.2c0,0,0,0,0-0.1H13.7c0,0,0,0,0,0
		c0,0.1,0,0.1-0.1,0.2c0,0,0,0.1,0,0.1c0,0.1,0,0.1-0.1,0.2c0,0,0,0.1,0,0.1c0,0.1-0.1,0.2-0.1,0.2c0,0,0,0,0,0.1
		c0,0.1-0.1,0.1-0.1,0.2c0,0,0,0.1-0.1,0.1c0,0-0.1,0.1-0.1,0.1c0,0,0,0.1,0,0.1c0,0.1-0.1,0.1-0.2,0.2c0,0,0,0,0,0
		c0,0.1-0.1,0.1-0.1,0.2c0,0,0,0,0,0.1c-0.1,0.1-0.1,0.1-0.2,0.2c0,0,0,0,0,0c-0.1,0.1-0.3,0.3-0.4,0.4c0,0,0,0,0,0
		c-0.5,0.4-1,0.7-1.6,0.8v20.5c0.6,0.2,1.1,0.5,1.6,0.8c0,0,0,0,0,0c0.2,0.1,0.3,0.2,0.4,0.4c0,0,0,0,0,0c0.1,0.1,0.1,0.1,0.2,0.2
		c0,0,0,0,0.1,0.1c0,0.1,0.1,0.1,0.1,0.2c0,0,0,0,0,0c0.1,0.1,0.1,0.1,0.2,0.2c0,0,0,0.1,0.1,0.1c0,0,0.1,0.1,0.1,0.1
		c0,0,0,0.1,0.1,0.1c0,0.1,0.1,0.1,0.1,0.2c0,0,0,0.1,0,0.1c0,0.1,0.1,0.2,0.1,0.2c0,0,0,0.1,0,0.1c0,0.1,0,0.1,0.1,0.2
		c0,0,0,0.1,0,0.1c0,0.1,0,0.1,0.1,0.2c0,0,0,0,0,0.1h13.2c0,0,0,0,0,0C26.9,34.1,26.9,34.1,27,33.9C26.9,34,27,33.9,27,33.9z
		 M24.3,27.7h-7.8c-0.1,0-0.2-0.1-0.3-0.1l-3.9-6.8c-0.1-0.1-0.1-0.2,0-0.3l3.9-6.8c0.1-0.1,0.1-0.1,0.3-0.1h7.8
		c0.1,0,0.2,0.1,0.3,0.1l3.9,6.8c0.1,0.1,0.1,0.2,0,0.3l-3.9,6.8C24.5,27.7,24.4,27.7,24.3,27.7z"/>
	<path class="st1" d="M30.5,31.5c-0.1,0-0.2,0-0.3,0.1c0,0,0,0,0,0c-0.1,0-0.2,0.1-0.2,0.1c0,0,0,0,0,0c-0.2,0.1-0.5,0.2-0.7,0.3
		c0,0-0.1,0-0.1,0.1c-0.1,0-0.1,0.1-0.1,0.1c0,0-0.1,0.1-0.1,0.1c0,0-0.1,0.1-0.1,0.1c0,0-0.1,0.1-0.1,0.1c0,0-0.1,0.1-0.1,0.1
		c-0.1,0.1-0.1,0.2-0.2,0.2c0,0,0,0,0,0c-0.1,0.1-0.1,0.1-0.2,0.2c0,0,0,0.1-0.1,0.1c0,0.1-0.1,0.1-0.1,0.2c0,0,0,0.1,0,0.1
		c0,0.1-0.1,0.2-0.1,0.2c0,0,0,0,0,0.1c0,0.1-0.1,0.2-0.1,0.3c0,0,0,0,0,0c0,0.1-0.1,0.2-0.1,0.3c0,0,0,0.1,0,0.1
		c-0.1,0.2-0.1,0.4-0.1,0.7h3.3c0.3,0,0.5-0.2,0.5-0.5v-0.6v-2.7C30.9,31.4,30.7,31.4,30.5,31.5z"/>
	<path class="st1" d="M22.3,18l1.4,2.3H26L23.5,16L22.3,18z"/>
	<path class="st1" d="M31.4,10.6c-0.1,0-0.2,0-0.3,0c0,0,0,0,0,0c-0.1,0-0.2,0-0.3,0v20.3c0.1,0,0.2,0,0.3,0c0,0,0,0,0,0
		c0.1,0,0.2,0,0.3,0c0.2,0,0.3,0.1,0.3,0.3v2.8h0.2c0.3,0,0.6-0.3,0.6-0.6v-25c0-0.3-0.3-0.6-0.6-0.6h-0.2v2.8
		C31.7,10.4,31.6,10.6,31.4,10.6z"/>
	<path class="st1" d="M22.3,23.3l1.2,2L26,21h-2.3L22.3,23.3z"/>
	<path class="st1" d="M9.9,6.2c-0.3,0-0.5,0.2-0.5,0.5V10c0.2,0,0.4-0.1,0.6-0.1c0.1,0,0.2,0,0.3-0.1c0,0,0,0,0,0
		c0.1,0,0.2-0.1,0.2-0.1c0,0,0,0,0,0c0.2-0.1,0.5-0.2,0.7-0.3c0,0,0.1,0,0.1-0.1c0.1,0,0.1-0.1,0.2-0.1c0,0,0.1-0.1,0.1-0.1
		c0,0,0.1-0.1,0.1-0.1c0,0,0.1-0.1,0.1-0.1c0,0,0.1-0.1,0.1-0.1c0.1-0.1,0.1-0.2,0.2-0.2c0,0,0,0,0,0c0.1-0.1,0.1-0.1,0.2-0.2
		c0,0,0-0.1,0.1-0.1c0-0.1,0.1-0.1,0.1-0.2c0,0,0-0.1,0.1-0.1c0-0.1,0.1-0.2,0.1-0.2c0,0,0,0,0-0.1c0-0.1,0.1-0.2,0.1-0.3
		c0,0,0,0,0,0c0-0.1,0.1-0.2,0.1-0.3c0,0,0-0.1,0-0.1c0.1-0.2,0.1-0.4,0.1-0.7L9.9,6.2L9.9,6.2z"/>
	<path class="st1" d="M19.1,23.6l-1.2,2h5.1l-1.2-2H19.1z"/>
	<path class="st1" d="M27.5,7.3C27.5,7.3,27.5,7.3,27.5,7.3c0,0.1,0.1,0.2,0.1,0.3c0,0,0,0,0,0.1c0,0.1,0.1,0.2,0.1,0.2
		c0,0,0,0.1,0,0.1C27.9,8,28,8.1,28,8.2c0,0,0,0.1,0.1,0.1c0.1,0.1,0.1,0.1,0.2,0.2c0,0,0,0,0,0c0.1,0.1,0.1,0.2,0.2,0.2
		c0,0,0.1,0.1,0.1,0.1c0,0,0.1,0.1,0.1,0.1c0,0,0.1,0.1,0.1,0.1c0,0,0.1,0.1,0.1,0.1c0,0,0.1,0.1,0.1,0.1c0,0,0.1,0,0.1,0.1
		c0.2,0.1,0.4,0.3,0.7,0.3c0,0,0,0,0,0c0.1,0,0.2,0.1,0.2,0.1c0,0,0,0,0,0c0.1,0,0.2,0.1,0.3,0.1c0.2,0.1,0.4,0.1,0.6,0.1V7.2V6.7
		c0-0.3-0.2-0.5-0.5-0.5h-3.3c0,0.2,0.1,0.5,0.1,0.7c0,0,0,0.1,0,0.1C27.5,7.1,27.5,7.2,27.5,7.3z"/>
	<path class="st1" d="M19.1,18.3l-1.4,2.3l1.4,2.3h2.7l1.4-2.3l-1.4-2.3H19.1z"/>
	<path class="st1" d="M17.2,21h-2.4l2.5,4.4l1.2-2L17.2,21z"/>
	<path class="st1" d="M13,34.1C13,34.1,13,34.1,13,34.1c0-0.1-0.1-0.2-0.1-0.3c0,0,0,0,0-0.1c0-0.1-0.1-0.2-0.1-0.2c0,0,0-0.1,0-0.1
		c0-0.1-0.1-0.1-0.1-0.2c0,0,0-0.1-0.1-0.1c-0.1-0.1-0.1-0.1-0.2-0.2c0,0,0,0,0,0c-0.1-0.1-0.1-0.2-0.2-0.2c0,0-0.1-0.1-0.1-0.1
		c0,0-0.1-0.1-0.1-0.1c0,0-0.1-0.1-0.1-0.1c0,0-0.1-0.1-0.1-0.1c0,0-0.1-0.1-0.1-0.1c0,0-0.1,0-0.1-0.1c-0.2-0.1-0.4-0.2-0.7-0.3
		c0,0,0,0,0,0c-0.1,0-0.2-0.1-0.2-0.1c0,0,0,0,0,0c-0.1,0-0.2-0.1-0.3-0.1c-0.2,0-0.4-0.1-0.6-0.1v3.3c0,0.3,0.2,0.5,0.5,0.5h3.3
		c0-0.2-0.1-0.5-0.1-0.7c0,0,0-0.1,0-0.1C13.1,34.3,13,34.2,13,34.1z"/>
	<path class="st1" d="M18.6,18l-1.2-2l-2.5,4.4h2.4L18.6,18z"/>
	<path class="st1" d="M21.8,17.7l1.2-2h-5.1l1.2,2H21.8z"/>
</g>
</svg>
