<svg width="46" height="46" viewBox="0 0 46 46" fill="none" xmlns="http://www.w3.org/2000/svg">
<path d="M46 23C46 10.2939 35.6974 0 23 0C10.2939 0 0 10.2939 0 23C0 34.477 8.40794 43.9933 19.4063 45.7168V29.6499H13.5657V23.0014H19.4063V17.9314C19.4063 12.1684 22.8347 8.98581 28.0902 8.98581C30.6073 8.98581 33.2422 9.43431 33.2422 9.43431V15.0938H30.337C27.485 15.0938 26.5938 16.8691 26.5938 18.6875V23H32.9719L31.947 29.6484H26.5938V45.7154C37.5834 43.9918 46 34.4756 46 22.9986V23Z" fill="white"/>
</svg>
