<?xml version="1.0" encoding="utf-8"?>
<!-- Generator: Adobe Illustrator 26.3.1, SVG Export Plug-In . SVG Version: 6.00 Build 0)  -->
<svg version="1.1" id="Layer_1" xmlns="http://www.w3.org/2000/svg" xmlns:xlink="http://www.w3.org/1999/xlink" x="0px" y="0px"
	 viewBox="0 0 39.7 39.7" style="enable-background:new 0 0 39.7 39.7;" xml:space="preserve">
<style type="text/css">
	.st0{fill-rule:evenodd;clip-rule:evenodd;fill:#FFFFFF;}
</style>
<g>
	<path class="st0" d="M6,5.7h27.8c1.6,0,2.8,1.3,2.8,2.8l0,0c0,1.6-1.3,2.8-2.8,2.8H6c-1.6,0-2.8-1.3-2.8-2.8l0,0
		C3.1,7,4.4,5.7,6,5.7L6,5.7z M6,28.3h27.8c1.6,0,2.8,1.3,2.8,2.8l0,0c0,1.6-1.3,2.8-2.8,2.8H6c-1.6,0-2.8-1.3-2.8-2.9l0,0
		C3.1,29.5,4.4,28.3,6,28.3L6,28.3z M6,17h27.8c1.6,0,2.8,1.3,2.8,2.8l0,0c0,1.6-1.3,2.8-2.8,2.8H6c-1.6,0-2.8-1.3-2.8-2.8l0,0
		C3.1,18.3,4.4,17,6,17L6,17z"/>
</g>
</svg>
