<?xml version="1.0" encoding="utf-8"?>
<!-- Generator: Adobe Illustrator 26.3.1, SVG Export Plug-In . SVG Version: 6.00 Build 0)  -->
<svg version="1.1" id="Layer_1" xmlns="http://www.w3.org/2000/svg" xmlns:xlink="http://www.w3.org/1999/xlink" x="0px" y="0px"
	 viewBox="0 0 122.9 103.6" style="enable-background:new 0 0 122.9 103.6;" xml:space="preserve">
<style type="text/css">
	.st0{fill-rule:evenodd;clip-rule:evenodd;fill:#FFFFFF;}
</style>
<g>
	<path class="st0" d="M10.4,0h102.1c5.7,0,10.4,4.7,10.4,10.4l0,0c0,5.7-4.7,10.4-10.4,10.4H10.4C4.7,20.7,0,16.1,0,10.4l0,0
		C0,4.7,4.7,0,10.4,0L10.4,0z M10.4,82.9h102.1c5.7,0,10.4,4.7,10.4,10.4l0,0c0,5.7-4.7,10.4-10.4,10.4H10.4
		C4.7,103.6,0,98.9,0,93.2l0,0C0,87.5,4.7,82.9,10.4,82.9L10.4,82.9z M10.4,41.4h102.1c5.7,0,10.4,4.7,10.4,10.4l0,0
		c0,5.7-4.7,10.4-10.4,10.4H10.4C4.7,62.2,0,57.5,0,51.8l0,0C0,46.1,4.7,41.4,10.4,41.4L10.4,41.4z"/>
</g>
</svg>
