<?xml version="1.0" encoding="utf-8"?>
<!-- Generator: Adobe Illustrator 26.3.1, SVG Export Plug-In . SVG Version: 6.00 Build 0)  -->
<svg version="1.1" id="Capa_1" xmlns="http://www.w3.org/2000/svg" xmlns:xlink="http://www.w3.org/1999/xlink" x="0px" y="0px"
	 viewBox="0 0 948 260" style="enable-background:new 0 0 948 260;" xml:space="preserve">
<style type="text/css">
	.st0{fill:#1B1B1B;}
	.st1{fill:#010202;stroke:#FFFFFF;stroke-width:3;stroke-linecap:round;stroke-linejoin:round;stroke-miterlimit:10;}
	.st2{fill:#010202;stroke:#FFFFFF;stroke-miterlimit:10;}
	.st3{fill:#161617;}
</style>
<g>
	<g>
		<path class="st0" d="M135.31,161.76H85.59H71.1H40.28h-0.26c-0.65,0-1.18,0.53-1.18,1.18v0.91c0,0.65,0.53,1.18,1.18,1.18h140.87
			c0.65,0,1.18-0.53,1.18-1.18v-0.91c0-0.65-0.53-1.18-1.18-1.18h-0.26H149.8H135.31z"/>
		<path class="st0" d="M165.13,90.21c0.65,0,1.18-0.53,1.18-1.18v-0.91c0-0.65-0.53-1.18-1.18-1.18h-1.27h-28.18h-25.23H85.22H57.05
			h-1.27c-0.65,0-1.18,0.53-1.18,1.18v0.91c0,0.65,0.53,1.18,1.18,1.18h54.68H165.13z"/>
		<polygon class="st0" points="104.5,56.82 62.11,83.97 84.47,83.97 		"/>
		<polygon class="st0" points="151.02,158.79 178.77,158.79 164.14,93.17 138.4,93.17 		"/>
		<polygon class="st0" points="158.79,83.97 116.4,56.82 136.43,83.97 		"/>
		<polygon class="st0" points="132.74,83.97 111.93,55.75 111.93,83.97 		"/>
		<polygon class="st0" points="108.97,55.75 88.16,83.97 108.97,83.97 		"/>
		<polygon class="st0" points="56.76,93.17 42.12,158.79 69.87,158.79 82.5,93.17 		"/>
		<polygon class="st0" points="85.52,93.17 72.89,158.79 84.55,158.79 108.34,93.17 		"/>
		<polygon class="st0" points="136.35,158.79 148.01,158.79 135.38,93.17 112.56,93.17 		"/>
	</g>
</g>
<g>
	<g>
		<path class="st0" d="M274.29,158.14c0.01,0,0.02,0.01,0.02,0.01c2.08,0.42,4.22,0.65,6.4,0.65h36.56c2.19,0,4.33-0.23,6.4-0.65
			c0.01,0,0.02-0.01,0.02-0.01c3.74-0.77,7.27-2.22,10.47-4.29c0.03-0.02,0.07-0.03,0.11-0.05c3.26-2.12,6.14-4.86,8.49-8.18
			c5.94-8.37,7.41-18.73,4.02-28.42l-6.33-18.11c-0.18-0.53-0.2-1.09-0.08-1.62h-23.68c-0.65,0-1.18-0.53-1.18-1.18
			s0.53-1.18,1.18-1.18h26.58h2.29c1.33,0,2.41-1.08,2.41-2.41V92c0-1.33-1.08-2.41-2.41-2.41H329.3h-10.42h-66.47
			c-1.33,0-2.41,1.08-2.41,2.41v0.71c0,1.33,1.08,2.41,2.41,2.41h1.84h0.45h37.4c0.65,0,1.18,0.53,1.18,1.18s-0.53,1.18-1.18,1.18
			h-34.49c0.12,0.53,0.1,1.09-0.08,1.62l-6.33,18.11c-3.39,9.69-1.92,20.05,4.02,28.42c2.35,3.32,5.24,6.06,8.49,8.18
			c0.04,0.02,0.07,0.02,0.11,0.05C267.03,155.92,270.55,157.37,274.29,158.14z M299.43,95.12h9.82c0.65,0,1.18,0.53,1.18,1.18
			s-0.53,1.18-1.18,1.18h-9.82c-0.65,0-1.18-0.53-1.18-1.18S298.78,95.12,299.43,95.12z"/>
		<path class="st0" d="M259.93,159.76c-0.8,0.8-1.24,1.86-1.24,3c0,1.13,0.44,2.2,1.24,3c1.65,1.65,4.34,1.65,5.99,0l5.79-5.79
			c-2.97-0.81-5.79-2.01-8.39-3.59L259.93,159.76z"/>
		<path class="st0" d="M338.06,165.75c0.8-0.8,1.24-1.86,1.24-3c0-1.13-0.44-2.2-1.24-3l-3.39-3.39c-2.61,1.58-5.43,2.78-8.39,3.59
			l5.79,5.79C333.72,167.4,336.41,167.4,338.06,165.75z"/>
		<path class="st0" d="M343.71,51.53c-1.43-0.76-3.24-0.22-4.01,1.21l-18.82,34.49h7.71l16.37-31.69
			C345.7,54.09,345.14,52.29,343.71,51.53z"/>
	</g>
</g>
<g>
	<g>
		<path class="st0" d="M507.25,162.79c0.08-0.22,0.16-0.44,0.25-0.66c0.05-0.13,0.1-0.25,0.15-0.38c0.13-0.32,0.27-0.63,0.42-0.93
			c0.05-0.1,0.1-0.19,0.15-0.29c0.11-0.23,0.23-0.45,0.35-0.67c0.07-0.12,0.14-0.25,0.21-0.37c0.12-0.2,0.24-0.41,0.37-0.6
			c0.07-0.1,0.13-0.21,0.2-0.31c0.19-0.29,0.4-0.58,0.61-0.86c0.04-0.05,0.08-0.1,0.12-0.16c0.18-0.24,0.38-0.48,0.57-0.71
			c0.06-0.08,0.13-0.15,0.19-0.22c0.2-0.23,0.41-0.45,0.62-0.67c0.04-0.04,0.08-0.08,0.12-0.13c0.54-0.55,1.12-1.07,1.73-1.56
			c0.01-0.01,0.02-0.02,0.03-0.03c1.89-1.49,4.07-2.63,6.44-3.31V68.77c-2.37-0.68-4.55-1.81-6.44-3.3
			c-0.01-0.01-0.02-0.02-0.04-0.03c-0.61-0.48-1.19-1-1.73-1.55c-0.04-0.04-0.08-0.09-0.13-0.13c-0.21-0.22-0.41-0.44-0.61-0.66
			c-0.07-0.08-0.14-0.15-0.2-0.23c-0.19-0.23-0.38-0.46-0.56-0.69c-0.04-0.06-0.09-0.11-0.14-0.17c-0.21-0.28-0.41-0.56-0.6-0.85
			c-0.07-0.11-0.14-0.22-0.21-0.33c-0.12-0.19-0.24-0.39-0.36-0.59c-0.07-0.13-0.15-0.25-0.22-0.38c-0.12-0.21-0.23-0.42-0.34-0.64
			c-0.05-0.11-0.11-0.21-0.16-0.32c-0.15-0.3-0.28-0.61-0.41-0.92c-0.06-0.13-0.11-0.27-0.16-0.4c-0.08-0.21-0.16-0.42-0.24-0.63
			c-0.05-0.14-0.1-0.28-0.14-0.42c-0.08-0.26-0.16-0.52-0.23-0.78c-0.02-0.07-0.05-0.15-0.07-0.22H454.1
			c-0.02,0.06-0.04,0.13-0.06,0.19c-0.08,0.28-0.16,0.55-0.24,0.82c-0.04,0.13-0.09,0.26-0.13,0.39c-0.08,0.22-0.16,0.44-0.25,0.66
			c-0.05,0.13-0.1,0.25-0.15,0.38c-0.13,0.32-0.27,0.63-0.42,0.93c-0.05,0.1-0.1,0.19-0.15,0.29c-0.11,0.23-0.23,0.45-0.35,0.67
			c-0.07,0.12-0.14,0.25-0.21,0.37c-0.12,0.2-0.24,0.41-0.37,0.6c-0.07,0.1-0.13,0.21-0.2,0.31c-0.19,0.29-0.4,0.58-0.61,0.86
			c-0.04,0.05-0.08,0.1-0.12,0.16c-0.18,0.24-0.38,0.48-0.57,0.71c-0.06,0.08-0.13,0.15-0.19,0.22c-0.2,0.23-0.41,0.45-0.62,0.67
			c-0.04,0.04-0.08,0.08-0.12,0.13c-0.54,0.55-1.12,1.07-1.73,1.56c-0.01,0.01-0.02,0.02-0.03,0.03c-1.89,1.49-4.07,2.63-6.44,3.3
			v82.17c2.37,0.68,4.55,1.81,6.43,3.3c0.01,0.01,0.03,0.02,0.04,0.03c0.61,0.48,1.18,1,1.73,1.55c0.04,0.05,0.09,0.09,0.13,0.14
			c0.21,0.22,0.41,0.44,0.61,0.66c0.07,0.08,0.14,0.16,0.2,0.23c0.19,0.22,0.38,0.45,0.55,0.69c0.05,0.06,0.09,0.12,0.14,0.17
			c0.21,0.28,0.41,0.56,0.6,0.85c0.07,0.11,0.14,0.22,0.21,0.33c0.12,0.19,0.24,0.39,0.36,0.58c0.07,0.13,0.15,0.25,0.22,0.38
			c0.12,0.21,0.23,0.42,0.34,0.64c0.05,0.11,0.11,0.21,0.16,0.32c0.15,0.3,0.28,0.61,0.41,0.92c0.06,0.13,0.11,0.27,0.16,0.4
			c0.08,0.21,0.16,0.42,0.24,0.63c0.05,0.14,0.1,0.28,0.14,0.42c0.08,0.26,0.16,0.52,0.23,0.78c0.02,0.07,0.05,0.15,0.07,0.22h52.72
			c0.02-0.06,0.04-0.13,0.06-0.19c0.08-0.28,0.16-0.55,0.24-0.82C507.16,163.05,507.2,162.92,507.25,162.79z M496.69,138.13H465.4
			c-0.42,0-0.81-0.23-1.02-0.59l-15.65-27.1c-0.21-0.37-0.21-0.82,0-1.18l15.65-27.1c0.21-0.37,0.6-0.59,1.02-0.59h31.29
			c0.42,0,0.81,0.23,1.02,0.59l15.64,27.1c0.21,0.37,0.21,0.82,0,1.18l-15.64,27.1C497.5,137.9,497.11,138.13,496.69,138.13z"/>
		<path class="st0" d="M521.24,153.01c-0.36,0.08-0.72,0.18-1.07,0.29c-0.05,0.02-0.11,0.03-0.16,0.05c-0.34,0.11-0.67,0.22-1,0.35
			c-0.04,0.02-0.09,0.04-0.13,0.05c-0.95,0.38-1.85,0.85-2.71,1.39c-0.12,0.08-0.25,0.15-0.37,0.24c-0.2,0.14-0.4,0.28-0.6,0.43
			c-0.16,0.12-0.32,0.24-0.48,0.37c-0.17,0.14-0.34,0.27-0.5,0.42c-0.19,0.16-0.37,0.34-0.56,0.51c-0.13,0.12-0.26,0.24-0.38,0.36
			c-0.3,0.3-0.59,0.61-0.86,0.94c-0.05,0.06-0.1,0.13-0.15,0.19c-0.23,0.28-0.45,0.57-0.66,0.86c-0.08,0.11-0.15,0.22-0.22,0.33
			c-0.18,0.27-0.35,0.54-0.52,0.81c-0.07,0.11-0.13,0.23-0.2,0.34c-0.17,0.31-0.33,0.62-0.49,0.94c-0.04,0.08-0.08,0.17-0.12,0.25
			c-0.19,0.42-0.37,0.84-0.52,1.27c-0.01,0.01-0.01,0.03-0.01,0.04c-0.14,0.4-0.27,0.82-0.38,1.24c-0.03,0.13-0.06,0.26-0.1,0.39
			c-0.21,0.87-0.36,1.77-0.43,2.69h13.19c1.08,0,1.95-0.88,1.95-1.95v-2.23v-10.95C522.92,152.68,522.08,152.81,521.24,153.01
			L521.24,153.01z"/>
		<polygon class="st0" points="488.5,99.29 493.92,108.67 503.31,108.67 493.2,91.15 		"/>
		<path class="st0" d="M524.93,69.49c-0.45,0-0.89-0.02-1.33-0.05c-0.03,0-0.06,0-0.09-0.01c-0.46-0.03-0.91-0.08-1.36-0.15v81.13
			c0.45-0.07,0.9-0.11,1.36-0.15c0.03,0,0.06,0,0.09-0.01c0.44-0.03,0.88-0.05,1.33-0.05c0.65,0,1.18,0.53,1.18,1.18v11h0.72
			c1.39,0,2.53-1.13,2.53-2.53V59.84c0-1.39-1.13-2.53-2.53-2.53h-0.72v11C526.12,68.96,525.59,69.49,524.93,69.49z"/>
		<polygon class="st0" points="488.5,120.41 493.2,128.55 503.31,111.03 493.92,111.03 		"/>
		<path class="st0" d="M439.11,51.95c-1.08,0-1.95,0.88-1.95,1.95v13.18c0.86-0.06,1.7-0.2,2.51-0.39c0,0,0,0,0,0
			c0.36-0.08,0.72-0.18,1.07-0.29c0.05-0.02,0.11-0.03,0.16-0.05c0.34-0.11,0.67-0.22,1-0.35c0.04-0.02,0.09-0.04,0.13-0.05
			c0.95-0.38,1.85-0.85,2.71-1.39c0.12-0.08,0.25-0.15,0.37-0.24c0.2-0.14,0.4-0.28,0.6-0.43c0.16-0.12,0.32-0.24,0.48-0.37
			c0.17-0.14,0.34-0.27,0.5-0.42c0.19-0.16,0.37-0.34,0.56-0.51c0.13-0.12,0.26-0.24,0.38-0.36c0.3-0.3,0.59-0.61,0.86-0.94
			c0.05-0.06,0.1-0.13,0.15-0.19c0.23-0.28,0.45-0.57,0.66-0.86c0.08-0.11,0.15-0.22,0.22-0.33c0.18-0.27,0.35-0.54,0.52-0.81
			c0.07-0.11,0.13-0.23,0.2-0.34c0.17-0.31,0.33-0.62,0.49-0.94c0.04-0.08,0.08-0.17,0.12-0.25c0.19-0.42,0.37-0.84,0.52-1.27
			c0.01-0.01,0.01-0.03,0.01-0.04c0.14-0.4,0.27-0.82,0.38-1.24c0.03-0.13,0.06-0.26,0.1-0.39c0.21-0.87,0.36-1.77,0.43-2.69H439.11
			z"/>
		<polygon class="st0" points="475.63,121.59 470.93,129.73 491.15,129.73 486.46,121.59 		"/>
		<path class="st0" d="M509.52,56.26c0.01,0.01,0.01,0.03,0.01,0.04c0.16,0.43,0.33,0.86,0.52,1.27c0.04,0.08,0.08,0.17,0.12,0.25
			c0.15,0.32,0.32,0.63,0.49,0.94c0.06,0.11,0.13,0.23,0.2,0.34c0.17,0.28,0.34,0.55,0.52,0.82c0.07,0.11,0.15,0.22,0.22,0.32
			c0.21,0.3,0.43,0.58,0.67,0.87c0.05,0.06,0.1,0.13,0.15,0.19c0.27,0.33,0.56,0.64,0.86,0.94c0.12,0.12,0.25,0.24,0.37,0.36
			c0.18,0.17,0.37,0.35,0.56,0.51c0.16,0.14,0.33,0.28,0.5,0.41c0.16,0.13,0.32,0.25,0.48,0.37c0.2,0.14,0.39,0.29,0.59,0.43
			c0.12,0.08,0.25,0.16,0.38,0.24c0.85,0.54,1.75,1.01,2.7,1.39c0.05,0.02,0.09,0.04,0.14,0.06c0.33,0.13,0.66,0.24,1,0.35
			c0.05,0.02,0.11,0.03,0.16,0.05c0.35,0.11,0.71,0.2,1.07,0.29l0,0c0.85,0.2,1.69,0.33,2.52,0.39V56.13V53.9
			c0-1.08-0.88-1.95-1.95-1.95h-13.19c0.07,0.92,0.22,1.81,0.43,2.69c0.03,0.13,0.06,0.26,0.1,0.39
			C509.25,55.44,509.38,55.85,509.52,56.26z"/>
		<polygon class="st0" points="475.63,100.47 470.21,109.85 475.63,119.23 486.46,119.23 491.87,109.85 486.46,100.47 		"/>
		<polygon class="st0" points="468.16,111.03 458.77,111.03 468.88,128.55 473.58,120.41 		"/>
		<path class="st0" d="M451.39,163.44c-0.01-0.01-0.01-0.03-0.01-0.04c-0.16-0.43-0.33-0.86-0.52-1.27
			c-0.04-0.08-0.08-0.17-0.12-0.25c-0.15-0.32-0.32-0.63-0.49-0.94c-0.06-0.11-0.13-0.23-0.2-0.34c-0.16-0.28-0.34-0.55-0.52-0.81
			c-0.07-0.11-0.15-0.22-0.22-0.33c-0.21-0.3-0.43-0.58-0.66-0.87c-0.05-0.06-0.1-0.13-0.15-0.19c-0.27-0.33-0.56-0.64-0.86-0.94
			c-0.12-0.12-0.25-0.24-0.37-0.35c-0.18-0.18-0.37-0.35-0.56-0.52c-0.16-0.14-0.33-0.28-0.5-0.41c-0.16-0.13-0.32-0.25-0.49-0.38
			c-0.19-0.14-0.39-0.29-0.59-0.42c-0.13-0.09-0.26-0.17-0.39-0.25c-0.84-0.53-1.73-1-2.67-1.37c-0.05-0.02-0.11-0.05-0.16-0.07
			c-0.32-0.12-0.65-0.24-0.98-0.34c-0.06-0.02-0.13-0.04-0.19-0.06c-0.34-0.1-0.69-0.2-1.05-0.28c-0.82-0.19-1.66-0.33-2.52-0.39
			v13.18c0,1.08,0.88,1.95,1.95,1.95h13.19c-0.07-0.92-0.22-1.81-0.43-2.69c-0.03-0.13-0.06-0.26-0.1-0.39
			C451.66,164.26,451.53,163.84,451.39,163.44z"/>
		<polygon class="st0" points="473.58,99.29 468.88,91.15 458.77,108.67 468.16,108.67 		"/>
		<polygon class="st0" points="486.46,98.11 491.15,89.97 470.93,89.97 475.63,98.11 		"/>
	</g>
</g>
<g>
	<g>
		<path class="st1" d="M906.61,128.75c-1.63-2.63-5.09-3.46-7.89-2.15l-30.41,14.24c0,0-0.01,0-0.01,0l-22.64,0.01
			c-1.84,0-3.49-1.34-3.66-3.18c-0.19-2.08,1.45-3.82,3.48-3.82l21.89,0.08c2.98,0,5.59-2.3,5.67-5.28
			c0.08-3.06-2.38-5.56-5.42-5.56h-41.23c-2.92,0-5.65,1.42-7.33,3.8l-6.22,8.84c-0.01,0.01-0.01,0.02,0,0.03l17.12,17.12
			c0.01,0,0.01,0.01,0.02,0.01h15.6h24.27c0.37,0,2.9-0.7,3.46-1.1l30.74-14.4C907.3,135.9,908.56,131.88,906.61,128.75z"/>
		<path class="st1" d="M829.98,152.9l-17.15-17.15l-1.94-1.94c-0.7-0.7-1.83-0.7-2.53,0l-13.01,13.01c-0.7,0.7-0.7,1.83,0,2.53
			l21.81,21.8c0.7,0.7,1.83,0.7,2.53,0l13.01-13.01c0.7-0.7,0.7-1.83,0-2.53L829.98,152.9z"/>
		<path class="st1" d="M856.26,123.04c-0.13-0.02-0.26-0.05-0.39-0.07c-0.38-0.06-0.77-0.13-1.14-0.21
			c-0.12-0.02-0.24-0.06-0.36-0.08c-0.39-0.08-0.77-0.17-1.16-0.27c-0.1-0.02-0.19-0.06-0.28-0.08c-0.4-0.11-0.8-0.22-1.2-0.34
			c-0.07-0.02-0.14-0.05-0.21-0.07c-0.42-0.13-0.83-0.27-1.24-0.42c-0.05-0.02-0.1-0.04-0.15-0.06c-0.43-0.16-0.85-0.33-1.27-0.5
			c-0.03-0.02-0.07-0.03-0.1-0.05c-0.43-0.19-0.86-0.38-1.29-0.59c-0.02-0.01-0.03-0.02-0.05-0.03c-0.44-0.21-0.87-0.44-1.3-0.67
			c0,0-0.01,0-0.01-0.01c-2.65-1.45-5.06-3.28-7.17-5.41h0l-2.53,8.91h20.32C856.57,123.07,856.41,123.06,856.26,123.04z"/>
		<path class="st1" d="M875.9,119.6C875.9,119.6,875.9,119.6,875.9,119.6c-0.43,0.24-0.87,0.46-1.31,0.68
			c-0.01,0.01-0.02,0.01-0.04,0.02c-0.43,0.21-0.86,0.4-1.29,0.59c-0.03,0.01-0.06,0.03-0.09,0.04c-0.42,0.18-0.84,0.34-1.27,0.51
			c-0.05,0.02-0.1,0.04-0.15,0.06c-0.41,0.15-0.83,0.29-1.25,0.43c-0.07,0.02-0.13,0.05-0.2,0.07c-0.4,0.12-0.8,0.24-1.21,0.35
			c-0.09,0.02-0.18,0.05-0.28,0.08c-0.38,0.1-0.77,0.18-1.16,0.27c-0.12,0.03-0.23,0.06-0.35,0.08c-0.38,0.08-0.77,0.14-1.16,0.21
			c-0.13,0.02-0.25,0.05-0.38,0.07c-0.16,0.02-0.32,0.04-0.47,0.06h2.34c2.35,0,4.35,1.5,5.1,3.6h0.01h-0.01
			c0.22,0.61,0.34,1.27,0.32,1.96c-0.02,0.73-0.19,1.42-0.48,2.04h17.19v-2.55c0-0.8-0.65-1.46-1.46-1.46h-11.7h11.7
			c-0.99,0-1.85-0.65-2.12-1.6l-3.1-10.91C880.97,116.32,878.55,118.15,875.9,119.6z"/>
		<path class="st1" d="M881.21,68.75c-1.14,1.75-2.52,3.22-4.07,4.32c0,0,0,0,0,0c-0.21,0.15-0.42,0.29-0.64,0.43
			c-0.04,0.02-0.08,0.05-0.12,0.07c-0.18,0.11-0.36,0.21-0.54,0.31c-0.06,0.03-0.12,0.06-0.18,0.1c-0.16,0.09-0.33,0.17-0.5,0.25
			c-0.07,0.04-0.15,0.07-0.22,0.1c-0.16,0.07-0.31,0.13-0.47,0.2c-0.08,0.03-0.17,0.06-0.25,0.09c-0.15,0.06-0.31,0.11-0.46,0.16
			c-0.09,0.03-0.18,0.06-0.27,0.08c-0.15,0.04-0.3,0.08-0.46,0.12c-0.09,0.02-0.19,0.05-0.28,0.07c-0.16,0.03-0.31,0.06-0.47,0.09
			c-0.09,0.02-0.19,0.03-0.28,0.05c-0.17,0.02-0.34,0.04-0.52,0.06c-0.08,0.01-0.16,0.02-0.24,0.02c-0.25,0.02-0.51,0.03-0.77,0.03
			l0,0c7.87,0,14.24,8.48,14.24,18.94c0-0.34,0.01-0.68,0.02-1.02c0-0.1,0.01-0.21,0.02-0.31c0.01-0.23,0.02-0.46,0.04-0.69
			c0.01-0.12,0.02-0.24,0.03-0.36c0.02-0.21,0.04-0.42,0.07-0.63c0.02-0.12,0.03-0.24,0.05-0.37c0.03-0.2,0.06-0.41,0.09-0.61
			c0.02-0.12,0.04-0.24,0.06-0.36c0.04-0.2,0.07-0.4,0.11-0.6c0.02-0.11,0.05-0.23,0.07-0.34c0.05-0.21,0.09-0.41,0.14-0.61
			c0.03-0.1,0.05-0.21,0.08-0.31c0.06-0.21,0.11-0.42,0.18-0.63c0.03-0.09,0.05-0.18,0.08-0.27c0.07-0.22,0.14-0.44,0.21-0.66
			c0.02-0.07,0.05-0.14,0.07-0.21c0.09-0.24,0.18-0.48,0.27-0.72c0.02-0.04,0.03-0.09,0.05-0.13c0.11-0.28,0.23-0.56,0.35-0.83v0
			c2.49-5.54,7.03-9.26,12.24-9.26c-7.87,0-14.24-8.48-14.24-18.94C884.7,61.09,883.38,65.42,881.21,68.75L881.21,68.75
			C881.22,68.74,881.21,68.75,881.21,68.75z"/>
		<path class="st1" d="M846.12,119.6c0.43,0.23,0.86,0.46,1.3,0.67c0.02,0.01,0.03,0.02,0.05,0.03c0.42,0.21,0.85,0.4,1.29,0.59
			c0.03,0.01,0.07,0.03,0.1,0.05c0.42,0.18,0.84,0.34,1.27,0.5c0.05,0.02,0.1,0.04,0.15,0.06c0.41,0.15,0.83,0.29,1.24,0.42
			c0.07,0.02,0.14,0.05,0.21,0.07c0.4,0.12,0.8,0.24,1.2,0.34c0.09,0.02,0.19,0.06,0.28,0.08c0.38,0.1,0.77,0.18,1.16,0.27
			c0.12,0.03,0.24,0.06,0.36,0.08c0.38,0.08,0.76,0.14,1.14,0.21c0.13,0.02,0.26,0.05,0.39,0.07c0.16,0.02,0.32,0.04,0.48,0.06h8.55
			c0.16-0.02,0.32-0.04,0.48-0.06c0.13-0.02,0.25-0.05,0.38-0.07c0.39-0.06,0.78-0.13,1.16-0.21c0.12-0.02,0.23-0.05,0.35-0.08
			c0.39-0.08,0.78-0.17,1.16-0.27c0.09-0.02,0.18-0.05,0.28-0.08c0.41-0.11,0.81-0.22,1.21-0.35c0.07-0.02,0.13-0.05,0.2-0.07
			c0.42-0.14,0.84-0.28,1.25-0.43c0.05-0.02,0.1-0.04,0.15-0.06c0.43-0.16,0.85-0.33,1.27-0.51c0.03-0.01,0.06-0.03,0.09-0.04
			c0.44-0.19,0.87-0.38,1.29-0.59c0.01-0.01,0.02-0.01,0.04-0.02c0.44-0.22,0.88-0.44,1.31-0.68c0,0,0,0,0,0
			c2.65-1.45,5.07-3.28,7.18-5.41l0,0c5.56-5.61,9-13.33,9-21.86c0-4.38-0.91-8.54-2.54-12.32c-1.11,1.3-2.07,2.83-2.83,4.53v0
			c-0.12,0.27-0.24,0.55-0.35,0.83c-0.02,0.05-0.03,0.09-0.05,0.13c-0.09,0.24-0.18,0.48-0.27,0.72c-0.02,0.07-0.05,0.14-0.07,0.21
			c-0.08,0.22-0.15,0.44-0.21,0.66c-0.03,0.09-0.05,0.18-0.08,0.27c-0.06,0.21-0.12,0.42-0.18,0.63c-0.03,0.1-0.05,0.2-0.08,0.31
			c-0.05,0.2-0.1,0.41-0.14,0.61c-0.02,0.11-0.05,0.23-0.07,0.34c-0.04,0.2-0.08,0.4-0.11,0.6c-0.02,0.12-0.04,0.24-0.06,0.36
			c-0.03,0.2-0.06,0.41-0.09,0.61c-0.02,0.12-0.03,0.24-0.05,0.37c-0.03,0.21-0.05,0.42-0.07,0.63c-0.01,0.12-0.02,0.24-0.03,0.36
			c-0.02,0.23-0.03,0.46-0.04,0.69c-0.01,0.1-0.01,0.21-0.02,0.31c-0.01,0.34-0.02,0.68-0.02,1.02v0v0
			c0-10.46-6.38-18.94-14.24-18.94l0,0c0.26,0,0.51-0.01,0.77-0.03c0.08-0.01,0.16-0.02,0.24-0.02c0.17-0.02,0.34-0.03,0.52-0.06
			c0.09-0.01,0.19-0.03,0.28-0.05c0.16-0.03,0.31-0.05,0.47-0.09c0.1-0.02,0.19-0.04,0.28-0.07c0.15-0.04,0.31-0.08,0.46-0.12
			c0.09-0.03,0.18-0.06,0.27-0.08c0.15-0.05,0.31-0.1,0.46-0.16c0.08-0.03,0.17-0.06,0.25-0.09c0.16-0.06,0.32-0.13,0.47-0.2
			c0.08-0.03,0.15-0.07,0.22-0.1c0.17-0.08,0.33-0.16,0.5-0.25c0.06-0.03,0.12-0.06,0.18-0.1c0.18-0.1,0.36-0.21,0.54-0.31
			c0.04-0.02,0.08-0.05,0.12-0.07c0.22-0.14,0.43-0.28,0.64-0.43c0,0,0,0,0,0c1.55-1.1,2.93-2.57,4.07-4.32c0,0,0,0,0,0
			c-5.43-4.66-12.49-7.48-20.21-7.48c-17.16,0-31.07,13.91-31.07,31.07c0,8.53,3.44,16.25,9,21.86
			C841.05,116.32,843.46,118.15,846.12,119.6C846.11,119.6,846.12,119.6,846.12,119.6z M884.05,104.96
			c-1.03,1.87-2.28,3.61-3.71,5.17C881.78,108.56,883.03,106.83,884.05,104.96z M851.12,67.98c-3.42,1.39-6.48,3.48-9,6.09
			C844.64,71.46,847.7,69.37,851.12,67.98z M837.39,80.82c0.68-1.39,1.48-2.72,2.38-3.96C838.86,78.1,838.07,79.43,837.39,80.82z"/>
		<path class="st1" d="M875.9,119.6c2.65-1.45,5.07-3.28,7.18-5.41l0,0C880.97,116.32,878.55,118.15,875.9,119.6z"/>
		<path class="st1" d="M846.11,119.6c-2.65-1.45-5.06-3.28-7.17-5.41C841.05,116.32,843.46,118.15,846.11,119.6z"/>
		<path class="st1" d="M886.03,86.23c-0.02,0.07-0.05,0.14-0.07,0.21C885.98,86.37,886,86.3,886.03,86.23z"/>
		<path class="st1" d="M885.49,88.01c-0.03,0.1-0.05,0.2-0.08,0.31C885.43,88.21,885.46,88.11,885.49,88.01z"/>
		<path class="st1" d="M874.93,74.33c0.08-0.03,0.15-0.07,0.22-0.1C875.08,74.26,875.01,74.29,874.93,74.33z"/>
		<path class="st1" d="M885.74,87.11c-0.03,0.09-0.05,0.18-0.08,0.27C885.69,87.28,885.71,87.19,885.74,87.11z"/>
		<path class="st1" d="M875.65,73.98c0.06-0.03,0.12-0.06,0.18-0.1C875.78,73.92,875.71,73.95,875.65,73.98z"/>
		<path class="st1" d="M886.35,85.37c-0.02,0.05-0.03,0.09-0.05,0.13C886.31,85.46,886.33,85.42,886.35,85.37z"/>
		<path class="st1" d="M870.45,75.29L870.45,75.29L870.45,75.29c7.87,0,14.24,8.48,14.24,18.94v0
			C884.7,83.77,878.32,75.29,870.45,75.29z"/>
		<polygon class="st1" points="881.22,68.74 881.22,68.74 881.21,68.75 		"/>
		<path class="st1" d="M877.14,73.07C877.14,73.07,877.14,73.07,877.14,73.07C877.14,73.07,877.14,73.07,877.14,73.07z"/>
		<path class="st1" d="M886.7,84.54L886.7,84.54L886.7,84.54z"/>
		<path class="st2" d="M876.41,74.62c-0.37,0-0.73-0.18-0.93-0.51c-0.11-0.18-0.16-0.38-0.16-0.57c0-0.35,0.17-0.69,0.5-0.88
			c0,0,0.06-0.04,0.07-0.04c0.5-0.31,1.19-0.17,1.5,0.33c0.11,0.18,0.17,0.38,0.17,0.58c0,0.35-0.17,0.68-0.49,0.88l-0.08,0.05
			C876.8,74.56,876.61,74.62,876.41,74.62z"/>
		<path class="st2" d="M884.72,94.29c-0.02,0-0.03,0-0.04,0c-0.58-0.02-1.03-0.5-1.03-1.07c0-0.02,0-0.03,0-0.04l0.02-0.32
			c0.03-0.59,0.53-1.05,1.13-1.02c0.57,0.03,1.02,0.5,1.02,1.07c0,0.02,0,0.04,0,0.06l-0.02,0.3
			C885.77,93.83,885.29,94.29,884.72,94.29z"/>
		<path class="st2" d="M884.88,92.29c-0.04,0-0.09,0-0.13-0.01c-0.59-0.07-1.01-0.61-0.94-1.2l0.05-0.38c0.08-0.59,0.63-1,1.21-0.92
			c0.54,0.07,0.93,0.54,0.93,1.06c0,0.05,0,0.1-0.01,0.15l-0.05,0.35C885.88,91.89,885.41,92.29,884.88,92.29z"/>
		<path class="st2" d="M884.78,93.28c-0.03,0-0.06,0-0.09,0c-0.56-0.05-0.99-0.52-0.99-1.07c0-0.03,0-0.06,0-0.09l0.04-0.38
			c0.06-0.59,0.58-1.03,1.17-0.97c0.56,0.05,0.97,0.52,0.97,1.07c0,0.03,0,0.07-0.01,0.1l-0.03,0.35
			C885.8,92.86,885.33,93.28,884.78,93.28z"/>
		<path class="st2" d="M874.21,75.69c-0.44,0-0.85-0.27-1.01-0.71c-0.04-0.12-0.07-0.25-0.07-0.37c0-0.44,0.27-0.85,0.71-1.01
			l0.23-0.09c0.55-0.22,1.18,0.06,1.39,0.61c0.05,0.13,0.07,0.26,0.07,0.39c0,0.43-0.26,0.84-0.68,1c-0.09,0.04-0.18,0.07-0.28,0.11
			C874.45,75.67,874.33,75.69,874.21,75.69z"/>
		<path class="st2" d="M885.19,90.34c-0.07,0-0.14-0.01-0.22-0.02c-0.51-0.1-0.86-0.55-0.86-1.05c0-0.07,0.01-0.14,0.02-0.22
			l0.08-0.36c0.13-0.58,0.7-0.95,1.28-0.82c0.5,0.11,0.85,0.55,0.85,1.05c0,0.08-0.01,0.15-0.02,0.23l-0.07,0.33
			C886.14,89.99,885.69,90.34,885.19,90.34z"/>
		<path class="st2" d="M885.02,91.31c-0.06,0-0.11-0.01-0.17-0.01c-0.53-0.09-0.9-0.54-0.9-1.06c0-0.06,0-0.12,0.01-0.17l0.07-0.38
			c0.1-0.58,0.66-0.97,1.25-0.87c0.52,0.09,0.89,0.55,0.89,1.06c0,0.06-0.01,0.12-0.02,0.19l-0.06,0.35
			C885.99,90.93,885.53,91.31,885.02,91.31z"/>
		<path class="st2" d="M873.47,75.93c-0.47,0-0.9-0.31-1.03-0.78c-0.03-0.1-0.04-0.2-0.04-0.3c0-0.47,0.31-0.9,0.78-1.03l0.25-0.07
			c0.57-0.18,1.17,0.13,1.35,0.7c0.03,0.11,0.05,0.22,0.05,0.32c0,0.46-0.29,0.88-0.75,1.02c-0.1,0.03-0.2,0.06-0.3,0.09
			C873.67,75.92,873.57,75.93,873.47,75.93z"/>
		<path class="st2" d="M872.73,76.12c-0.5,0-0.94-0.35-1.05-0.85c-0.02-0.08-0.02-0.15-0.02-0.22c0-0.5,0.35-0.94,0.85-1.05
			l0.19-0.04l0.32,1.03l0.26,1.04c-0.14,0.04-0.23,0.06-0.32,0.07C872.88,76.11,872.81,76.12,872.73,76.12z"/>
		<path class="st2" d="M871.98,76.25c-0.53,0-0.99-0.39-1.06-0.92c-0.01-0.05-0.01-0.1-0.01-0.15c0-0.53,0.39-0.99,0.92-1.06
			l0.25-0.04c0.58-0.1,1.14,0.29,1.24,0.88c0.01,0.06,0.02,0.12,0.02,0.18c0,0.51-0.37,0.97-0.9,1.06l-0.08,0.02
			c-0.07,0.01-0.15,0.03-0.22,0.04C872.08,76.25,872.03,76.25,871.98,76.25z"/>
		<path class="st2" d="M871.22,76.33c-0.56,0-1.03-0.43-1.07-1c0-0.02,0-0.05,0-0.07c0-0.56,0.44-1.03,1-1.07l0.22-0.02
			c0.59-0.06,1.12,0.38,1.17,0.97c0,0.03,0,0.07,0,0.1c0,0.55-0.42,1.01-0.97,1.07l-0.08,0.01c-0.07,0.01-0.13,0.02-0.2,0.02
			C871.27,76.33,871.25,76.33,871.22,76.33z"/>
	</g>
</g>
<g>
	<path class="st3" d="M630.41,141.41c-5.7,1.76-9.53,6.96-9.53,12.93c0,7.45,6.06,13.51,13.51,13.51c7.39,0,13.51-5.92,13.51-13.51
		C647.91,145.3,639.17,138.75,630.41,141.41z"/>
	<path class="st3" d="M660.25,89.77l-2.77,6.85l-3.38-6.55c-1.87-3.65-2.84-8.18-2.84-13.42c-7.18,9.17-8.76,21.37-4.01,31.12
		c5,10.27,16.53,16.17,31.24,16.17h0.07c14.71,0,26.21-5.9,31.24-16.17c4.75-9.75,3.18-21.96-4.01-31.12
		c0,5.25-0.95,9.75-2.84,13.42l-3.38,6.58l-2.77-6.85c-2.52-6.28-5.56-19.64-5.56-37.25l0,0c-4.01,4.86-7.36,12.41-9.55,18.11
		l-3.15,8.24l-3.38-8.24c-2.18-5.72-5.34-13.24-9.32-18.11C665.84,70.15,662.8,83.51,660.25,89.77z"/>
	<path class="st3" d="M624.37,136.21l32.68-10.04c-4.93-2.39-9.08-5.68-12.25-9.77l-6.44-1.98c-8.72-2.68-17.48,3.87-17.48,12.9
		C620.88,130.73,622.24,133.8,624.37,136.21z"/>
	<path class="st3" d="M718.69,114.38l-6.44,1.98c-7.07,9.14-19.1,14.32-33.69,14.32h-0.07c-3.49,0-7-0.36-10.16-0.95l-23.58,7.27
		c5.9,3.54,9.91,9.95,9.91,17.32c0,3.02-0.7,5.88-1.89,8.49l73.89-22.59c5.7-1.76,9.53-6.96,9.53-12.93
		C736.19,118.28,727.43,111.73,718.69,114.38z"/>
	<path class="st3" d="M690.25,158.5l14.05,4.32c-1.15-2.48-1.8-5.2-1.87-8.09L690.25,158.5z"/>
	<path class="st3" d="M728.65,146.68l-19.32,5.95c-0.07,0.56-0.18,1.13-0.18,1.71c0,7.59,6.13,13.51,13.51,13.51
		c7.45,0,13.51-6.06,13.51-13.51c0-3.58-1.51-6.8-3.85-9.23C731.17,145.73,729.95,146.27,728.65,146.68z"/>
</g>
<g>
	<g>
		<path d="M76.51,214.92v-20.39h-3.85v-2.36h10.76v2.36h-3.74v20.39H76.51z"/>
		<path d="M85.78,214.92v-22.75h3.12v22.75H85.78z"/>
		<path d="M92.58,214.92v-22.75h8.82v2.36h-5.65v7.53h4.58v2.25h-4.58v8.34h5.7v2.28H92.58z"/>
		<path d="M104.01,214.92v-22.75h2.16l6.46,15.11v-15.11h2.64v22.75h-2.02l-6.54-15.53v15.53H104.01z"/>
		<path d="M118.84,214.92v-22.75h4.94c1.69,0,3.02,0.26,4,0.77c0.98,0.52,1.69,1.29,2.11,2.32c0.42,1.03,0.63,2.31,0.63,3.85v8.37
			c0,1.61-0.21,2.97-0.63,4.07s-1.1,1.94-2.05,2.51c-0.95,0.57-2.21,0.86-3.81,0.86H118.84z M122.01,212.64h1.8
			c1.16,0,1.98-0.22,2.47-0.67c0.49-0.45,0.78-1.1,0.88-1.97c0.1-0.86,0.15-1.9,0.15-3.12v-7.39c0-1.18-0.08-2.13-0.22-2.87
			c-0.15-0.73-0.48-1.26-0.98-1.6c-0.51-0.34-1.3-0.51-2.39-0.51h-1.71V212.64z"/>
		<path d="M132.41,214.92l4.83-22.75h3.06l4.86,22.75h-3l-1.04-5.73h-4.63l-1.1,5.73H132.41z M136.9,206.91h3.79l-1.91-10.25
			L136.9,206.91z"/>
	</g>
</g>
<g>
	<g>
		<path d="M249.94,214.92l4.83-22.75h3.06l4.86,22.75h-3l-1.04-5.73h-4.63l-1.1,5.73H249.94z M254.43,206.91h3.79l-1.91-10.25
			L254.43,206.91z"/>
		<path d="M264.99,214.92v-22.75h3.17v20.47h5.81v2.28H264.99z"/>
		<path d="M286.59,219.52c-0.51-0.26-1.01-0.64-1.5-1.12s-0.96-1.02-1.4-1.6c-0.44-0.58-0.84-1.13-1.19-1.66
			c-0.07,0.02-0.16,0.03-0.25,0.03c-0.09,0-0.19,0-0.28,0c-1.54,0-2.76-0.3-3.68-0.9c-0.92-0.6-1.57-1.46-1.97-2.57
			s-0.59-2.42-0.59-3.92v-8.62c0-1.5,0.2-2.78,0.6-3.86c0.4-1.08,1.06-1.9,1.97-2.47s2.13-0.86,3.67-0.86
			c1.53,0,2.76,0.29,3.67,0.87c0.91,0.58,1.56,1.4,1.97,2.47s0.6,2.35,0.6,3.85v8.65c0,1.1-0.11,2.11-0.34,3.02
			c-0.22,0.91-0.58,1.69-1.07,2.33c-0.49,0.65-1.13,1.14-1.94,1.47c0.22,0.28,0.47,0.58,0.73,0.88c0.26,0.31,0.52,0.59,0.79,0.86
			c0.26,0.26,0.51,0.48,0.73,0.65L286.59,219.52z M281.96,212.67c0.86,0,1.51-0.17,1.94-0.52c0.43-0.35,0.72-0.83,0.87-1.46
			c0.15-0.63,0.22-1.36,0.22-2.21v-9.97c0-0.84-0.08-1.57-0.22-2.18c-0.15-0.61-0.44-1.08-0.87-1.4c-0.43-0.33-1.08-0.49-1.94-0.49
			c-0.84,0-1.48,0.16-1.92,0.49c-0.44,0.33-0.73,0.8-0.88,1.4s-0.22,1.33-0.22,2.18v9.97c0,0.84,0.07,1.58,0.22,2.21
			c0.15,0.63,0.44,1.11,0.88,1.46C280.47,212.5,281.11,212.67,281.96,212.67z"/>
		<path d="M297.21,215.17c-1.65,0-2.91-0.33-3.79-0.98c-0.88-0.66-1.48-1.58-1.8-2.77c-0.32-1.19-0.48-2.58-0.48-4.17v-15.08h3.03
			v15.22c0,0.97,0.07,1.86,0.2,2.67c0.13,0.81,0.42,1.44,0.86,1.91c0.44,0.47,1.1,0.7,1.98,0.7c0.9,0,1.56-0.23,1.99-0.7
			c0.43-0.47,0.71-1.1,0.84-1.91c0.13-0.8,0.2-1.69,0.2-2.67v-15.22h3v15.08c0,1.59-0.16,2.98-0.48,4.17
			c-0.32,1.19-0.91,2.11-1.78,2.77C300.11,214.84,298.85,215.17,297.21,215.17z"/>
		<path d="M306.76,214.92v-22.75h3.12v22.75H306.76z"/>
		<path d="M313.5,214.92l0.42-22.75h3.12l4.02,18.45l4.04-18.45h3.09l0.42,22.75h-2.56l-0.25-16.51l-3.85,16.51h-1.8l-3.82-16.51
			l-0.25,16.51H313.5z"/>
		<path d="M332.26,214.92v-22.75h3.12v22.75H332.26z"/>
		<path d="M337.82,214.92l4.83-22.75h3.06l4.86,22.75h-3l-1.04-5.73h-4.63l-1.1,5.73H337.82z M342.31,206.91h3.79l-1.91-10.25
			L342.31,206.91z"/>
	</g>
</g>
<g>
	<g>
		<path d="M444.93,215.17c-1.61,0-2.86-0.34-3.75-1.01c-0.89-0.67-1.51-1.58-1.85-2.72c-0.35-1.14-0.52-2.42-0.52-3.82v-8.03
			c0-1.54,0.17-2.87,0.52-4.02c0.35-1.14,0.96-2.03,1.85-2.65c0.89-0.63,2.14-0.94,3.75-0.94c1.42,0,2.55,0.26,3.38,0.79
			c0.83,0.52,1.43,1.27,1.8,2.25s0.55,2.14,0.55,3.51v1.8h-3.01v-1.6c0-0.84-0.04-1.59-0.13-2.23c-0.08-0.65-0.31-1.15-0.69-1.5
			c-0.38-0.36-1-0.53-1.88-0.53c-0.9,0-1.55,0.19-1.97,0.58c-0.41,0.38-0.68,0.93-0.8,1.63s-0.18,1.52-0.18,2.46v9.02
			c0,1.14,0.09,2.05,0.28,2.71c0.19,0.67,0.5,1.14,0.93,1.42c0.43,0.28,1.01,0.42,1.74,0.42c0.86,0,1.48-0.19,1.85-0.58
			c0.38-0.38,0.61-0.91,0.7-1.59c0.09-0.67,0.14-1.46,0.14-2.36v-1.69h3.01v1.69c0,1.39-0.17,2.61-0.51,3.67s-0.92,1.88-1.74,2.47
			C447.58,214.87,446.42,215.17,444.93,215.17z"/>
		<path d="M459.56,215.17c-1.65,0-2.91-0.33-3.79-0.98c-0.88-0.66-1.48-1.58-1.8-2.77c-0.32-1.19-0.48-2.58-0.48-4.17v-15.08h3.03
			v15.22c0,0.97,0.07,1.86,0.2,2.67c0.13,0.81,0.42,1.44,0.86,1.91c0.44,0.47,1.1,0.7,1.98,0.7c0.9,0,1.56-0.23,1.99-0.7
			c0.43-0.47,0.71-1.1,0.84-1.91c0.13-0.8,0.2-1.69,0.2-2.67v-15.22h3v15.08c0,1.59-0.16,2.98-0.48,4.17
			c-0.32,1.19-0.91,2.11-1.78,2.77C462.47,214.84,461.21,215.17,459.56,215.17z"/>
		<path d="M468.94,214.92v-22.75h4.58c1.52,0,2.77,0.2,3.76,0.6c0.99,0.4,1.73,1.05,2.21,1.94c0.48,0.89,0.72,2.05,0.72,3.5
			c0,0.88-0.09,1.68-0.28,2.4c-0.19,0.72-0.49,1.33-0.9,1.83c-0.41,0.5-0.96,0.86-1.63,1.08l3.23,11.4h-3.06l-2.98-10.67h-2.47
			v10.67H468.94z M472.11,201.97h1.21c0.9,0,1.63-0.11,2.19-0.34c0.56-0.22,0.97-0.61,1.24-1.15c0.26-0.54,0.39-1.3,0.39-2.27
			c0-1.33-0.24-2.29-0.73-2.88c-0.49-0.59-1.45-0.88-2.89-0.88h-1.4V201.97z"/>
		<path d="M488.88,215.17c-1.31,0-2.4-0.28-3.27-0.84c-0.87-0.56-1.53-1.34-1.98-2.33s-0.71-2.14-0.79-3.46l2.81-0.76
			c0.06,0.81,0.18,1.58,0.38,2.33c0.2,0.75,0.52,1.36,0.97,1.84c0.45,0.48,1.08,0.72,1.88,0.72c0.82,0,1.45-0.23,1.87-0.69
			s0.63-1.12,0.63-1.98c0-1.03-0.23-1.86-0.7-2.49s-1.06-1.26-1.77-1.9l-3.82-3.37c-0.75-0.66-1.3-1.37-1.66-2.15
			c-0.36-0.78-0.53-1.74-0.53-2.88c0-1.67,0.48-2.96,1.43-3.88c0.96-0.92,2.26-1.38,3.9-1.38c0.9,0,1.69,0.12,2.37,0.35
			c0.68,0.23,1.25,0.59,1.71,1.08c0.46,0.49,0.82,1.1,1.1,1.84c0.27,0.74,0.45,1.61,0.55,2.6l-2.7,0.73
			c-0.06-0.75-0.17-1.44-0.34-2.06c-0.17-0.63-0.46-1.13-0.88-1.52s-1.03-0.58-1.81-0.58s-1.4,0.21-1.84,0.63
			c-0.44,0.42-0.66,1.04-0.66,1.87c0,0.69,0.12,1.26,0.35,1.71c0.23,0.45,0.61,0.91,1.14,1.38l3.85,3.37
			c0.86,0.75,1.62,1.64,2.27,2.68s0.98,2.27,0.98,3.69c0,1.12-0.23,2.09-0.7,2.91c-0.47,0.81-1.11,1.44-1.92,1.87
			C490.89,214.95,489.95,215.17,488.88,215.17z"/>
		<path d="M502.62,215.17c-1.54,0-2.76-0.3-3.68-0.9c-0.92-0.6-1.57-1.46-1.97-2.57c-0.39-1.11-0.59-2.42-0.59-3.92v-8.62
			c0-1.5,0.2-2.78,0.6-3.86c0.4-1.08,1.06-1.9,1.97-2.47s2.13-0.86,3.67-0.86c1.53,0,2.75,0.29,3.65,0.87
			c0.9,0.58,1.55,1.4,1.95,2.47s0.6,2.35,0.6,3.85v8.65c0,1.48-0.2,2.77-0.6,3.88c-0.4,1.1-1.05,1.96-1.95,2.57
			C505.37,214.86,504.15,215.17,502.62,215.17z M502.62,212.67c0.84,0,1.48-0.17,1.91-0.52c0.43-0.35,0.72-0.83,0.87-1.46
			c0.15-0.63,0.22-1.36,0.22-2.21v-9.97c0-0.84-0.08-1.57-0.22-2.18c-0.15-0.61-0.44-1.08-0.87-1.4c-0.43-0.33-1.07-0.49-1.91-0.49
			c-0.84,0-1.48,0.16-1.92,0.49c-0.44,0.33-0.73,0.8-0.88,1.4c-0.15,0.61-0.22,1.33-0.22,2.18v9.97c0,0.84,0.08,1.58,0.22,2.21
			c0.15,0.63,0.45,1.11,0.88,1.46C501.13,212.5,501.77,212.67,502.62,212.67z"/>
		<path d="M517.3,215.17c-1.31,0-2.4-0.28-3.27-0.84c-0.87-0.56-1.53-1.34-1.98-2.33s-0.71-2.14-0.79-3.46l2.81-0.76
			c0.06,0.81,0.18,1.58,0.38,2.33c0.2,0.75,0.52,1.36,0.97,1.84s1.08,0.72,1.88,0.72c0.82,0,1.45-0.23,1.87-0.69
			c0.42-0.46,0.63-1.12,0.63-1.98c0-1.03-0.23-1.86-0.7-2.49c-0.47-0.63-1.06-1.26-1.77-1.9l-3.82-3.37
			c-0.75-0.66-1.3-1.37-1.66-2.15c-0.36-0.78-0.53-1.74-0.53-2.88c0-1.67,0.48-2.96,1.43-3.88c0.96-0.92,2.26-1.38,3.9-1.38
			c0.9,0,1.69,0.12,2.37,0.35c0.68,0.23,1.25,0.59,1.71,1.08c0.46,0.49,0.82,1.1,1.1,1.84c0.27,0.74,0.45,1.61,0.55,2.6l-2.7,0.73
			c-0.06-0.75-0.17-1.44-0.34-2.06c-0.17-0.63-0.46-1.13-0.88-1.52c-0.42-0.38-1.02-0.58-1.81-0.58c-0.79,0-1.4,0.21-1.84,0.63
			c-0.44,0.42-0.66,1.04-0.66,1.87c0,0.69,0.12,1.26,0.35,1.71s0.61,0.91,1.14,1.38l3.85,3.37c0.86,0.75,1.62,1.64,2.28,2.68
			c0.66,1.04,0.98,2.27,0.98,3.69c0,1.12-0.23,2.09-0.7,2.91s-1.11,1.44-1.92,1.87C519.31,214.95,518.37,215.17,517.3,215.17z"/>
	</g>
</g>
<g>
	<g>
		<path d="M630.51,215.17c-1.31,0-2.4-0.28-3.27-0.84c-0.87-0.56-1.53-1.34-1.98-2.33s-0.71-2.14-0.79-3.46l2.81-0.76
			c0.06,0.81,0.18,1.58,0.38,2.33c0.2,0.75,0.52,1.36,0.97,1.84c0.45,0.48,1.08,0.72,1.88,0.72c0.82,0,1.45-0.23,1.87-0.69
			s0.63-1.12,0.63-1.98c0-1.03-0.23-1.86-0.7-2.49s-1.06-1.26-1.77-1.9l-3.82-3.37c-0.75-0.66-1.3-1.37-1.66-2.15
			c-0.36-0.78-0.53-1.74-0.53-2.88c0-1.67,0.48-2.96,1.43-3.88c0.96-0.92,2.26-1.38,3.9-1.38c0.9,0,1.69,0.12,2.37,0.35
			c0.68,0.23,1.25,0.59,1.71,1.08c0.46,0.49,0.82,1.1,1.1,1.84c0.27,0.74,0.45,1.61,0.55,2.6l-2.7,0.73
			c-0.06-0.75-0.17-1.44-0.34-2.06c-0.17-0.63-0.46-1.13-0.88-1.52s-1.03-0.58-1.81-0.58s-1.4,0.21-1.84,0.63
			c-0.44,0.42-0.66,1.04-0.66,1.87c0,0.69,0.12,1.26,0.35,1.71c0.23,0.45,0.61,0.91,1.14,1.38l3.85,3.37
			c0.86,0.75,1.62,1.64,2.27,2.68s0.98,2.27,0.98,3.69c0,1.12-0.23,2.09-0.7,2.91c-0.47,0.81-1.11,1.44-1.92,1.87
			C632.52,214.95,631.58,215.17,630.51,215.17z"/>
		<path d="M638.44,214.92v-22.75h8.82v2.36h-5.64v7.53h4.58v2.25h-4.58v8.34h5.7v2.28H638.44z"/>
		<path d="M649.87,214.92v-22.75h4.58c1.52,0,2.77,0.2,3.76,0.6c0.99,0.4,1.73,1.05,2.21,1.94c0.48,0.89,0.72,2.05,0.72,3.5
			c0,0.88-0.09,1.68-0.28,2.4c-0.19,0.72-0.49,1.33-0.9,1.83c-0.41,0.5-0.96,0.86-1.63,1.08l3.23,11.4h-3.06l-2.98-10.67h-2.47
			v10.67H649.87z M653.04,201.97h1.21c0.9,0,1.63-0.11,2.19-0.34c0.56-0.22,0.97-0.61,1.24-1.15c0.26-0.54,0.39-1.3,0.39-2.27
			c0-1.33-0.24-2.29-0.73-2.88c-0.49-0.59-1.45-0.88-2.89-0.88h-1.4V201.97z"/>
		<path d="M668.4,214.92l-5.08-22.75h2.98l3.6,16.77l3.43-16.77h2.89l-5.03,22.75H668.4z"/>
		<path d="M678.79,214.92v-22.75h3.12v22.75H678.79z"/>
		<path d="M691.29,215.17c-1.61,0-2.86-0.34-3.75-1.01c-0.89-0.67-1.51-1.58-1.85-2.72c-0.35-1.14-0.52-2.42-0.52-3.82v-8.03
			c0-1.54,0.17-2.87,0.52-4.02c0.35-1.14,0.96-2.03,1.85-2.65c0.89-0.63,2.14-0.94,3.75-0.94c1.42,0,2.55,0.26,3.38,0.79
			c0.83,0.52,1.43,1.27,1.8,2.25s0.55,2.14,0.55,3.51v1.8h-3.01v-1.6c0-0.84-0.04-1.59-0.13-2.23c-0.08-0.65-0.31-1.15-0.69-1.5
			c-0.38-0.36-1-0.53-1.88-0.53c-0.9,0-1.55,0.19-1.97,0.58c-0.41,0.38-0.68,0.93-0.8,1.63s-0.18,1.52-0.18,2.46v9.02
			c0,1.14,0.09,2.05,0.28,2.71c0.19,0.67,0.5,1.14,0.93,1.42c0.43,0.28,1.01,0.42,1.74,0.42c0.86,0,1.48-0.19,1.85-0.58
			c0.38-0.38,0.61-0.91,0.7-1.59c0.09-0.67,0.14-1.46,0.14-2.36v-1.69h3.01v1.69c0,1.39-0.17,2.61-0.51,3.67s-0.92,1.88-1.74,2.47
			C693.95,214.87,692.79,215.17,691.29,215.17z"/>
		<path d="M700.22,214.92v-22.75h3.12v22.75H700.22z"/>
		<path d="M712.83,215.17c-1.54,0-2.76-0.3-3.68-0.9c-0.92-0.6-1.57-1.46-1.97-2.57c-0.39-1.11-0.59-2.42-0.59-3.92v-8.62
			c0-1.5,0.2-2.78,0.6-3.86c0.4-1.08,1.06-1.9,1.97-2.47s2.13-0.86,3.67-0.86s2.75,0.29,3.65,0.87c0.9,0.58,1.55,1.4,1.95,2.47
			c0.4,1.07,0.6,2.35,0.6,3.85v8.65c0,1.48-0.2,2.77-0.6,3.88c-0.4,1.1-1.05,1.96-1.95,2.57S714.37,215.17,712.83,215.17z
			 M712.83,212.67c0.84,0,1.48-0.17,1.91-0.52c0.43-0.35,0.72-0.83,0.87-1.46c0.15-0.63,0.22-1.36,0.22-2.21v-9.97
			c0-0.84-0.07-1.57-0.22-2.18c-0.15-0.61-0.44-1.08-0.87-1.4c-0.43-0.33-1.07-0.49-1.91-0.49s-1.48,0.16-1.92,0.49
			c-0.44,0.33-0.74,0.8-0.88,1.4c-0.15,0.61-0.22,1.33-0.22,2.18v9.97c0,0.84,0.07,1.58,0.22,2.21c0.15,0.63,0.44,1.11,0.88,1.46
			C711.35,212.5,711.99,212.67,712.83,212.67z"/>
		<path d="M727.52,215.17c-1.31,0-2.4-0.28-3.27-0.84c-0.87-0.56-1.53-1.34-1.98-2.33s-0.71-2.14-0.79-3.46l2.81-0.76
			c0.06,0.81,0.18,1.58,0.38,2.33c0.2,0.75,0.52,1.36,0.97,1.84c0.45,0.48,1.08,0.72,1.88,0.72c0.82,0,1.45-0.23,1.87-0.69
			s0.63-1.12,0.63-1.98c0-1.03-0.23-1.86-0.7-2.49s-1.06-1.26-1.77-1.9l-3.82-3.37c-0.75-0.66-1.3-1.37-1.66-2.15
			c-0.36-0.78-0.53-1.74-0.53-2.88c0-1.67,0.48-2.96,1.43-3.88c0.96-0.92,2.26-1.38,3.9-1.38c0.9,0,1.69,0.12,2.37,0.35
			c0.68,0.23,1.25,0.59,1.71,1.08c0.46,0.49,0.82,1.1,1.1,1.84c0.27,0.74,0.45,1.61,0.55,2.6l-2.7,0.73
			c-0.06-0.75-0.17-1.44-0.34-2.06c-0.17-0.63-0.46-1.13-0.88-1.52s-1.03-0.58-1.81-0.58s-1.4,0.21-1.84,0.63
			c-0.44,0.42-0.66,1.04-0.66,1.87c0,0.69,0.12,1.26,0.35,1.71c0.23,0.45,0.61,0.91,1.14,1.38l3.85,3.37
			c0.86,0.75,1.62,1.64,2.27,2.68s0.98,2.27,0.98,3.69c0,1.12-0.23,2.09-0.7,2.91c-0.47,0.81-1.11,1.44-1.92,1.87
			C729.53,214.95,728.59,215.17,727.52,215.17z"/>
	</g>
</g>
<g>
	<g>
		<path d="M782.1,215.17c-1.61,0-2.86-0.34-3.75-1.01c-0.89-0.67-1.51-1.58-1.85-2.72c-0.35-1.14-0.52-2.42-0.52-3.82v-8.03
			c0-1.54,0.17-2.87,0.52-4.02c0.35-1.14,0.96-2.03,1.85-2.65c0.89-0.63,2.14-0.94,3.75-0.94c1.42,0,2.55,0.26,3.38,0.79
			c0.83,0.52,1.43,1.27,1.8,2.25s0.55,2.14,0.55,3.51v1.8h-3v-1.6c0-0.84-0.04-1.59-0.13-2.23c-0.08-0.65-0.31-1.15-0.69-1.5
			c-0.38-0.36-1-0.53-1.88-0.53c-0.9,0-1.55,0.19-1.97,0.58c-0.41,0.38-0.68,0.93-0.8,1.63s-0.18,1.52-0.18,2.46v9.02
			c0,1.14,0.09,2.05,0.28,2.71c0.19,0.67,0.5,1.14,0.93,1.42c0.43,0.28,1.01,0.42,1.74,0.42c0.86,0,1.48-0.19,1.85-0.58
			s0.61-0.91,0.7-1.59c0.09-0.67,0.14-1.46,0.14-2.36v-1.69h3v1.69c0,1.39-0.17,2.61-0.51,3.67c-0.34,1.06-0.92,1.88-1.74,2.47
			C784.76,214.87,783.6,215.17,782.1,215.17z"/>
		<path d="M796.68,215.17c-1.54,0-2.76-0.3-3.68-0.9c-0.92-0.6-1.57-1.46-1.97-2.57s-0.59-2.42-0.59-3.92v-8.62
			c0-1.5,0.2-2.78,0.6-3.86c0.4-1.08,1.06-1.9,1.96-2.47s2.13-0.86,3.67-0.86s2.75,0.29,3.65,0.87c0.9,0.58,1.55,1.4,1.95,2.47
			c0.4,1.07,0.6,2.35,0.6,3.85v8.65c0,1.48-0.2,2.77-0.6,3.88c-0.4,1.1-1.05,1.96-1.95,2.57
			C799.43,214.86,798.21,215.17,796.68,215.17z M796.68,212.67c0.84,0,1.48-0.17,1.91-0.52c0.43-0.35,0.72-0.83,0.87-1.46
			c0.15-0.63,0.22-1.36,0.22-2.21v-9.97c0-0.84-0.08-1.57-0.22-2.18s-0.44-1.08-0.87-1.4c-0.43-0.33-1.07-0.49-1.91-0.49
			c-0.84,0-1.48,0.16-1.92,0.49c-0.44,0.33-0.74,0.8-0.88,1.4c-0.15,0.61-0.22,1.33-0.22,2.18v9.97c0,0.84,0.07,1.58,0.22,2.21
			c0.15,0.63,0.44,1.11,0.88,1.46C795.19,212.5,795.83,212.67,796.68,212.67z"/>
		<path d="M806,214.92v-22.75h2.16l6.46,15.11v-15.11h2.64v22.75h-2.02l-6.54-15.53v15.53H806z"/>
		<path d="M823.33,214.92v-20.39h-3.85v-2.36h10.76v2.36h-3.74v20.39H823.33z"/>
		<path d="M831.2,214.92l4.83-22.75h3.06l4.86,22.75h-3l-1.04-5.73h-4.63l-1.1,5.73H831.2z M835.69,206.91h3.79l-1.91-10.25
			L835.69,206.91z"/>
		<path d="M851.95,215.17c-1.61,0-2.86-0.34-3.75-1.01c-0.89-0.67-1.51-1.58-1.85-2.72c-0.35-1.14-0.52-2.42-0.52-3.82v-8.03
			c0-1.54,0.17-2.87,0.52-4.02c0.35-1.14,0.96-2.03,1.85-2.65c0.89-0.63,2.14-0.94,3.75-0.94c1.42,0,2.55,0.26,3.38,0.79
			c0.83,0.52,1.43,1.27,1.8,2.25s0.55,2.14,0.55,3.51v1.8h-3v-1.6c0-0.84-0.04-1.59-0.13-2.23c-0.08-0.65-0.31-1.15-0.69-1.5
			c-0.38-0.36-1-0.53-1.88-0.53c-0.9,0-1.55,0.19-1.97,0.58c-0.41,0.38-0.68,0.93-0.8,1.63s-0.18,1.52-0.18,2.46v9.02
			c0,1.14,0.09,2.05,0.28,2.71c0.19,0.67,0.5,1.14,0.93,1.42c0.43,0.28,1.01,0.42,1.74,0.42c0.86,0,1.48-0.19,1.85-0.58
			s0.61-0.91,0.7-1.59c0.09-0.67,0.14-1.46,0.14-2.36v-1.69h3v1.69c0,1.39-0.17,2.61-0.51,3.67c-0.34,1.06-0.92,1.88-1.74,2.47
			C854.61,214.87,853.45,215.17,851.95,215.17z"/>
		<path d="M863.21,214.92v-20.39h-3.85v-2.36h10.76v2.36h-3.74v20.39H863.21z"/>
		<path d="M871.08,214.92l4.83-22.75h3.06l4.86,22.75h-3.01l-1.04-5.73h-4.63l-1.09,5.73H871.08z M875.57,206.91h3.79l-1.91-10.25
			L875.57,206.91z"/>
		<path d="M886.13,214.92v-22.75h2.16l6.46,15.11v-15.11h2.64v22.75h-2.02l-6.54-15.53v15.53H886.13z"/>
		<path d="M906.77,215.17c-1.54,0-2.76-0.3-3.68-0.9c-0.92-0.6-1.57-1.46-1.97-2.57s-0.59-2.42-0.59-3.92v-8.62
			c0-1.5,0.2-2.78,0.6-3.86c0.4-1.08,1.06-1.9,1.97-2.47s2.13-0.86,3.67-0.86c1.53,0,2.75,0.29,3.65,0.87
			c0.9,0.58,1.55,1.4,1.95,2.47s0.6,2.35,0.6,3.85v8.65c0,1.48-0.2,2.77-0.6,3.88c-0.4,1.1-1.05,1.96-1.95,2.57
			S908.31,215.17,906.77,215.17z M906.77,212.67c0.84,0,1.48-0.17,1.91-0.52c0.43-0.35,0.72-0.83,0.87-1.46
			c0.15-0.63,0.22-1.36,0.22-2.21v-9.97c0-0.84-0.07-1.57-0.22-2.18s-0.44-1.08-0.87-1.4c-0.43-0.33-1.07-0.49-1.91-0.49
			s-1.48,0.16-1.92,0.49c-0.44,0.33-0.73,0.8-0.88,1.4c-0.15,0.61-0.22,1.33-0.22,2.18v9.97c0,0.84,0.08,1.58,0.22,2.21
			c0.15,0.63,0.45,1.11,0.88,1.46C905.29,212.5,905.93,212.67,906.77,212.67z"/>
		<path d="M921.46,215.17c-1.31,0-2.4-0.28-3.27-0.84s-1.53-1.34-1.98-2.33s-0.71-2.14-0.79-3.46l2.81-0.76
			c0.06,0.81,0.18,1.58,0.38,2.33c0.2,0.75,0.52,1.36,0.97,1.84c0.45,0.48,1.08,0.72,1.88,0.72c0.82,0,1.45-0.23,1.87-0.69
			c0.42-0.46,0.63-1.12,0.63-1.98c0-1.03-0.23-1.86-0.7-2.49c-0.47-0.63-1.06-1.26-1.77-1.9l-3.82-3.37
			c-0.75-0.66-1.3-1.37-1.66-2.15c-0.36-0.78-0.53-1.74-0.53-2.88c0-1.67,0.48-2.96,1.43-3.88c0.96-0.92,2.26-1.38,3.9-1.38
			c0.9,0,1.69,0.12,2.37,0.35c0.68,0.23,1.25,0.59,1.71,1.08c0.46,0.49,0.82,1.1,1.1,1.84c0.27,0.74,0.45,1.61,0.55,2.6l-2.7,0.73
			c-0.06-0.75-0.17-1.44-0.34-2.06c-0.17-0.63-0.46-1.13-0.88-1.52s-1.02-0.58-1.81-0.58c-0.79,0-1.4,0.21-1.84,0.63
			c-0.44,0.42-0.66,1.04-0.66,1.87c0,0.69,0.12,1.26,0.35,1.71s0.61,0.91,1.14,1.38l3.85,3.37c0.86,0.75,1.62,1.64,2.27,2.68
			c0.66,1.04,0.98,2.27,0.98,3.69c0,1.12-0.23,2.09-0.7,2.91c-0.47,0.81-1.11,1.44-1.92,1.87
			C923.47,214.95,922.53,215.17,921.46,215.17z"/>
	</g>
</g>
</svg>
