<svg width="46" height="46" viewBox="0 0 46 46" fill="none" xmlns="http://www.w3.org/2000/svg">
<path d="M23 0C16.7475 0 15.9683 0.0301913 13.5214 0.133704C11.0644 0.254469 9.40243 0.635455 7.93599 1.20478C6.42355 1.7971 5.13539 2.58351 3.86305 3.86305C2.58207 5.13539 1.78847 6.42355 1.20478 7.93599C0.635455 9.40243 0.254469 11.0644 0.133704 13.5214C0.0230029 15.9697 0 16.7475 0 23C0 29.2525 0.0301913 30.0317 0.133704 32.4786C0.254469 34.9284 0.635455 36.5976 1.20478 38.064C1.7971 39.5765 2.58351 40.8646 3.86305 42.137C5.13539 43.4179 6.42355 44.2115 7.93599 44.7952C9.40243 45.3574 11.0716 45.7455 13.5214 45.8663C15.9697 45.977 16.7475 46 23 46C29.2525 46 30.0317 45.9698 32.4786 45.8663C34.9284 45.7455 36.5976 45.3559 38.064 44.7952C39.5765 44.2029 40.8646 43.4165 42.137 42.137C43.4179 40.8646 44.2115 39.5836 44.7952 38.064C45.3574 36.5976 45.7455 34.9284 45.8663 32.4786C45.977 30.0303 46 29.2525 46 23C46 16.7475 45.9698 15.9683 45.8663 13.5214C45.7455 11.0716 45.3559 9.3938 44.7952 7.93599C44.2029 6.42355 43.4165 5.13539 42.137 3.86305C40.8646 2.58207 39.5836 1.78847 38.064 1.20478C36.5976 0.635455 34.9284 0.254469 32.4786 0.133704C30.0303 0.0230029 29.2525 0 23 0ZM23 4.14052C29.1403 4.14052 29.8735 4.17071 32.3004 4.27422C34.5388 4.37917 35.758 4.75297 36.5674 5.06926C37.6471 5.48762 38.4019 5.98219 39.2185 6.79016C40.0193 7.59095 40.5138 8.35436 40.9322 9.43406C41.2485 10.2435 41.6223 11.4626 41.7272 13.7011C41.8307 16.1279 41.8609 16.8625 41.8609 23.0014C41.8609 29.1403 41.8307 29.875 41.7186 32.3018C41.5978 34.5403 41.224 35.7594 40.9092 36.5688C40.4736 37.6485 39.9876 38.4033 39.1854 39.2199C38.376 40.0207 37.6054 40.5153 36.5343 40.9336C35.735 41.2499 34.4986 41.6237 32.2515 41.7287C29.8117 41.8322 29.0929 41.8624 22.9367 41.8624C16.7806 41.8624 16.0632 41.8322 13.6206 41.72C11.3821 41.5993 10.1471 41.2255 9.33773 40.9106C8.24509 40.475 7.49606 39.9891 6.69384 39.1868C5.88442 38.3774 5.36973 37.6068 4.97293 36.5358C4.65089 35.7364 4.28285 34.5 4.16352 32.2529C4.08157 29.8419 4.04276 29.0943 4.04276 22.9669C4.04276 16.8424 4.08157 16.0934 4.16352 13.6522C4.28285 11.4051 4.65089 10.1716 4.97293 9.36936C5.36973 8.27529 5.88586 7.52769 6.69384 6.71828C7.49463 5.91749 8.24509 5.39993 9.33773 4.9945C10.1471 4.67965 11.3519 4.30585 13.599 4.19371C16.0388 4.10601 16.7576 4.07438 22.9051 4.07438L23 4.14052ZM23 11.1952C16.4715 11.1952 11.1923 16.4816 11.1923 23.0029C11.1923 29.5314 16.4787 34.8105 23 34.8105C29.5285 34.8105 34.8077 29.5242 34.8077 23.0029C34.8077 16.4744 29.5213 11.1952 23 11.1952ZM23 30.67C18.7617 30.67 15.3329 27.2412 15.3329 23.0029C15.3329 18.7646 18.7617 15.3357 23 15.3357C27.2383 15.3357 30.6671 18.7646 30.6671 23.0029C30.6671 27.2412 27.2383 30.67 23 30.67ZM38.0439 10.7237C38.0439 12.2519 36.8003 13.4854 35.2792 13.4854C33.751 13.4854 32.5174 12.2505 32.5174 10.7237C32.5174 9.20403 33.7596 7.96762 35.2792 7.96762C36.7989 7.96762 38.0439 9.20403 38.0439 10.7237Z" fill="white"/>
</svg>
