<svg width="46" height="46" viewBox="0 0 46 46" fill="none" xmlns="http://www.w3.org/2000/svg">
<path d="M44.6848 4.78L44.6088 4.73252L35.0027 0L24.6346 13.8242L29.4047 20.1847C29.262 22.5835 28.2447 24.8466 26.5456 26.5458C24.8464 28.2449 22.5832 29.2621 20.1845 29.4048L13.824 24.6347L0 35.0026L4.69314 44.5284L4.73263 44.6088L4.78022 44.6847C5.03067 45.0882 5.38024 45.4209 5.79564 45.6512C6.21105 45.8814 6.67847 46.0015 7.15341 46H9.6321C14.408 46 19.1372 45.0593 23.5495 43.2316C27.9619 41.404 31.9711 38.7251 35.3481 35.348C38.7252 31.971 41.404 27.9618 43.2317 23.5494C45.0593 19.137 46 14.4079 46 9.63199V7.15319C46.0015 6.67826 45.8814 6.21084 45.6512 5.79543C45.421 5.38002 45.0883 5.03045 44.6848 4.78ZM42.4501 9.63199C42.4501 27.728 27.728 42.4501 9.6321 42.4501H7.62643L4.48636 36.0756L13.8247 29.0718L19.0238 32.971H19.6154C23.1565 32.967 26.5515 31.5586 29.0554 29.0546C31.5594 26.5507 32.9678 23.1558 32.9718 19.6146V19.023L29.0726 13.824L36.0756 4.48625L42.4501 7.62688V9.63199Z" fill="white"/>
</svg>
