<svg width="43" height="47" viewBox="0 0 43 47" fill="none" xmlns="http://www.w3.org/2000/svg">
<path d="M2.24492 37.5208L9.37302 29.5922L14.8558 27.0726C13.0302 24.1849 12.0522 20.7399 12.0557 17.2098C12.0557 7.72024 18.9964 0 27.5278 0C36.0592 0 43 7.72024 43 17.2098C43 26.6993 36.0592 34.4195 27.5278 34.4195C24.3265 34.4236 21.2037 33.3169 18.5945 31.2536L16.3352 37.3357L9.2074 45.2647C8.75026 45.7732 8.20756 46.1766 7.61027 46.4518C7.01299 46.727 6.37282 46.8687 5.72631 46.8687C5.07981 46.8687 4.43963 46.7271 3.84233 46.4519C3.24503 46.1767 2.7023 45.7734 2.24514 45.2649C1.78798 44.7565 1.42533 44.1528 1.17791 43.4885C0.930482 42.8241 0.803122 42.112 0.803102 41.3929C0.803081 40.6738 0.930399 39.9617 1.17779 39.2974C1.42517 38.633 1.78779 38.0293 2.24492 37.5208ZM40.1869 17.2098C40.1869 9.44581 34.5079 3.12905 27.5278 3.12905C20.5478 3.12905 14.8688 9.44581 14.8688 17.2098C14.8688 24.9737 20.5478 31.2905 27.5278 31.2905C34.5079 31.2905 40.1869 24.9737 40.1869 17.2098ZM4.23424 43.0522C4.63023 43.4916 5.16677 43.7384 5.72616 43.7384C6.28554 43.7384 6.82209 43.4916 7.21808 43.0522L13.9495 35.5647L16.05 29.9095L10.9656 32.2459L4.23406 39.7333C3.83902 40.1738 3.61718 40.7706 3.61721 41.3928C3.61725 42.015 3.83915 42.6117 4.23424 43.0522Z" fill="#686868"/>
</svg>
