<?xml version="1.0" encoding="utf-8"?>
<!-- Generator: Adobe Illustrator 26.3.1, SVG Export Plug-In . SVG Version: 6.00 Build 0)  -->
<svg version="1.1" id="Capa_1" xmlns="http://www.w3.org/2000/svg" xmlns:xlink="http://www.w3.org/1999/xlink" x="0px" y="0px"
	 viewBox="0 0 42 42" style="enable-background:new 0 0 42 42;" xml:space="preserve">
<style type="text/css">
	.st0{fill:#FFFFFF;}
</style>
<path class="st0" d="M8.9,27.9c-1.4,0.4-2.4,1.7-2.4,3.2c0,1.9,1.5,3.4,3.4,3.4c1.8,0,3.4-1.5,3.4-3.4C13.3,28.9,11.1,27.2,8.9,27.9
	z"/>
<path class="st0" d="M16.4,15l-0.7,1.7l-0.8-1.6c-0.5-0.9-0.7-2-0.7-3.4c-1.8,2.3-2.2,5.3-1,7.8c1.2,2.6,4.1,4,7.8,4h0
	c3.7,0,6.6-1.5,7.8-4c1.2-2.4,0.8-5.5-1-7.8c0,1.3-0.2,2.4-0.7,3.4l-0.8,1.6L25.5,15c-0.6-1.6-1.4-4.9-1.4-9.3
	c-1,1.2-1.8,3.1-2.4,4.5L21,12.3l-0.8-2.1c-0.5-1.4-1.3-3.3-2.3-4.5C17.8,10.1,17,13.4,16.4,15z"/>
<path class="st0" d="M7.4,26.6l8.2-2.5c-1.2-0.6-2.3-1.4-3.1-2.4l-1.6-0.5c-2.2-0.7-4.4,1-4.4,3.2C6.6,25.2,6.9,26,7.4,26.6z"/>
<path class="st0" d="M31,21.1l-1.6,0.5c-1.8,2.3-4.8,3.6-8.4,3.6h0c-0.9,0-1.8-0.1-2.5-0.2l-5.9,1.8c1.5,0.9,2.5,2.5,2.5,4.3
	c0,0.8-0.2,1.5-0.5,2.1L33,27.6c1.4-0.4,2.4-1.7,2.4-3.2C35.4,22.1,33.2,20.5,31,21.1z"/>
<path class="st0" d="M23.9,32.2l3.5,1.1c-0.3-0.6-0.5-1.3-0.5-2L23.9,32.2z"/>
<path class="st0" d="M33.5,29.2l-4.8,1.5c0,0.1,0,0.3,0,0.4c0,1.9,1.5,3.4,3.4,3.4c1.9,0,3.4-1.5,3.4-3.4c0-0.9-0.4-1.7-1-2.3
	C34.1,29,33.8,29.1,33.5,29.2z"/>
</svg>
