<?xml version="1.0" encoding="utf-8"?>
<!-- Generator: Adobe Illustrator 24.3.0, SVG Export Plug-In . SVG Version: 6.00 Build 0)  -->
<svg version="1.1" id="Capa_1" xmlns="http://www.w3.org/2000/svg" xmlns:xlink="http://www.w3.org/1999/xlink" x="0px" y="0px"
	 viewBox="0 0 42 42" style="enable-background:new 0 0 42 42;" xml:space="preserve">
<style type="text/css">
	.st0{fill:#FFFFFF;}
</style>
<g id="llamota">
	<path class="st0" d="M26.7,34.9c-1-0.7-4.1-2.4-4.1-2.4l6.4-3.8c0,0,0.2,0.1,0.5,0.3c-0.5,0.3-1.6,0.7-2.4,2.3
		C26.3,32.7,26.4,33.5,26.7,34.9z"/>
	<path class="st0" d="M9.2,30.5c-1.3,0.7-2,2.2-1.7,3.6c0.4,1.9,2.2,3,4,2.6s3-2.2,2.6-4C13.7,30.5,11.2,29.3,9.2,30.5z"/>
	<path class="st0" d="M29.5,30.5c-1.3,0.7-2,2.2-1.7,3.6c0.4,1.9,2.2,3,4,2.6s3-2.2,2.6-4C34,30.5,31.5,29.3,29.5,30.5z"/>
	<path class="st0" d="M15.6,12.4l-0.8,2l-0.9-1.9c-0.6-1-0.8-2.3-0.8-3.9c-2.1,2.7-2.5,6.1-1.2,9c1.4,3,4.7,4.6,9,4.6l0,0
		c4.3,0,7.6-1.7,9-4.6c1.4-2.8,0.9-6.4-1.2-9c0,1.5-0.2,2.8-0.8,3.9l-0.9,1.9l-0.9-2c-0.7-1.9-1.6-5.7-1.6-10.8
		c-1.2,1.4-2.1,3.6-2.8,5.2L21,9.3L20,6.8c-0.6-1.6-1.5-3.8-2.7-5.2C17.3,6.7,16.3,10.5,15.6,12.4z"/>
	<path class="st0" d="M12.3,18.8c-1-0.4-1.8-0.5-2.8,0.1c-1.3,0.7-2,2.2-1.7,3.6c0.3,1.2,1.1,2.1,2.2,2.5l0.2,0.1l2.9,1.7l5.9-3.1
		C16.1,23.2,13.6,21.3,12.3,18.8z"/>
	<path class="st0" d="M34.4,21.4c-0.5-2.2-2.8-3.2-4.8-2.4c-1.6,3-4.8,4.9-8.5,5c-1.6,0.9-2.9,1.6-3.1,1.6l-5.4,3
		c1.7,0.6,3,1.9,3.4,3.7c0.2,0.8,0.1,1.5,0,2.2L32.7,25C34,24.4,34.7,22.9,34.4,21.4z"/>
</g>
<g id="llamita">
	<path class="st0" d="M8.9,27.9c-1.4,0.4-2.4,1.7-2.4,3.2c0,1.9,1.5,3.4,3.4,3.4c1.8,0,3.4-1.5,3.4-3.4
		C13.3,28.9,11.1,27.2,8.9,27.9z"/>
	<path class="st0" d="M16.4,15l-0.7,1.7l-0.8-1.6c-0.5-0.9-0.7-2-0.7-3.4c-1.8,2.3-2.2,5.3-1,7.8c1.2,2.6,4.1,4,7.8,4l0,0
		c3.7,0,6.6-1.5,7.8-4c1.2-2.4,0.8-5.5-1-7.8c0,1.3-0.2,2.4-0.7,3.4l-0.8,1.6L25.5,15c-0.6-1.6-1.4-4.9-1.4-9.3
		c-1,1.2-1.8,3.1-2.4,4.5L21,12.3l-0.8-2.1c-0.5-1.4-1.3-3.3-2.3-4.5C17.8,10.1,17,13.4,16.4,15z"/>
	<path class="st0" d="M7.4,26.6l8.2-2.5c-1.2-0.6-2.3-1.4-3.1-2.4l-1.6-0.5c-2.2-0.7-4.4,1-4.4,3.2C6.6,25.2,6.9,26,7.4,26.6z"/>
	<path class="st0" d="M31,21.1l-1.6,0.5c-1.8,2.3-4.8,3.6-8.4,3.6l0,0c-0.9,0-1.8-0.1-2.5-0.2l-5.9,1.8c1.5,0.9,2.5,2.5,2.5,4.3
		c0,0.8-0.2,1.5-0.5,2.1L33,27.6c1.4-0.4,2.4-1.7,2.4-3.2C35.4,22.1,33.2,20.5,31,21.1z"/>
	<path class="st0" d="M23.9,32.2l3.5,1.1c-0.3-0.6-0.5-1.3-0.5-2L23.9,32.2z"/>
	<path class="st0" d="M33.5,29.2l-4.8,1.5c0,0.1,0,0.3,0,0.4c0,1.9,1.5,3.4,3.4,3.4s3.4-1.5,3.4-3.4c0-0.9-0.4-1.7-1-2.3
		C34.1,29,33.8,29.1,33.5,29.2z"/>
</g>
</svg>
