<?xml version="1.0" encoding="utf-8"?>
<!-- Generator: Adobe Illustrator 26.3.1, SVG Export Plug-In . SVG Version: 6.00 Build 0)  -->
<svg version="1.1" id="Capa_1" xmlns="http://www.w3.org/2000/svg" xmlns:xlink="http://www.w3.org/1999/xlink" x="0px" y="0px"
	 viewBox="0 0 164 132" style="enable-background:new 0 0 164 132;" xml:space="preserve">
<style type="text/css">
	.st0{fill:#161617;}
</style>
<g>
	<path class="st0" d="M34.37,97.71c-5.7,1.76-9.53,6.96-9.53,12.93c0,7.45,6.06,13.51,13.51,13.51c7.39,0,13.51-5.92,13.51-13.51
		C51.87,101.61,43.13,95.06,34.37,97.71z"/>
	<path class="st0" d="M64.21,46.07l-2.77,6.85l-3.38-6.55c-1.87-3.65-2.84-8.18-2.84-13.42c-7.18,9.17-8.76,21.37-4.01,31.12
		c5,10.27,16.53,16.17,31.24,16.17h0.07c14.71,0,26.21-5.9,31.24-16.17c4.75-9.75,3.18-21.96-4.01-31.12
		c0,5.25-0.95,9.75-2.84,13.42l-3.38,6.58l-2.77-6.85c-2.52-6.28-5.56-19.64-5.56-37.25l0,0c-4.01,4.86-7.36,12.41-9.55,18.11
		L82.5,35.2l-3.38-8.24c-2.18-5.72-5.34-13.24-9.32-18.11C69.8,26.46,66.76,39.81,64.21,46.07z"/>
	<path class="st0" d="M28.34,92.51l32.68-10.04c-4.93-2.39-9.08-5.68-12.25-9.77l-6.44-1.98c-8.72-2.68-17.48,3.87-17.48,12.9
		C24.85,87.04,26.2,90.1,28.34,92.51z"/>
	<path class="st0" d="M122.66,70.69l-6.44,1.98c-7.07,9.14-19.1,14.32-33.69,14.32h-0.07c-3.49,0-7-0.36-10.16-0.95l-23.58,7.27
		c5.9,3.54,9.91,9.95,9.91,17.32c0,3.02-0.7,5.88-1.89,8.49l73.89-22.59c5.7-1.76,9.53-6.96,9.53-12.93
		C140.15,74.59,131.39,68.03,122.66,70.69z"/>
	<path class="st0" d="M94.21,114.81l14.05,4.32c-1.15-2.48-1.8-5.2-1.87-8.09L94.21,114.81z"/>
	<path class="st0" d="M132.61,102.98l-19.32,5.95c-0.07,0.56-0.18,1.13-0.18,1.71c0,7.59,6.13,13.51,13.51,13.51
		c7.45,0,13.51-6.06,13.51-13.51c0-3.58-1.51-6.8-3.85-9.23C135.13,102.04,133.92,102.58,132.61,102.98z"/>
</g>
</svg>
