<?xml version="1.0" encoding="UTF-8"?><svg id="Capa_1" xmlns="http://www.w3.org/2000/svg" viewBox="0 0 143.23 109.27"><defs><style>.cls-1{fill:#1b1b1b;}</style></defs><path class="cls-1" d="M96.48,106H1.18c-.65,0-1.18,.53-1.18,1.18v.91c0,.65,.53,1.18,1.18,1.18H142.05c.65,0,1.18-.53,1.18-1.18v-.91c0-.65-.53-1.18-1.18-1.18h-45.57Z"/><path class="cls-1" d="M126.29,34.45c.65,0,1.18-.53,1.18-1.18v-.91c0-.65-.53-1.18-1.18-1.18H16.94c-.65,0-1.18,.53-1.18,1.18v.91c0,.65,.53,1.18,1.18,1.18H126.29Z"/><polygon class="cls-1" points="65.67 1.06 23.27 28.22 45.64 28.22 65.67 1.06"/><polygon class="cls-1" points="112.19 103.04 139.94 103.04 125.3 37.42 99.56 37.42 112.19 103.04"/><polygon class="cls-1" points="119.96 28.22 77.56 1.06 97.59 28.22 119.96 28.22"/><polygon class="cls-1" points="93.91 28.22 73.1 0 73.1 28.22 93.91 28.22"/><polygon class="cls-1" points="70.13 0 49.32 28.22 70.13 28.22 70.13 0"/><polygon class="cls-1" points="17.93 37.42 3.29 103.04 31.04 103.04 43.67 37.42 17.93 37.42"/><polygon class="cls-1" points="46.68 37.42 34.06 103.04 45.71 103.04 69.5 37.42 46.68 37.42"/><polygon class="cls-1" points="97.51 103.04 109.17 103.04 96.54 37.42 73.73 37.42 97.51 103.04"/></svg>