<?xml version="1.0" encoding="utf-8"?>
<!-- Generator: Adobe Illustrator 24.3.0, SVG Export Plug-In . SVG Version: 6.00 Build 0)  -->
<svg version="1.1" id="Capa_1" xmlns="http://www.w3.org/2000/svg" xmlns:xlink="http://www.w3.org/1999/xlink" x="0px" y="0px"
	 viewBox="0 0 42 42" style="enable-background:new 0 0 42 42;" xml:space="preserve">
<style type="text/css">
	.st0{fill:#FFFFFF;}
</style>
<path class="st0" d="M28.3,36.1h-28c-0.2,0-0.3,0.2-0.3,0.3v0.3C0,36.9,0.2,37,0.3,37h41.3c0.2,0,0.3-0.2,0.3-0.3v-0.3
	c0-0.2-0.2-0.3-0.3-0.3C41.6,36.1,28.3,36.1,28.3,36.1z"/>
<path class="st0" d="M37,15.1c0.2,0,0.3-0.2,0.3-0.3v-0.3c0-0.2-0.2-0.3-0.3-0.3H5c-0.2,0-0.3,0.2-0.3,0.3v0.3
	c0,0.2,0.2,0.3,0.3,0.3H37z"/>
<path class="st0" d="M19.3,5.3l-12.4,8h6.6L19.3,5.3z"/>
<path class="st0" d="M32.9,35.2H41L36.7,16h-7.5L32.9,35.2z"/>
<path class="st0" d="M35.2,13.3l-12.4-8l5.9,8H35.2z"/>
<path class="st0" d="M27.5,13.3L21.4,5v8.3H27.5z"/>
<path class="st0" d="M20.6,5l-6.1,8.3h6.1V5z"/>
<path class="st0" d="M5.3,16L1,35.2h8.1L12.8,16H5.3z"/>
<path class="st0" d="M13.7,16L10,35.2h10.4V16H13.7z"/>
<path class="st0" d="M21.7,35.2H32L28.3,16h-6.7L21.7,35.2z"/>
</svg>
