<?xml version="1.0" encoding="utf-8"?>
<!-- Generator: Adobe Illustrator 26.3.1, SVG Export Plug-In . SVG Version: 6.00 Build 0)  -->
<svg version="1.1" id="Capa_1" xmlns="http://www.w3.org/2000/svg" xmlns:xlink="http://www.w3.org/1999/xlink" x="0px" y="0px"
	 viewBox="0 0 42 42" style="enable-background:new 0 0 42 42;" xml:space="preserve">
<style type="text/css">
	.st0{clip-path:url(#SVGID_00000136405256669550580920000014845269308924761232_);}
	.st1{fill:#FFFFFF;}
</style>
<g>
	<defs>
		<rect id="SVGID_1_" y="5" width="42" height="32"/>
	</defs>
	<clipPath id="SVGID_00000121245639327776888250000005201452596760756358_">
		<use xlink:href="#SVGID_1_"  style="overflow:visible;"/>
	</clipPath>
	<g style="clip-path:url(#SVGID_00000121245639327776888250000005201452596760756358_);">
		<path class="st1" d="M28.3,36.1H0.3c-0.2,0-0.3,0.2-0.3,0.3v0.3C0,36.9,0.2,37,0.3,37h41.3c0.2,0,0.3-0.2,0.3-0.3v-0.3
			c0-0.2-0.2-0.3-0.3-0.3H28.3z"/>
		<path class="st1" d="M37,15.1c0.2,0,0.3-0.2,0.3-0.3v-0.3c0-0.2-0.2-0.3-0.3-0.3H5c-0.2,0-0.3,0.2-0.3,0.3v0.3
			c0,0.2,0.2,0.3,0.3,0.3H37z"/>
		<path class="st1" d="M19.3,5.3l-12.4,8h6.6L19.3,5.3z"/>
		<path class="st1" d="M32.9,35.2H41L36.7,16h-7.5L32.9,35.2z"/>
		<path class="st1" d="M35.2,13.3l-12.4-8l5.9,8H35.2z"/>
		<path class="st1" d="M27.5,13.3L21.4,5v8.3H27.5z"/>
		<path class="st1" d="M20.6,5l-6.1,8.3h6.1V5z"/>
		<path class="st1" d="M5.3,16L1,35.2h8.1L12.8,16H5.3z"/>
		<path class="st1" d="M13.7,16L10,35.2h3.4l7-19.2H13.7z"/>
		<path class="st1" d="M28.6,35.2H32L28.3,16h-6.7L28.6,35.2z"/>
	</g>
</g>
</svg>
