<svg width="46" height="38" viewBox="0 0 46 38" fill="none" xmlns="http://www.w3.org/2000/svg">
<path d="M45.9123 4.45481C44.2204 5.19656 42.4091 5.70688 40.5001 5.93831C42.4479 4.76963 43.9372 2.921 44.6473 0.71875C42.8203 1.7825 40.7991 2.553 38.6501 2.98856C36.9366 1.15431 34.4871 0 31.7688 0C26.5578 0 22.3344 4.22194 22.3344 9.42569C22.3344 10.1746 22.425 10.8934 22.5817 11.5748C14.743 11.2082 7.79413 7.44194 3.14669 1.75231C2.33019 3.13806 1.86588 4.74806 1.86588 6.50038C1.86588 9.77931 3.53481 12.6543 6.05763 14.3448C4.51519 14.3003 3.06331 13.8733 1.79113 13.1704V13.2839C1.79113 17.8566 5.03988 21.6689 9.35238 22.5371C8.56606 22.7456 7.72656 22.8663 6.87413 22.8663C6.26894 22.8663 5.69106 22.8074 5.11463 22.701C6.32788 26.4443 9.80088 29.1698 13.9409 29.2517C10.7223 31.7745 6.64269 33.2781 2.24681 33.2781C1.49788 33.2781 0.750375 33.2422 0 33.1516C4.19319 35.8254 9.1425 37.3894 14.4886 37.3894C31.8349 37.3894 41.3138 23.0216 41.3138 10.5786C41.3138 10.1818 41.3138 9.77788 41.2836 9.3725C43.1336 8.05431 44.735 6.38394 46 4.49075L45.9123 4.45481Z" fill="white"/>
</svg>
