<?xml version="1.0" encoding="utf-8"?>
<!-- Generator: Adobe Illustrator 26.3.1, SVG Export Plug-In . SVG Version: 6.00 Build 0)  -->
<svg version="1.1" id="Capa_1" xmlns="http://www.w3.org/2000/svg" xmlns:xlink="http://www.w3.org/1999/xlink" x="0px" y="0px"
	 viewBox="0 0 46 46" style="enable-background:new 0 0 46 46;" xml:space="preserve">
<style type="text/css">
	.st0{fill:#FFFFFF;}
</style>
<path class="st0" d="M45.9,8.5c-1.7,0.7-3.5,1.3-5.4,1.5c1.9-1.2,3.4-3,4.1-5.2c-1.8,1.1-3.8,1.8-6,2.3c-1.7-1.8-4.2-3-6.9-3
	c-5.2,0-9.4,4.2-9.4,9.4c0,0.7,0.1,1.5,0.2,2.1c-7.8-0.4-14.8-4.1-19.4-9.8c-0.8,1.4-1.3,3-1.3,4.7c0,3.3,1.7,6.2,4.2,7.8
	c-1.5,0-3-0.5-4.3-1.2v0.1c0,4.6,3.2,8.4,7.6,9.3c-0.8,0.2-1.6,0.3-2.5,0.3c-0.6,0-1.2-0.1-1.8-0.2c1.2,3.7,4.7,6.5,8.8,6.6
	c-3.2,2.5-7.3,4-11.7,4c-0.7,0-1.5,0-2.2-0.1c4.2,2.7,9.1,4.2,14.5,4.2c17.3,0,26.8-14.4,26.8-26.8c0-0.4,0-0.8,0-1.2
	C43.1,12.1,44.7,10.4,45.9,8.5L45.9,8.5z"/>
</svg>
