<svg width="46" height="46" viewBox="0 0 46 46" fill="none" xmlns="http://www.w3.org/2000/svg">
<path d="M33.534 27.5669C32.9576 27.2751 30.1501 25.9052 29.6254 25.7097C29.1008 25.5228 28.7198 25.4251 28.3374 26.0015C27.9637 26.5636 26.8626 27.8501 26.5262 28.2253C26.1898 28.6005 25.8592 28.6293 25.2914 28.3748C24.7149 28.083 22.8735 27.4836 20.6871 25.5228C18.9793 24.0034 17.8423 22.1318 17.5044 21.5553C17.1681 20.9861 17.4671 20.6641 17.7517 20.3794C18.0133 20.1178 18.3281 19.7211 18.6199 19.3761C18.8974 19.0311 18.9865 18.7996 19.1892 18.4259C19.3761 18.0219 19.2798 17.7071 19.1374 17.4225C18.9951 17.1379 17.8494 14.3161 17.3708 13.1919C16.9136 12.0764 16.4349 12.2188 16.0828 12.2188C15.7536 12.1886 15.3712 12.1886 14.9903 12.1886C14.6093 12.1886 13.9869 12.3309 13.4622 12.8771C12.9375 13.4536 11.4554 14.8307 11.4554 17.6166C11.4554 20.4096 13.5068 23.1121 13.7914 23.5161C14.0832 23.8898 17.8264 29.6398 23.5693 32.1109C24.9392 32.6873 26.0029 33.0323 26.8338 33.3169C28.2038 33.7511 29.4544 33.6907 30.4419 33.5484C31.5344 33.3687 33.8258 32.1626 34.3059 30.8157C34.7933 29.4601 34.7933 28.3374 34.6509 28.083C34.5086 27.8214 34.1349 27.6791 33.5584 27.4246L33.534 27.5669ZM23.1193 41.6875H23.0891C19.6894 41.6875 16.3286 40.7661 13.3932 39.0439L12.7046 38.6328L5.51713 40.5044L7.44913 33.511L6.98481 32.7923C5.09019 29.7749 4.07963 26.2933 4.07963 22.7154C4.07963 12.2791 12.6227 3.76625 23.1337 3.76625C28.2253 3.76625 33.0021 5.75 36.5959 9.34375C40.1896 12.9073 42.1734 17.6841 42.1734 22.7456C42.159 33.1746 33.6231 41.6875 23.1265 41.6875H23.1193ZM39.3286 6.61106C34.9557 2.38769 29.2057 0 23.0891 0C10.4736 0 0.20125 10.2278 0.194063 22.7973C0.194063 26.8108 1.242 30.7266 3.24875 34.1924L0 46L12.144 42.8332C15.4905 44.6373 19.2568 45.6033 23.0906 45.6104H23.0978C35.7204 45.6104 45.9928 35.3826 46 22.8045C46 16.7181 43.6267 10.9897 39.2998 6.68438L39.3286 6.61106Z" fill="white"/>
</svg>
