<?xml version="1.0" encoding="UTF-8" ?>
<!DOCTYPE svg PUBLIC "-//W3C//DTD SVG 1.1//EN" "http://www.w3.org/Graphics/SVG/1.1/DTD/svg11.dtd">
<svg width="1982pt" height="313pt" viewBox="0 0 1982 313" version="1.1" xmlns="http://www.w3.org/2000/svg">
<g id="#ae0c17ff">
<path fill="#ae0c17" opacity="1.00" d=" M 34.75 15.97 C 87.84 15.72 140.94 15.98 194.04 15.84 C 196.36 15.86 198.92 15.65 200.81 17.27 C 210.37 23.95 219.95 30.62 229.52 37.29 C 229.46 115.69 229.54 194.08 229.48 272.48 C 219.13 279.41 209.19 287.02 198.69 293.71 C 152.36 294.12 105.98 293.74 59.63 293.89 C 59.61 208.36 59.63 122.84 59.62 37.31 C 51.32 30.21 42.96 23.18 34.75 15.97 M 118.93 56.37 C 118.81 121.91 118.91 187.46 118.88 253.00 C 135.33 253.00 151.79 253.00 168.25 253.00 C 168.25 187.45 168.27 121.90 168.23 56.35 C 151.80 56.40 135.36 56.38 118.93 56.37 Z" />
<path fill="#ae0c17" opacity="1.00" d=" M 254.30 16.00 C 307.88 15.69 361.47 15.98 415.06 15.86 C 418.64 15.39 421.30 18.09 424.04 19.91 C 432.29 25.69 440.58 31.41 448.87 37.13 C 448.86 71.33 448.92 105.52 448.84 139.71 C 433.77 146.40 418.74 153.20 403.71 159.98 C 418.80 194.96 434.06 229.88 449.16 264.86 C 450.47 267.70 451.32 271.04 454.03 272.93 C 462.73 279.88 471.42 286.84 480.08 293.85 C 454.09 293.92 428.11 293.85 402.13 293.88 C 384.67 256.39 367.38 218.82 349.93 181.33 C 346.45 183.10 342.83 184.61 339.44 186.56 C 338.58 187.83 339.00 189.49 338.85 190.93 C 338.92 217.31 338.85 243.69 338.88 270.07 C 338.46 272.11 340.21 273.32 341.59 274.43 C 349.61 280.87 357.75 287.16 365.57 293.84 C 336.68 293.93 307.80 293.85 278.92 293.88 C 278.79 208.35 278.96 122.83 278.83 37.30 C 270.63 30.23 262.32 23.28 254.30 16.00 M 338.25 56.36 C 338.25 85.56 338.25 114.76 338.25 143.97 C 354.79 136.91 371.27 129.73 387.83 122.74 C 387.93 100.61 387.84 78.48 387.88 56.35 C 371.33 56.40 354.79 56.38 338.25 56.36 Z" />
<path fill="#ae0c17" opacity="1.00" d=" M 551.09 16.01 C 579.90 15.80 608.73 15.75 637.54 16.04 C 662.08 100.58 686.95 185.03 711.56 269.55 C 712.05 272.60 714.96 274.08 717.13 275.85 C 724.87 281.83 732.69 287.70 740.31 293.83 C 714.62 293.93 688.93 293.87 663.25 293.86 C 657.31 277.51 651.25 261.20 645.23 244.88 C 622.62 244.98 600.01 244.65 577.40 245.05 C 574.13 254.09 570.22 262.91 567.02 271.97 C 572.31 279.59 578.69 286.43 584.28 293.86 C 554.80 293.90 525.33 293.87 495.85 293.87 C 524.10 208.23 552.51 122.63 580.87 37.02 C 570.98 29.96 560.83 23.27 551.09 16.01 M 587.58 211.20 C 603.86 211.28 620.15 211.29 636.43 211.19 C 628.08 184.68 619.88 158.11 611.43 131.63 C 603.25 158.08 595.54 184.68 587.58 211.20 Z" />
<path fill="#ae0c17" opacity="1.00" d=" M 779.97 16.95 C 781.35 15.78 783.23 15.90 784.93 15.85 C 818.97 15.92 853.02 15.84 887.05 15.89 C 888.99 15.75 890.69 16.73 892.24 17.79 C 901.99 24.33 911.86 30.71 921.64 37.22 C 921.60 68.97 921.64 100.71 921.62 132.46 C 901.15 125.35 880.82 117.84 860.39 110.62 C 860.34 92.53 860.42 74.44 860.34 56.35 C 843.90 56.39 827.46 56.40 811.02 56.35 C 810.97 121.90 811.01 187.45 811.00 253.00 C 827.45 253.00 843.91 253.00 860.37 253.00 C 860.38 227.68 860.38 202.36 860.37 177.04 C 880.77 184.24 901.18 191.45 921.60 198.62 C 921.63 223.21 921.67 247.80 921.58 272.39 C 911.25 279.08 901.15 286.10 890.87 292.85 C 889.75 293.66 888.38 293.91 887.05 293.88 C 852.68 293.87 818.31 293.87 783.95 293.89 C 782.59 293.86 781.16 293.85 780.10 292.90 C 771.74 286.96 763.51 280.84 755.12 274.94 C 753.51 273.68 751.08 272.50 751.61 270.05 C 751.65 192.39 751.58 114.74 751.65 37.08 C 761.15 30.45 770.50 23.62 779.97 16.95 Z" />
<path fill="#ae0c17" opacity="1.00" d=" M 1001.45 16.00 C 1030.25 15.74 1059.05 15.88 1087.85 15.93 C 1112.53 100.59 1137.34 185.21 1162.05 269.86 C 1162.38 271.34 1163.21 272.64 1164.49 273.51 C 1173.18 280.30 1182.07 286.83 1190.60 293.82 C 1164.93 293.90 1139.25 293.93 1113.58 293.81 C 1107.77 277.47 1101.56 261.28 1095.70 244.96 C 1073.20 244.85 1050.69 244.77 1028.19 244.99 C 1024.11 253.77 1020.85 262.96 1017.40 272.01 C 1022.74 279.57 1029.05 286.43 1034.64 293.82 C 1005.15 293.96 975.66 293.82 946.18 293.89 C 967.33 230.13 988.36 166.34 1009.55 102.59 C 1016.60 80.74 1024.19 59.04 1031.03 37.13 C 1021.49 29.67 1011.07 23.37 1001.45 16.00 M 1061.74 131.73 C 1053.66 158.19 1045.88 184.73 1037.95 211.23 C 1054.23 211.26 1070.51 211.27 1086.79 211.23 C 1078.46 184.72 1070.38 158.13 1061.74 131.73 Z" />
<path fill="#ae0c17" opacity="1.00" d=" M 1190.70 15.97 C 1243.81 15.72 1296.93 15.98 1350.04 15.84 C 1352.08 15.94 1354.39 15.57 1356.14 16.91 C 1365.91 23.59 1375.56 30.46 1385.36 37.11 C 1385.41 67.41 1385.36 97.70 1385.38 128.00 C 1385.15 131.88 1385.93 135.93 1384.93 139.70 C 1370.13 146.71 1355.04 153.15 1340.15 159.99 C 1356.27 196.85 1372.02 233.89 1388.33 270.65 C 1397.13 278.95 1407.25 285.87 1416.40 293.83 C 1390.43 293.91 1364.47 293.90 1338.50 293.83 C 1321.20 256.30 1303.82 218.80 1286.39 181.32 C 1282.83 183.17 1279.07 184.66 1275.63 186.74 C 1274.99 195.46 1275.57 204.25 1275.38 213.00 C 1275.37 231.67 1275.40 250.35 1275.35 269.02 C 1275.43 270.52 1275.11 272.42 1276.70 273.28 C 1285.18 280.16 1293.76 286.91 1302.21 293.83 C 1273.26 293.93 1244.30 293.85 1215.35 293.88 C 1215.42 211.25 1215.34 128.63 1215.39 46.01 C 1215.30 43.11 1215.66 40.16 1215.06 37.30 C 1207.16 29.96 1198.63 23.29 1190.70 15.97 M 1274.77 56.35 C 1274.74 85.55 1274.73 114.75 1274.77 143.95 C 1291.15 136.83 1307.68 130.02 1323.97 122.70 C 1324.94 117.57 1324.11 112.22 1324.37 107.00 C 1324.36 90.12 1324.41 73.24 1324.34 56.35 C 1307.82 56.40 1291.29 56.39 1274.77 56.35 Z" />
<path fill="#ae0c17" opacity="1.00" d=" M 1415.74 15.98 C 1449.06 15.78 1482.40 15.86 1515.73 15.93 C 1532.06 41.70 1548.43 67.44 1564.85 93.15 C 1564.92 74.46 1564.82 55.76 1564.90 37.06 C 1556.66 29.99 1548.18 23.20 1540.06 16.01 C 1568.32 15.73 1596.60 15.91 1624.88 15.92 C 1624.86 100.30 1624.90 184.69 1624.86 269.07 C 1625.00 270.39 1624.60 272.17 1625.90 273.07 C 1634.61 280.07 1643.60 286.75 1652.26 293.83 C 1623.15 293.94 1594.03 293.85 1564.92 293.88 C 1564.71 281.99 1565.11 270.08 1564.74 258.19 C 1561.97 252.88 1558.01 248.26 1554.78 243.21 C 1536.47 216.87 1518.53 190.27 1500.01 164.09 C 1499.60 198.74 1500.22 233.41 1499.97 268.07 C 1500.14 269.71 1499.46 271.85 1500.98 273.05 C 1508.99 280.07 1517.26 286.80 1525.25 293.85 C 1496.91 293.92 1468.57 293.84 1440.23 293.89 C 1440.27 208.26 1440.25 122.62 1440.24 36.99 C 1432.08 29.98 1423.80 23.10 1415.74 15.98 Z" />
<path fill="#ae0c17" opacity="1.00" d=" M 1652.08 15.99 C 1680.22 15.77 1708.38 15.84 1736.52 15.96 C 1736.47 70.31 1736.52 124.66 1736.50 179.00 C 1736.59 209.98 1736.32 240.96 1736.63 271.93 C 1744.67 279.67 1753.63 286.48 1762.02 293.86 C 1733.50 293.89 1704.99 293.88 1676.47 293.87 C 1676.50 208.30 1676.55 122.73 1676.44 37.16 C 1668.25 30.18 1660.06 23.21 1652.08 15.99 Z" />
<path fill="#ae0c17" opacity="1.00" d=" M 1813.38 18.37 C 1815.06 17.24 1816.76 15.75 1818.96 15.90 C 1846.63 15.83 1874.32 15.90 1902.00 15.87 C 1909.88 16.12 1917.84 15.38 1925.68 16.22 C 1936.11 22.98 1946.25 30.23 1956.54 37.22 C 1956.44 68.95 1956.54 100.68 1956.48 132.41 C 1936.09 125.27 1915.86 117.63 1895.52 110.35 C 1895.42 92.57 1895.61 74.78 1895.44 57.01 L 1894.75 56.48 C 1878.55 56.21 1862.33 56.49 1846.12 56.35 C 1846.15 78.48 1846.08 100.60 1846.16 122.73 C 1882.97 138.28 1919.69 154.05 1956.49 169.64 C 1956.51 203.88 1956.51 238.13 1956.49 272.37 C 1946.13 279.36 1936.06 286.79 1925.60 293.60 C 1917.44 294.29 1909.19 293.67 1901.00 293.88 C 1873.07 293.77 1845.12 294.09 1817.21 293.72 C 1806.70 287.07 1796.83 279.35 1786.51 272.36 C 1786.48 240.56 1786.51 208.76 1786.50 176.96 C 1805.96 184.03 1825.40 191.18 1844.86 198.25 C 1846.44 198.62 1845.89 200.74 1846.14 201.93 C 1846.12 218.99 1846.13 236.06 1846.12 253.12 C 1862.57 253.11 1879.03 253.15 1895.48 253.10 C 1895.53 230.96 1895.46 208.83 1895.52 186.70 C 1859.20 170.99 1822.80 155.47 1786.47 139.80 C 1786.52 105.61 1786.53 71.43 1786.46 37.25 C 1795.39 30.90 1804.44 24.72 1813.38 18.37 Z" />
</g>
</svg>
