<?xml version="1.0" encoding="utf-8"?>
<!-- Generator: Adobe Illustrator 26.3.1, SVG Export Plug-In . SVG Version: 6.00 Build 0)  -->
<svg version="1.1" id="Capa_1" xmlns="http://www.w3.org/2000/svg" xmlns:xlink="http://www.w3.org/1999/xlink" x="0px" y="0px"
	 viewBox="0 0 1282 188.6" style="enable-background:new 0 0 1282 188.6;" xml:space="preserve">
<style type="text/css">
	.st0{fill:#AE0C17;}
</style>
<g id="_x23_ae0c17ff">
	<path class="st0" d="M0,3.1c35.4-0.2,70.8,0,106.3-0.2c1.5,0,3.3-0.2,4.6,1c6.4,4.4,12.7,9,19.1,13.4c0,52.2,0,104.6,0,156.9
		c-6.9,4.6-13.5,9.6-20.6,14.2c-30.9,0.3-61.9,0-92.7,0.2c0-57.1,0-114.1,0-171.2C11.1,12.6,5.5,7.8,0,3.1 M56.2,30
		c0,43.7,0,87.5,0,131.2c10.9,0,21.9,0,33,0c0-43.7,0-87.5,0-131.2C78,30,67.1,30,56.2,30z"/>
	<path class="st0" d="M146.4,3.1c35.7-0.2,71.5,0,107.2-0.2c2.4-0.3,4.2,1.5,6,2.8c5.5,3.9,11.1,7.7,16.5,11.4c0,22.9,0,45.5,0,68.4
		c-10.1,4.4-20.1,9-30,13.5c10.1,23.3,20.2,46.7,30.4,70c0.8,2,1.5,4.1,3.3,5.4c5.9,4.6,11.6,9.3,17.3,13.9c-17.3,0-34.6,0-52.1,0
		c-11.6-25-23.2-50.1-34.8-75.1c-2.3,1.1-4.7,2.1-7,3.4c-0.7,0.8-0.3,2-0.3,2.9c0,17.6,0,35.3,0,52.7c-0.3,1.3,0.8,2.1,1.8,2.9
		c5.4,4.2,10.8,8.5,16,12.9c-19.3,0-38.5,0-57.8,0c-0.2-57.1,0-114.1,0-171.2C157.4,12.6,151.8,8,146.4,3.1 M202.4,30
		c0,19.4,0,39,0,58.4c11.1-4.7,22-9.5,33.1-14.2c0-14.7,0-29.5,0-44.2C224.4,30,213.5,30,202.4,30z"/>
	<path class="st0" d="M344.4,3.1c19.3-0.2,38.5-0.2,57.6,0c16.3,56.3,33,112.8,49.3,169.1c0.3,2,2.3,3.1,3.8,4.2
		c5.2,3.9,10.4,7.8,15.5,11.9c-17.1,0-34.3,0-51.4,0c-3.9-10.9-8-21.7-12.1-32.6c-15,0-30.2-0.2-45.2,0.2c-2.1,6-4.7,11.9-6.9,18
		c3.6,5.1,7.8,9.6,11.6,14.5c-19.6,0-39.3,0-58.9,0c18.8-57.1,37.9-114.3,56.6-171.4C357.6,12.4,350.9,8,344.4,3.1 M368.7,133.4
		c10.9,0,21.7,0,32.6,0c-5.5-17.6-11.1-35.4-16.6-53C379.2,97.9,374.1,115.6,368.7,133.4z"/>
	<path class="st0" d="M497,3.8c1-0.8,2.1-0.7,3.3-0.7c22.7,0,45.4,0,68.1,0c1.3-0.2,2.4,0.5,3.4,1.3c6.5,4.4,13.1,8.7,19.6,12.9
		c0,21.2,0,42.3,0,63.5c-13.7-4.7-27.3-9.8-40.8-14.5c0-12.1,0-24.2,0-36.2c-10.9,0-21.9,0-33,0c0,43.7,0,87.5,0,131.2
		c10.9,0,21.9,0,33,0c0-16.8,0-33.8,0-50.6c13.5,4.7,27.3,9.6,40.8,14.4c0,16.3,0,32.8,0,49.1c-6.9,4.4-13.5,9.1-20.4,13.7
		c-0.8,0.5-1.6,0.7-2.6,0.7c-22.9,0-45.9,0-68.7,0c-1,0-1.8,0-2.6-0.7c-5.5-3.9-11.1-8-16.6-11.9c-1.1-0.8-2.8-1.6-2.3-3.3
		c0-51.7,0-103.7,0-155.4C484.5,12.7,490.8,8.2,497,3.8z"/>
	<path class="st0" d="M644.9,3.1c19.3-0.2,38.4,0,57.6,0c16.5,56.5,33,113,49.5,169.4c0.2,1,0.8,1.8,1.6,2.4
		c5.9,4.6,11.8,8.8,17.5,13.5c-17.1,0-34.3,0-51.4,0c-3.9-10.9-8-21.7-11.9-32.6c-15,0-30-0.2-45.1,0c-2.8,5.9-4.9,11.9-7.2,18
		c3.6,5.1,7.8,9.6,11.4,14.5c-19.8,0.2-39.3,0-58.9,0c14-42.6,28.1-85,42.3-127.6c4.7-14.5,9.8-29.1,14.4-43.7
		C658.1,12.2,651.3,8,644.9,3.1 M685.1,80.3c-5.4,17.6-10.6,35.4-15.8,53c10.9,0,21.7,0,32.6,0C696.2,115.6,690.8,97.9,685.1,80.3z"
		/>
	<path class="st0" d="M771.1,3.1c35.4-0.2,70.8,0,106.3-0.2c1.3,0,2.9-0.2,4.1,0.7c6.5,4.4,12.9,9,19.4,13.5c0,20.2,0,40.5,0,60.6
		c-0.2,2.6,0.3,5.2-0.3,7.8c-9.8,4.7-19.9,9-29.9,13.5c10.8,24.6,21.2,49.3,32.2,73.8c5.9,5.5,12.6,10.1,18.8,15.5
		c-17.3,0-34.6,0-51.9,0c-11.6-25-23.2-50.1-34.8-75.1c-2.4,1.3-4.9,2.3-7.2,3.6c-0.5,5.9,0,11.8-0.2,17.5c0,12.4,0,25,0,37.4
		c0,1-0.2,2.3,1,2.8c5.7,4.6,11.4,9.1,17,13.7c-19.3,0-38.7,0-57.9,0c0-55.2,0-110.2,0-165.4c0-2,0.2-3.9-0.2-5.9
		C782,12.4,776.3,8,771.1,3.1 M827.1,30c0,19.4,0,39,0,58.4c10.9-4.7,21.9-9.3,32.8-14.2c0.7-3.4,0.2-7,0.3-10.4
		c0-11.3,0-22.5,0-33.8C849.3,30,838.2,30,827.1,30z"/>
	<path class="st0" d="M921.3,3.1c22.2-0.2,44.4,0,66.8,0c10.9,17.1,21.9,34.4,32.8,51.6c0-12.4,0-25,0-37.4
		c-5.5-4.7-11.1-9.3-16.6-14c18.8-0.2,37.7,0,56.6,0c0,56.3,0,112.6,0,168.9c0.2,0.8-0.2,2.1,0.7,2.6c5.9,4.7,11.8,9.1,17.6,13.9
		c-19.4,0-38.8,0-58.3,0c-0.2-8,0.2-15.8-0.2-23.8c-1.8-3.6-4.6-6.7-6.7-10c-12.2-17.6-24.2-35.3-36.6-52.7
		c-0.3,23.2,0.2,46.2,0,69.4c0.2,1.1-0.3,2.4,0.7,3.3c5.4,4.7,10.9,9.1,16.2,13.9c-18.9,0-37.9,0-56.6,0c0-57.1,0-114.3,0-171.4
		C932,12.4,926.5,7.8,921.3,3.1z"/>
	<path class="st0" d="M1078.8,3.1c18.8-0.2,37.5-0.2,56.3,0c0,36.2,0,72.5,0,108.7c0,20.7-0.2,41.3,0.2,62c5.4,5.2,11.3,9.6,17,14.7
		c-19.1,0-38,0-57.1,0c0-57.1,0-114.1,0-171.2C1089.6,12.6,1084.2,7.8,1078.8,3.1z"/>
	<path class="st0" d="M1186.5,4.7c1.1-0.8,2.3-1.8,3.8-1.6c18.4,0,36.9,0,55.3,0c5.2,0.2,10.6-0.3,15.8,0.2c7,4.6,13.7,9.3,20.6,14
		c0,21.2,0,42.3,0,63.5c-13.5-4.7-27.1-9.8-40.6-14.7c0-11.9,0-23.7,0-35.6l-0.5-0.3c-10.8-0.2-21.5,0-32.5-0.2
		c0,14.7,0,29.5,0,44.2c24.5,10.4,49,20.9,73.6,31.3c0,22.9,0,45.7,0,68.6c-6.9,4.7-13.5,9.6-20.6,14.2c-5.4,0.5-10.9,0-16.5,0.2
		c-18.6,0-37.2,0.2-55.8-0.2c-7-4.4-13.5-9.6-20.4-14.2c0-21.2,0-42.4,0-63.7c13.1,4.7,26,9.5,38.8,14.2c1,0.3,0.7,1.6,0.8,2.4
		c0,11.4,0,22.7,0,34.1c10.9,0,21.9,0,33,0c0-14.7,0-29.5,0-44.2c-24.2-10.4-48.5-20.9-72.8-31.3c0-22.9,0-45.5,0-68.4
		C1174.4,13.1,1180.5,9,1186.5,4.7z"/>
</g>
</svg>
