<?xml version="1.0" encoding="UTF-8" ?>
<!DOCTYPE svg PUBLIC "-//W3C//DTD SVG 1.1//EN" "http://www.w3.org/Graphics/SVG/1.1/DTD/svg11.dtd">
<svg width="1113pt" height="1114pt" viewBox="0 0 1113 1114" version="1.1" xmlns="http://www.w3.org/2000/svg">
<g id="#ae0c17ff">
<path fill="#ae0c17" opacity="1.00" d=" M 543.42 2.59 C 547.96 2.28 552.42 1.12 557.00 1.29 C 561.57 1.12 566.04 2.29 570.58 2.59 C 579.03 3.20 587.51 2.44 595.97 2.90 C 671.76 8.02 746.40 29.07 813.72 64.25 C 901.41 109.87 976.39 179.46 1028.71 263.31 C 1032.53 269.90 1037.17 276.11 1040.02 283.20 C 1025.29 275.44 1011.07 266.62 995.59 260.38 C 973.75 251.55 951.78 242.87 928.94 236.95 C 916.18 234.07 903.18 232.31 890.42 229.39 C 880.56 227.04 870.13 227.68 860.52 224.19 C 866.13 220.61 872.85 219.93 879.08 218.00 C 890.15 214.68 901.67 213.38 912.89 210.75 C 920.75 209.12 928.88 209.46 936.72 207.66 C 942.26 206.35 947.99 206.13 953.54 204.86 C 948.23 201.10 941.62 200.38 935.67 198.12 C 925.65 194.55 915.09 192.96 904.92 189.91 C 898.06 187.73 890.75 187.91 883.82 186.07 C 876.44 184.19 868.72 184.53 861.32 182.82 C 854.98 181.39 848.50 180.82 842.02 180.67 C 823.35 180.14 804.67 180.41 785.99 180.36 C 775.73 180.64 765.41 180.61 755.24 182.11 C 745.88 183.97 736.28 184.34 727.07 186.92 C 715.62 188.22 704.53 191.37 693.39 194.19 C 674.83 199.14 656.55 205.23 638.95 212.93 C 635.58 214.32 632.37 216.41 628.63 216.55 C 628.76 210.24 631.19 204.31 632.33 198.16 C 635.05 187.28 636.03 176.09 637.84 165.05 C 639.70 150.77 638.49 136.36 638.87 122.02 C 639.22 112.03 638.84 101.96 636.91 92.12 C 635.43 85.31 636.57 77.88 633.01 71.60 C 628.72 73.89 628.87 79.19 627.18 83.16 C 615.49 114.10 599.59 143.43 580.34 170.32 C 560.68 197.85 537.28 222.60 511.76 244.77 C 501.11 253.74 490.44 262.80 478.77 270.41 C 486.20 255.01 494.64 240.10 501.34 224.35 C 506.79 211.56 511.85 198.47 514.41 184.75 C 515.55 178.95 515.73 172.86 513.87 167.18 C 506.98 179.38 500.33 191.76 492.19 203.20 C 480.87 219.54 467.77 234.72 452.68 247.70 C 441.36 257.26 429.28 266.26 415.57 272.10 C 420.17 260.08 424.91 248.11 428.80 235.85 C 417.43 248.79 404.84 260.68 391.15 271.14 C 386.62 259.22 390.33 246.57 392.24 234.54 C 380.54 246.76 375.04 263.16 367.75 278.08 C 366.90 271.03 365.86 263.77 362.12 257.58 C 358.15 277.30 354.14 297.09 347.67 316.17 C 341.92 307.24 340.56 296.49 337.47 286.52 C 335.73 291.81 335.94 297.45 334.95 302.88 C 332.10 318.78 328.03 334.46 322.92 349.78 C 321.27 354.74 319.52 359.92 315.74 363.72 C 309.72 369.85 304.21 376.73 300.88 384.72 C 299.24 390.31 300.09 396.24 300.05 401.98 C 307.30 405.32 315.97 409.05 318.36 417.46 C 319.56 423.96 317.04 430.53 314.38 436.37 C 311.12 441.56 306.35 445.84 301.13 448.99 C 295.38 450.62 289.19 448.97 283.40 450.57 C 279.07 451.54 275.85 454.79 272.81 457.81 C 268.18 462.51 263.68 467.37 258.60 471.62 C 252.81 476.60 246.31 480.66 240.10 485.08 C 237.82 486.73 235.44 488.48 234.15 491.07 C 231.72 495.88 231.58 501.46 229.28 506.32 C 227.42 510.37 223.27 513.14 218.90 513.72 C 211.14 514.62 203.90 509.83 196.14 510.99 C 192.02 512.02 189.21 515.48 186.13 518.16 C 177.48 526.18 167.59 532.81 157.06 538.11 C 149.87 541.76 142.11 544.17 134.98 547.98 C 119.89 555.78 107.01 567.16 95.42 579.44 C 92.50 582.60 89.12 585.67 87.82 589.92 C 85.19 598.43 88.23 608.27 95.37 613.67 C 117.07 630.72 131.56 654.94 143.30 679.51 C 148.93 675.89 153.54 670.98 158.57 666.60 C 187.35 641.33 219.93 619.29 256.76 607.76 C 266.90 604.38 277.51 602.87 287.72 599.77 C 305.65 594.52 323.22 587.35 341.96 585.57 C 367.22 583.21 392.62 584.73 417.93 583.42 C 438.39 582.86 459.11 581.29 478.70 574.93 C 483.81 573.31 488.51 570.68 493.39 568.48 C 511.02 560.28 529.10 552.50 544.75 540.77 C 558.17 530.63 570.02 518.32 579.19 504.19 C 582.26 499.55 584.52 494.42 587.69 489.83 C 585.99 504.21 579.71 517.68 571.40 529.40 C 560.03 545.51 544.82 558.44 529.04 570.07 C 517.34 578.52 505.42 586.69 492.96 593.99 C 486.97 597.56 481.00 601.21 475.42 605.39 C 464.93 613.26 453.97 620.49 443.83 628.82 C 439.24 632.53 435.20 636.85 430.93 640.92 C 421.80 649.80 412.50 658.51 402.90 666.87 C 394.40 674.24 389.27 684.49 381.71 692.70 C 369.27 706.25 356.07 719.08 343.07 732.08 C 332.11 742.48 319.93 751.97 305.95 757.92 C 293.44 763.63 280.50 768.69 266.93 771.18 C 263.69 771.77 260.53 772.73 257.49 774.01 C 257.99 775.86 258.50 777.78 259.68 779.35 C 264.36 785.93 268.80 792.73 274.27 798.71 C 286.09 811.70 301.45 821.12 317.85 827.18 C 332.01 832.28 346.87 836.16 362.02 836.22 C 366.63 836.30 371.24 836.10 375.85 835.86 C 375.93 826.37 375.57 816.46 379.64 807.64 C 383.96 798.38 389.41 788.89 398.44 783.52 C 413.63 775.24 430.49 770.91 446.41 764.35 C 455.42 760.66 464.58 757.36 473.53 753.53 C 482.52 749.71 491.03 744.88 499.97 740.95 C 515.32 734.46 529.76 725.96 543.45 716.47 C 549.43 712.08 556.01 708.53 561.60 703.62 C 574.79 691.85 589.03 680.59 598.23 665.20 C 607.72 648.99 619.76 633.43 623.37 614.58 C 624.33 608.96 624.43 603.22 625.88 597.69 C 627.90 600.98 629.30 604.59 630.77 608.15 C 636.05 591.36 637.28 573.69 640.32 556.45 C 643.13 562.52 642.23 569.35 643.15 575.80 C 645.54 595.15 643.98 614.64 642.30 633.97 C 641.16 644.24 637.28 654.01 636.28 664.30 C 643.40 658.05 649.81 650.83 658.17 646.14 C 668.80 640.16 680.04 635.00 691.92 632.07 C 700.34 630.81 708.40 627.36 717.02 627.54 C 725.36 627.53 733.69 626.79 742.03 627.11 C 752.04 627.80 762.33 626.62 771.99 630.00 C 798.44 634.45 823.57 646.56 843.67 664.30 C 856.81 675.86 867.28 690.19 875.49 705.59 C 880.35 714.27 883.18 723.86 886.63 733.14 C 890.93 744.66 892.06 756.96 893.98 769.01 C 896.07 783.61 895.99 798.54 892.97 813.00 C 888.89 841.92 876.99 869.15 861.88 893.92 C 842.65 923.25 819.23 949.82 792.62 972.66 C 766.73 995.15 738.46 1014.92 708.36 1031.35 C 702.47 1034.31 695.69 1036.19 691.31 1041.45 C 700.38 1040.53 708.76 1036.64 717.51 1034.37 C 737.78 1027.74 757.46 1019.48 777.07 1011.13 C 806.50 997.35 835.04 981.48 861.38 962.36 C 877.66 950.91 892.78 937.90 907.32 924.32 C 919.05 913.33 929.54 901.11 939.66 888.65 C 959.30 864.23 974.76 836.60 986.58 807.63 C 994.05 787.70 999.59 767.01 1002.75 745.95 C 1004.08 733.35 1004.22 720.64 1003.94 707.98 C 1003.56 700.05 1003.35 692.08 1001.94 684.25 C 995.47 646.40 976.58 610.73 948.67 584.32 C 928.08 564.85 903.01 549.67 875.49 542.42 C 869.59 540.84 863.66 539.30 857.64 538.24 C 846.58 536.65 835.40 537.80 824.29 537.39 C 827.11 529.49 832.02 522.61 836.90 515.88 C 847.13 501.65 859.68 488.98 874.36 479.34 C 886.99 470.74 901.68 465.78 916.57 462.84 C 922.31 461.69 928.18 461.97 934.00 461.84 C 941.60 461.86 949.22 461.72 956.81 462.14 C 965.09 463.17 973.05 466.50 981.52 466.05 C 971.72 451.13 955.38 442.06 938.95 436.16 C 929.55 433.07 920.10 429.48 910.10 429.12 C 901.73 428.76 893.43 427.20 885.04 427.70 C 877.09 428.10 869.17 428.91 861.25 429.56 C 826.96 435.35 793.42 447.72 765.00 468.00 C 755.61 474.38 746.35 481.15 735.96 485.84 C 729.19 487.99 721.65 488.15 714.84 486.05 C 708.80 483.76 702.61 480.02 700.20 473.69 C 695.65 464.04 698.45 453.08 701.63 443.48 C 706.25 431.18 712.41 419.50 719.51 408.47 C 722.58 403.46 726.78 399.00 728.24 393.16 C 713.06 397.30 698.23 402.93 684.32 410.32 C 669.27 418.47 655.05 429.05 645.42 443.41 C 641.87 448.51 640.05 454.61 636.19 459.52 C 634.05 443.50 634.81 426.98 639.24 411.39 C 642.45 396.60 648.33 382.55 655.10 369.07 C 661.55 356.20 667.23 342.51 667.97 327.96 C 668.24 319.97 668.15 311.96 667.98 303.97 C 667.89 298.16 665.62 292.65 665.47 286.83 C 675.36 295.70 682.96 307.23 687.38 319.75 C 692.23 333.17 689.53 347.63 687.70 361.35 C 701.00 349.27 705.27 331.08 710.39 314.59 C 720.95 312.50 731.51 310.44 741.96 307.86 C 748.61 306.08 755.59 306.19 762.25 304.41 C 770.26 302.26 778.71 302.97 786.75 300.95 C 792.71 299.45 798.88 299.38 804.99 299.35 C 811.67 299.37 818.29 298.37 824.96 298.16 C 836.63 297.72 848.31 298.10 859.99 298.06 C 871.36 297.97 882.65 299.53 894.02 299.57 C 901.82 299.49 909.23 302.38 916.97 302.92 C 928.60 303.71 939.67 307.64 951.05 309.87 C 962.15 311.97 972.80 315.81 983.45 319.49 C 993.96 322.94 1004.18 327.21 1014.26 331.75 C 1021.13 334.99 1028.04 338.38 1034.00 343.15 C 1024.10 346.74 1013.30 345.37 1003.25 348.25 C 998.59 349.62 993.73 349.94 988.94 350.52 C 994.17 354.56 1000.48 356.70 1006.31 359.70 C 1037.47 374.93 1066.48 394.18 1093.95 415.29 C 1094.93 416.10 1094.84 417.58 1095.30 418.70 C 1101.59 443.76 1105.98 469.27 1108.90 494.94 C 1109.84 503.62 1110.94 512.30 1111.19 521.03 C 1111.54 531.35 1111.12 541.68 1111.18 552.00 C 1111.05 568.36 1111.67 584.75 1110.61 601.10 C 1107.14 641.91 1099.62 682.44 1087.36 721.55 C 1065.51 792.11 1029.27 858.13 981.61 914.55 C 935.33 969.49 878.35 1015.40 814.70 1048.72 C 777.73 1068.14 738.56 1083.35 698.17 1093.99 C 665.44 1102.73 631.84 1107.92 598.09 1110.64 C 587.23 1111.61 576.27 1109.95 565.47 1111.69 C 560.14 1112.57 554.66 1112.65 549.33 1111.80 C 538.75 1110.07 528.00 1111.28 517.34 1110.66 C 423.36 1104.37 331.30 1073.06 252.59 1021.41 C 201.86 988.14 156.64 946.50 119.27 898.71 C 74.90 842.14 41.68 776.87 22.16 707.68 C 12.28 672.53 5.91 636.41 3.06 600.02 C 2.27 590.38 3.47 580.67 2.23 571.05 C 0.88 563.48 1.28 555.74 1.48 548.10 C 2.61 541.12 3.01 534.05 2.78 526.98 C 2.44 515.90 3.72 504.86 4.90 493.85 C 13.06 421.98 35.31 351.68 70.45 288.43 C 106.95 222.38 157.20 164.04 216.80 117.79 C 303.12 50.55 409.82 9.87 519.03 2.85 C 527.15 2.49 535.29 3.18 543.42 2.59 M 182.07 656.07 C 172.51 663.76 162.57 671.27 154.95 680.99 C 153.08 683.12 154.68 686.02 155.98 688.00 C 161.00 695.12 168.88 699.35 175.98 704.08 C 177.00 691.49 178.09 678.61 183.19 666.91 C 188.07 672.57 192.19 679.01 198.23 683.56 C 198.08 671.97 197.76 659.84 202.71 649.06 C 207.50 653.09 211.43 658.15 216.85 661.39 C 216.50 654.07 212.89 645.51 218.08 639.10 C 227.16 629.89 240.04 626.10 250.10 618.22 C 224.95 625.60 202.52 639.99 182.07 656.07 M 312.92 654.98 C 282.45 664.35 256.31 685.28 238.33 711.37 C 227.61 727.11 216.28 742.46 203.96 756.99 C 192.47 770.47 179.90 783.17 165.46 793.50 C 153.82 801.76 140.97 808.59 127.08 812.14 C 118.54 814.65 109.77 816.58 100.83 816.63 C 104.63 820.87 110.59 821.76 116.00 821.57 C 122.01 821.24 128.19 822.00 134.03 820.21 C 139.30 818.75 144.42 816.43 149.96 816.18 C 151.44 816.34 153.46 815.67 154.52 817.04 C 154.73 820.12 154.09 823.52 151.71 825.70 C 143.85 833.02 132.99 836.32 122.39 836.40 C 122.40 836.95 122.42 838.04 122.42 838.59 C 146.31 840.45 169.19 829.12 186.85 813.82 C 198.80 804.34 207.74 791.76 216.12 779.16 C 227.70 760.87 237.79 741.67 249.49 723.45 C 264.00 699.94 284.07 679.53 308.59 666.51 C 319.38 660.91 330.32 655.23 342.24 652.44 C 344.69 651.69 347.96 651.53 348.98 648.70 C 336.79 649.50 324.53 651.03 312.92 654.98 M 305.64 722.43 C 307.92 728.28 312.03 733.19 314.37 739.01 C 306.02 739.65 298.14 735.85 289.81 735.91 C 291.05 742.25 293.70 748.19 295.33 754.43 C 287.52 750.54 281.06 744.46 273.34 740.42 C 274.10 747.09 277.05 753.56 276.14 760.37 C 274.87 760.39 273.68 760.10 272.57 759.50 C 265.86 756.08 260.67 750.41 254.12 746.74 C 254.98 754.31 255.98 761.89 255.81 769.55 C 285.03 765.95 314.23 754.23 334.71 732.52 C 324.84 729.68 315.11 726.41 305.64 722.43 M 212.67 836.32 C 212.65 839.11 212.76 841.91 212.82 844.71 C 196.44 860.57 179.85 876.20 163.57 892.15 C 171.23 900.57 179.37 908.52 187.13 916.84 C 189.77 920.12 194.37 919.95 198.14 920.86 C 199.46 921.27 200.33 919.90 201.24 919.24 C 214.98 905.98 228.75 892.76 242.55 879.57 C 243.37 878.58 245.02 877.62 244.45 876.11 C 243.65 872.39 244.05 867.85 240.80 865.20 C 231.32 855.67 222.35 845.63 212.67 836.32 M 250.27 875.79 C 250.71 878.56 251.25 881.31 251.75 884.08 C 237.45 901.86 222.89 919.43 208.58 937.20 C 214.29 942.27 220.14 947.22 226.32 951.71 C 225.85 948.82 225.20 945.98 224.63 943.13 C 229.36 937.21 234.09 931.28 239.01 925.50 C 239.77 925.64 241.31 925.90 242.08 926.03 C 239.66 936.77 236.66 947.37 234.05 958.07 C 239.29 962.57 244.66 966.94 250.18 971.11 C 249.76 967.08 247.41 963.05 248.94 959.02 C 251.71 949.63 254.24 940.17 257.06 930.80 C 261.34 931.81 265.54 933.13 269.83 934.07 C 275.64 927.04 281.48 920.04 287.11 912.87 C 285.73 908.85 285.81 903.69 281.89 901.16 C 271.26 892.81 261.08 883.89 250.27 875.79 M 304.85 918.22 C 306.01 921.20 307.30 924.13 308.52 927.09 C 290.18 942.68 271.52 957.89 253.09 973.37 C 259.69 977.67 266.42 981.78 273.15 985.86 C 272.94 983.50 272.67 981.16 272.38 978.82 C 274.31 977.19 276.32 975.65 278.33 974.13 C 283.65 976.94 288.60 980.42 293.78 983.50 C 293.17 988.07 292.07 992.56 291.30 997.12 C 296.95 1000.74 302.57 1004.46 308.52 1007.60 C 307.72 1004.67 306.28 1001.93 305.72 998.95 C 311.68 975.96 318.58 953.21 324.42 930.19 C 317.85 926.28 311.46 922.07 304.85 918.22 M 349.23 950.25 C 347.51 950.37 347.20 952.29 346.51 953.53 C 338.43 971.70 330.00 989.72 322.01 1007.92 C 324.00 1010.89 325.18 1014.65 328.05 1016.89 C 336.38 1020.67 344.68 1024.56 353.12 1028.10 C 356.61 1028.50 360.09 1027.11 363.55 1026.59 C 366.32 1020.70 368.93 1014.75 371.60 1008.82 C 367.62 1004.70 363.69 1000.50 359.24 996.89 C 356.40 1002.96 353.78 1009.12 350.86 1015.16 C 346.79 1013.52 342.82 1011.66 338.87 1009.77 C 345.84 993.76 353.30 977.96 360.40 962.00 C 364.54 963.42 368.42 965.47 372.43 967.21 C 371.17 971.92 367.90 975.96 367.08 980.75 C 370.83 984.81 374.86 988.62 378.96 992.34 C 382.61 984.66 386.20 976.95 389.49 969.11 C 387.54 966.21 386.33 962.64 383.65 960.35 C 375.96 956.62 368.06 953.34 360.32 949.73 C 356.82 947.84 352.86 949.71 349.23 950.25 M 407.92 969.99 C 409.79 972.61 411.82 975.13 413.69 977.76 C 399.88 997.46 385.71 1016.90 372.03 1036.68 C 379.52 1038.88 386.92 1041.38 394.46 1043.41 C 393.75 1041.25 392.81 1039.18 392.20 1037.00 C 393.08 1034.50 395.25 1032.72 396.95 1030.78 C 402.65 1032.48 408.39 1034.10 414.02 1036.05 C 414.42 1040.64 414.51 1045.25 415.00 1049.84 C 421.44 1051.77 427.81 1053.95 434.35 1055.52 C 432.80 1052.85 430.61 1050.59 429.28 1047.82 C 429.14 1024.03 430.02 1000.23 429.83 976.44 C 422.49 974.41 415.26 972.00 407.92 969.99 M 452.49 983.69 C 454.16 985.96 455.98 988.13 457.75 990.34 C 455.58 1003.53 453.27 1016.71 451.05 1029.89 C 449.65 1039.28 447.44 1048.57 446.56 1058.02 C 454.01 1059.04 461.36 1060.67 468.83 1061.55 C 467.01 1059.20 465.01 1057.02 463.09 1054.77 C 464.46 1047.23 465.44 1039.61 467.19 1032.15 C 468.42 1032.02 470.49 1031.16 470.63 1033.18 C 473.36 1043.26 476.03 1053.35 478.75 1063.44 C 485.53 1064.84 492.38 1065.89 499.23 1066.95 C 496.89 1063.60 492.93 1061.18 492.20 1056.93 C 489.95 1047.47 487.69 1038.02 485.29 1028.61 C 489.43 1026.90 493.92 1026.30 498.16 1024.88 C 499.78 1015.89 501.28 1006.88 502.74 997.87 C 499.65 995.22 497.35 990.85 492.95 990.38 C 479.45 988.24 466.01 985.67 452.49 983.69 M 608.20 992.20 C 604.87 993.58 602.63 996.79 599.97 999.16 C 601.36 1008.27 602.20 1017.49 604.12 1026.50 C 614.28 1029.09 624.40 1031.86 634.55 1034.51 C 635.54 1040.33 636.40 1046.18 637.02 1052.06 C 632.71 1052.82 628.36 1053.40 624.03 1054.02 C 623.06 1049.24 622.65 1044.37 621.73 1039.59 C 616.19 1038.47 610.67 1037.21 605.11 1036.17 C 606.31 1044.54 607.36 1052.96 608.86 1061.29 C 611.39 1063.58 614.83 1064.94 618.06 1066.05 C 627.33 1064.97 636.58 1063.54 645.81 1062.07 C 648.87 1060.42 651.59 1057.70 653.73 1054.96 C 652.81 1045.99 651.24 1037.07 650.04 1028.13 C 639.84 1024.99 629.45 1022.51 619.17 1019.67 C 618.11 1013.84 617.31 1007.96 616.67 1002.07 C 621.02 1001.38 625.37 1000.71 629.75 1000.18 C 630.64 1004.94 630.95 1009.79 632.10 1014.50 C 637.64 1015.58 643.15 1016.83 648.72 1017.82 C 647.62 1009.42 646.36 1001.05 645.16 992.67 C 642.10 991.07 639.13 989.13 635.77 988.26 C 626.56 989.31 617.37 990.79 608.20 992.20 M 505.89 993.12 C 507.98 995.11 510.07 997.09 512.17 999.08 C 511.41 1021.84 510.31 1044.60 509.32 1067.36 C 516.72 1068.20 524.21 1068.24 531.65 1068.41 C 529.88 1066.43 527.84 1064.73 526.15 1062.70 C 525.44 1061.25 525.93 1059.57 525.87 1058.05 C 526.31 1049.99 526.44 1041.92 527.03 1033.87 C 531.96 1041.35 536.53 1049.06 541.39 1056.59 C 544.20 1060.12 542.51 1064.83 542.76 1068.95 C 550.53 1069.34 558.30 1069.69 566.08 1069.91 C 563.74 1067.88 561.37 1065.90 559.06 1063.85 C 559.82 1041.03 561.50 1018.23 561.97 995.41 C 554.38 995.10 546.79 994.85 539.21 994.42 C 541.38 996.39 543.47 998.44 545.64 1000.42 C 545.61 1005.20 545.42 1009.99 544.94 1014.76 C 540.46 1008.17 536.94 1000.99 532.74 994.23 C 523.80 993.81 514.84 993.44 505.89 993.12 M 566.43 995.02 C 568.51 996.84 570.69 998.56 572.89 1000.24 C 574.28 1023.03 575.35 1045.85 576.57 1068.65 C 584.11 1068.44 591.64 1067.95 599.18 1067.61 C 597.09 1065.47 593.89 1064.19 592.44 1061.62 C 591.02 1039.06 590.04 1016.46 588.76 993.90 C 581.31 994.06 573.86 994.42 566.43 995.02 Z" />
<path fill="#ae0c17" opacity="1.00" d=" M 563.40 320.41 C 582.56 299.88 604.10 281.46 627.89 266.49 C 628.94 267.42 630.00 268.35 631.07 269.29 C 588.84 299.98 554.76 340.18 523.80 381.83 C 511.32 397.89 501.97 416.21 488.41 431.45 C 477.42 443.97 462.68 453.21 446.54 457.39 C 431.94 461.24 416.49 460.33 401.89 457.00 C 386.82 453.68 372.20 448.44 356.96 445.88 C 351.03 444.85 345.65 448.09 340.09 449.48 C 342.88 444.09 348.41 440.67 354.11 439.06 C 361.21 437.05 368.79 437.94 375.74 440.13 C 395.71 446.47 417.11 450.67 438.02 446.86 C 452.10 444.32 465.29 437.53 475.65 427.67 C 483.36 420.62 489.77 412.31 495.80 403.83 C 517.39 375.29 538.72 346.41 563.40 320.41 Z" />
<path fill="#ae0c17" opacity="1.00" d=" M 480.32 329.54 C 481.01 327.99 481.42 325.96 483.20 325.28 C 484.59 345.03 484.38 365.36 478.10 384.33 C 473.41 399.19 465.45 413.29 453.86 423.85 C 452.00 425.61 449.51 426.78 446.92 426.05 C 447.22 422.18 449.26 418.77 450.08 415.02 C 448.35 414.33 446.48 414.23 444.72 414.89 C 431.83 418.73 419.17 423.73 405.75 425.47 C 401.39 426.06 396.11 426.07 393.26 422.11 C 402.48 399.10 423.61 382.99 446.14 374.12 C 457.98 369.91 465.51 358.99 471.51 348.56 C 474.97 342.47 477.94 336.12 480.32 329.54 Z" />
<path fill="#ae0c17" opacity="1.00" d=" M 837.22 494.23 C 838.75 492.78 840.42 491.49 842.13 490.24 C 829.74 509.00 814.83 526.33 805.51 546.97 C 821.05 548.45 837.96 550.12 850.34 560.66 C 859.40 567.91 861.68 580.23 869.77 588.24 C 876.88 594.33 887.07 593.25 895.58 591.41 C 905.87 589.52 915.13 584.46 924.88 580.95 C 917.78 586.25 909.64 589.88 901.67 593.66 C 893.90 597.09 885.62 600.58 876.94 599.78 C 868.89 599.08 862.06 593.90 857.51 587.47 C 852.13 579.97 845.92 572.61 837.26 568.83 C 822.21 562.11 804.91 560.48 788.80 563.82 C 789.99 551.25 797.32 540.45 804.45 530.44 C 814.04 517.23 825.68 505.72 837.22 494.23 Z" />
<path fill="#ae0c17" opacity="1.00" d=" M 645.43 507.48 C 652.36 503.52 659.81 499.04 668.11 499.72 C 665.99 512.84 666.03 526.44 669.85 539.27 C 673.46 551.98 681.57 562.83 685.44 575.44 C 688.23 586.45 686.86 598.88 680.43 608.42 C 675.49 615.96 669.19 622.47 663.07 629.05 C 659.90 632.32 656.80 635.77 652.94 638.24 C 660.44 627.96 669.55 618.65 674.82 606.88 C 678.85 598.86 680.01 588.66 675.37 580.64 C 671.34 573.78 665.84 567.85 662.38 560.64 C 655.78 546.47 651.89 530.85 652.47 515.15 C 631.65 524.30 613.88 538.75 594.99 551.13 C 596.22 549.35 597.61 547.67 599.14 546.14 C 613.39 531.94 628.11 517.90 645.43 507.48 Z" />
<path fill="#ae0c17" opacity="1.00" d=" M 789.09 523.04 C 791.94 519.33 794.61 515.45 797.95 512.15 C 787.40 532.63 775.14 552.46 768.11 574.54 C 783.91 573.52 801.22 572.83 815.05 581.90 C 824.62 587.71 828.50 599.06 837.03 605.94 C 843.98 610.96 853.00 609.25 861.01 609.51 C 874.53 609.99 887.82 607.14 901.16 605.42 C 897.14 607.55 892.62 608.39 888.24 609.39 C 877.55 611.72 866.89 614.26 856.09 616.01 C 848.07 617.24 839.08 617.71 832.03 613.00 C 825.06 608.04 819.85 600.99 812.69 596.26 C 807.47 592.71 801.22 591.15 795.12 589.90 C 781.46 587.25 767.26 588.72 754.09 593.04 C 754.00 578.79 760.63 565.72 767.78 553.79 C 774.05 542.99 781.54 532.96 789.09 523.04 Z" />
<path fill="#ae0c17" opacity="1.00" d=" M 213.88 542.94 C 221.53 540.23 229.33 537.90 237.23 536.02 C 228.59 544.87 214.20 544.47 206.13 554.10 C 191.40 571.43 169.72 580.17 152.59 594.63 C 147.15 599.08 142.82 604.85 136.75 608.54 C 136.95 605.42 137.00 602.17 138.35 599.29 C 139.49 596.88 141.84 595.42 143.85 593.82 C 160.23 581.28 178.80 571.89 194.72 558.73 C 201.09 553.47 205.76 545.78 213.88 542.94 Z" />
<path fill="#ae0c17" opacity="1.00" d=" M 753.37 553.40 C 755.63 550.29 757.95 547.15 760.98 544.74 C 751.68 564.51 739.37 583.04 733.22 604.19 C 742.18 603.94 751.02 602.14 760.00 602.24 C 775.73 601.96 791.66 606.31 804.65 615.30 C 813.50 621.21 821.78 629.58 833.00 630.27 C 846.87 630.91 860.86 630.59 874.59 628.26 C 878.80 627.65 882.97 626.74 887.21 626.34 C 882.09 629.61 875.82 629.80 870.09 631.34 C 858.16 633.74 846.29 637.02 834.08 637.65 C 820.24 638.46 807.35 632.47 795.06 626.88 C 785.56 622.50 776.09 617.83 765.92 615.20 C 750.23 612.16 734.49 616.98 719.95 622.54 C 718.04 618.74 719.61 614.44 720.42 610.55 C 726.46 589.07 740.40 571.13 753.37 553.40 Z" />
<path fill="#ae0c17" opacity="1.00" d=" M 108.03 593.16 C 112.05 589.41 116.74 586.22 122.05 584.63 C 126.16 584.81 129.97 586.74 133.66 588.42 C 134.28 590.09 132.93 591.87 132.71 593.57 C 129.50 605.72 134.32 618.09 133.12 630.36 C 129.88 626.61 127.91 622.00 124.87 618.11 C 120.50 612.21 114.91 607.43 109.65 602.36 C 106.91 600.12 108.17 596.21 108.03 593.16 Z" />
<path fill="#ae0c17" opacity="1.00" d=" M 210.42 869.41 C 213.86 866.27 216.94 862.72 220.67 859.92 C 223.61 863.07 226.63 866.15 229.56 869.31 C 217.17 881.69 204.33 893.62 191.74 905.79 C 188.61 902.66 185.48 899.53 182.64 896.14 C 191.81 887.14 201.18 878.34 210.42 869.41 Z" />
<path fill="#ae0c17" opacity="1.00" d=" M 246.43 916.25 C 251.25 910.24 256.05 904.21 261.06 898.35 C 264.50 901.10 268.14 903.65 271.20 906.84 C 267.47 911.28 263.98 915.93 260.06 920.21 C 255.48 919.02 250.92 917.75 246.43 916.25 Z" />
<path fill="#ae0c17" opacity="1.00" d=" M 285.87 967.76 C 291.09 962.71 296.63 958.01 302.05 953.19 C 300.44 960.22 298.55 967.20 296.79 974.20 C 292.85 972.60 289.46 969.98 285.87 967.76 Z" />
<path fill="#ae0c17" opacity="1.00" d=" M 473.12 998.07 C 477.39 998.78 481.67 999.50 485.94 1000.26 C 484.99 1006.09 484.08 1011.94 482.83 1017.72 C 478.21 1018.79 473.60 1019.92 468.97 1020.92 C 470.50 1013.32 471.33 1005.60 473.12 998.07 Z" />
<path fill="#ae0c17" opacity="1.00" d=" M 402.06 1022.72 C 405.95 1016.75 409.64 1010.63 414.03 1005.02 C 414.42 1012.14 414.29 1019.28 414.27 1026.42 C 410.16 1025.30 406.12 1023.99 402.06 1022.72 Z" />
</g>
<g id="#ffffffff">
<path fill="#ffffff" opacity="1.00" d=" M 627.18 83.16 C 628.87 79.19 628.72 73.89 633.01 71.60 C 636.57 77.88 635.43 85.31 636.91 92.12 C 638.84 101.96 639.22 112.03 638.87 122.02 C 638.49 136.36 639.70 150.77 637.84 165.05 C 636.03 176.09 635.05 187.28 632.33 198.16 C 631.19 204.31 628.76 210.24 628.63 216.55 C 632.37 216.41 635.58 214.32 638.95 212.93 C 656.55 205.23 674.83 199.14 693.39 194.19 C 704.53 191.37 715.62 188.22 727.07 186.92 C 736.28 184.34 745.88 183.97 755.24 182.11 C 765.41 180.61 775.73 180.64 785.99 180.36 C 804.67 180.41 823.35 180.14 842.02 180.67 C 848.50 180.82 854.98 181.39 861.32 182.82 C 868.72 184.53 876.44 184.19 883.82 186.07 C 890.75 187.91 898.06 187.73 904.92 189.91 C 915.09 192.96 925.65 194.55 935.67 198.12 C 941.62 200.38 948.23 201.10 953.54 204.86 C 947.99 206.13 942.26 206.35 936.72 207.66 C 928.88 209.46 920.75 209.12 912.89 210.75 C 901.67 213.38 890.15 214.68 879.08 218.00 C 872.85 219.93 866.13 220.61 860.52 224.19 C 870.13 227.68 880.56 227.04 890.42 229.39 C 903.18 232.31 916.18 234.07 928.94 236.95 C 951.78 242.87 973.75 251.55 995.59 260.38 C 1011.07 266.62 1025.29 275.44 1040.02 283.20 C 1061.40 319.54 1077.60 358.87 1089.62 399.26 C 1091.11 404.58 1092.84 409.86 1093.95 415.29 C 1066.48 394.18 1037.47 374.93 1006.31 359.70 C 1000.48 356.70 994.17 354.56 988.94 350.52 C 993.73 349.94 998.59 349.62 1003.25 348.25 C 1013.30 345.37 1024.10 346.74 1034.00 343.15 C 1028.04 338.38 1021.13 334.99 1014.26 331.75 C 1004.18 327.21 993.96 322.94 983.45 319.49 C 972.80 315.81 962.15 311.97 951.05 309.87 C 939.67 307.64 928.60 303.71 916.97 302.92 C 909.23 302.38 901.82 299.49 894.02 299.57 C 882.65 299.53 871.36 297.97 859.99 298.06 C 848.31 298.10 836.63 297.72 824.96 298.16 C 818.29 298.37 811.67 299.37 804.99 299.35 C 798.88 299.38 792.71 299.45 786.75 300.95 C 778.71 302.97 770.26 302.26 762.25 304.41 C 755.59 306.19 748.61 306.08 741.96 307.86 C 731.51 310.44 720.95 312.50 710.39 314.59 C 705.27 331.08 701.00 349.27 687.70 361.35 C 689.53 347.63 692.23 333.17 687.38 319.75 C 682.96 307.23 675.36 295.70 665.47 286.83 C 665.62 292.65 667.89 298.16 667.98 303.97 C 668.15 311.96 668.24 319.97 667.97 327.96 C 667.23 342.51 661.55 356.20 655.10 369.07 C 648.33 382.55 642.45 396.60 639.24 411.39 C 634.81 426.98 634.05 443.50 636.19 459.52 C 640.05 454.61 641.87 448.51 645.42 443.41 C 655.05 429.05 669.27 418.47 684.32 410.32 C 698.23 402.93 713.06 397.30 728.24 393.16 C 726.78 399.00 722.58 403.46 719.51 408.47 C 712.41 419.50 706.25 431.18 701.63 443.48 C 698.45 453.08 695.65 464.04 700.20 473.69 C 702.61 480.02 708.80 483.76 714.84 486.05 C 721.65 488.15 729.19 487.99 735.96 485.84 C 746.35 481.15 755.61 474.38 765.00 468.00 C 793.42 447.72 826.96 435.35 861.25 429.56 C 869.17 428.91 877.09 428.10 885.04 427.70 C 893.43 427.20 901.73 428.76 910.10 429.12 C 920.10 429.48 929.55 433.07 938.95 436.16 C 955.38 442.06 971.72 451.13 981.52 466.05 C 973.05 466.50 965.09 463.17 956.81 462.14 C 949.22 461.72 941.60 461.86 934.00 461.84 C 928.18 461.97 922.31 461.69 916.57 462.84 C 901.68 465.78 886.99 470.74 874.36 479.34 C 859.68 488.98 847.13 501.65 836.90 515.88 C 832.02 522.61 827.11 529.49 824.29 537.39 C 835.40 537.80 846.58 536.65 857.64 538.24 C 863.66 539.30 869.59 540.84 875.49 542.42 C 903.01 549.67 928.08 564.85 948.67 584.32 C 976.58 610.73 995.47 646.40 1001.94 684.25 C 1003.35 692.08 1003.56 700.05 1003.94 707.98 C 1004.22 720.64 1004.08 733.35 1002.75 745.95 C 999.59 767.01 994.05 787.70 986.58 807.63 C 974.76 836.60 959.30 864.23 939.66 888.65 C 929.54 901.11 919.05 913.33 907.32 924.32 C 892.78 937.90 877.66 950.91 861.38 962.36 C 835.04 981.48 806.50 997.35 777.07 1011.13 C 757.46 1019.48 737.78 1027.74 717.51 1034.37 C 708.76 1036.64 700.38 1040.53 691.31 1041.45 C 695.69 1036.19 702.47 1034.31 708.36 1031.35 C 738.46 1014.92 766.73 995.15 792.62 972.66 C 819.23 949.82 842.65 923.25 861.88 893.92 C 876.99 869.15 888.89 841.92 892.97 813.00 C 895.99 798.54 896.07 783.61 893.98 769.01 C 892.06 756.96 890.93 744.66 886.63 733.14 C 883.18 723.86 880.35 714.27 875.49 705.59 C 867.28 690.19 856.81 675.86 843.67 664.30 C 823.57 646.56 798.44 634.45 771.99 630.00 C 762.33 626.62 752.04 627.80 742.03 627.11 C 733.69 626.79 725.36 627.53 717.02 627.54 C 708.40 627.36 700.34 630.81 691.92 632.07 C 680.04 635.00 668.80 640.16 658.17 646.14 C 649.81 650.83 643.40 658.05 636.28 664.30 C 637.28 654.01 641.16 644.24 642.30 633.97 C 643.98 614.64 645.54 595.15 643.15 575.80 C 642.23 569.35 643.13 562.52 640.32 556.45 C 637.28 573.69 636.05 591.36 630.77 608.15 C 629.30 604.59 627.90 600.98 625.88 597.69 C 624.43 603.22 624.33 608.96 623.37 614.58 C 619.76 633.43 607.72 648.99 598.23 665.20 C 589.03 680.59 574.79 691.85 561.60 703.62 C 556.01 708.53 549.43 712.08 543.45 716.47 C 529.76 725.96 515.32 734.46 499.97 740.95 C 491.03 744.88 482.52 749.71 473.53 753.53 C 464.58 757.36 455.42 760.66 446.41 764.35 C 430.49 770.91 413.63 775.24 398.44 783.52 C 389.41 788.89 383.96 798.38 379.64 807.64 C 375.57 816.46 375.93 826.37 375.85 835.86 C 371.24 836.10 366.63 836.30 362.02 836.22 C 346.87 836.16 332.01 832.28 317.85 827.18 C 301.45 821.12 286.09 811.70 274.27 798.71 C 268.80 792.73 264.36 785.93 259.68 779.35 C 258.50 777.78 257.99 775.86 257.49 774.01 C 260.53 772.73 263.69 771.77 266.93 771.18 C 280.50 768.69 293.44 763.63 305.95 757.92 C 319.93 751.97 332.11 742.48 343.07 732.08 C 356.07 719.08 369.27 706.25 381.71 692.70 C 389.27 684.49 394.40 674.24 402.90 666.87 C 412.50 658.51 421.80 649.80 430.93 640.92 C 435.20 636.85 439.24 632.53 443.83 628.82 C 453.97 620.49 464.93 613.26 475.42 605.39 C 481.00 601.21 486.97 597.56 492.96 593.99 C 505.42 586.69 517.34 578.52 529.04 570.07 C 544.82 558.44 560.03 545.51 571.40 529.40 C 579.71 517.68 585.99 504.21 587.69 489.83 C 584.52 494.42 582.26 499.55 579.19 504.19 C 570.02 518.32 558.17 530.63 544.75 540.77 C 529.10 552.50 511.02 560.28 493.39 568.48 C 488.51 570.68 483.81 573.31 478.70 574.93 C 459.11 581.29 438.39 582.86 417.93 583.42 C 392.62 584.73 367.22 583.21 341.96 585.57 C 323.22 587.35 305.65 594.52 287.72 599.77 C 277.51 602.87 266.90 604.38 256.76 607.76 C 219.93 619.29 187.35 641.33 158.57 666.60 C 153.54 670.98 148.93 675.89 143.30 679.51 C 131.56 654.94 117.07 630.72 95.37 613.67 C 88.23 608.27 85.19 598.43 87.82 589.92 C 89.12 585.67 92.50 582.60 95.42 579.44 C 107.01 567.16 119.89 555.78 134.98 547.98 C 142.11 544.17 149.87 541.76 157.06 538.11 C 167.59 532.81 177.48 526.18 186.13 518.16 C 189.21 515.48 192.02 512.02 196.14 510.99 C 203.90 509.83 211.14 514.62 218.90 513.72 C 223.27 513.14 227.42 510.37 229.28 506.32 C 231.58 501.46 231.72 495.88 234.15 491.07 C 235.44 488.48 237.82 486.73 240.10 485.08 C 246.31 480.66 252.81 476.60 258.60 471.62 C 263.68 467.37 268.18 462.51 272.81 457.81 C 275.85 454.79 279.07 451.54 283.40 450.57 C 289.19 448.97 295.38 450.62 301.13 448.99 C 306.35 445.84 311.12 441.56 314.38 436.37 C 317.04 430.53 319.56 423.96 318.36 417.46 C 315.97 409.05 307.30 405.32 300.05 401.98 C 300.09 396.24 299.24 390.31 300.88 384.72 C 304.21 376.73 309.72 369.85 315.74 363.72 C 319.52 359.92 321.27 354.74 322.92 349.78 C 328.03 334.46 332.10 318.78 334.95 302.88 C 335.94 297.45 335.73 291.81 337.47 286.52 C 340.56 296.49 341.92 307.24 347.67 316.17 C 354.14 297.09 358.15 277.30 362.12 257.58 C 365.86 263.77 366.90 271.03 367.75 278.08 C 375.04 263.16 380.54 246.76 392.24 234.54 C 390.33 246.57 386.62 259.22 391.15 271.14 C 404.84 260.68 417.43 248.79 428.80 235.85 C 424.91 248.11 420.17 260.08 415.57 272.10 C 429.28 266.26 441.36 257.26 452.68 247.70 C 467.77 234.72 480.87 219.54 492.19 203.20 C 500.33 191.76 506.98 179.38 513.87 167.18 C 515.73 172.86 515.55 178.95 514.41 184.75 C 511.85 198.47 506.79 211.56 501.34 224.35 C 494.64 240.10 486.20 255.01 478.77 270.41 C 490.44 262.80 501.11 253.74 511.76 244.77 C 537.28 222.60 560.68 197.85 580.34 170.32 C 599.59 143.43 615.49 114.10 627.18 83.16 M 563.40 320.41 C 538.72 346.41 517.39 375.29 495.80 403.83 C 489.77 412.31 483.36 420.62 475.65 427.67 C 465.29 437.53 452.10 444.32 438.02 446.86 C 417.11 450.67 395.71 446.47 375.74 440.13 C 368.79 437.94 361.21 437.05 354.11 439.06 C 348.41 440.67 342.88 444.09 340.09 449.48 C 345.65 448.09 351.03 444.85 356.96 445.88 C 372.20 448.44 386.82 453.68 401.89 457.00 C 416.49 460.33 431.94 461.24 446.54 457.39 C 462.68 453.21 477.42 443.97 488.41 431.45 C 501.97 416.21 511.32 397.89 523.80 381.83 C 554.76 340.18 588.84 299.98 631.07 269.29 C 630.00 268.35 628.94 267.42 627.89 266.49 C 604.10 281.46 582.56 299.88 563.40 320.41 M 480.32 329.54 C 477.94 336.12 474.97 342.47 471.51 348.56 C 465.51 358.99 457.98 369.91 446.14 374.12 C 423.61 382.99 402.48 399.10 393.26 422.11 C 396.11 426.07 401.39 426.06 405.75 425.47 C 419.17 423.73 431.83 418.73 444.72 414.89 C 446.48 414.23 448.35 414.33 450.08 415.02 C 449.26 418.77 447.22 422.18 446.92 426.05 C 449.51 426.78 452.00 425.61 453.86 423.85 C 465.45 413.29 473.41 399.19 478.10 384.33 C 484.38 365.36 484.59 345.03 483.20 325.28 C 481.42 325.96 481.01 327.99 480.32 329.54 M 837.22 494.23 C 825.68 505.72 814.04 517.23 804.45 530.44 C 797.32 540.45 789.99 551.25 788.80 563.82 C 804.91 560.48 822.21 562.11 837.26 568.83 C 845.92 572.61 852.13 579.97 857.51 587.47 C 862.06 593.90 868.89 599.08 876.94 599.78 C 885.62 600.58 893.90 597.09 901.67 593.66 C 909.64 589.88 917.78 586.25 924.88 580.95 C 915.13 584.46 905.87 589.52 895.58 591.41 C 887.07 593.25 876.88 594.33 869.77 588.24 C 861.68 580.23 859.40 567.91 850.34 560.66 C 837.96 550.12 821.05 548.45 805.51 546.97 C 814.83 526.33 829.74 509.00 842.13 490.24 C 840.42 491.49 838.75 492.78 837.22 494.23 M 645.43 507.48 C 628.11 517.90 613.39 531.94 599.14 546.14 C 597.61 547.67 596.22 549.35 594.99 551.13 C 613.88 538.75 631.65 524.30 652.47 515.15 C 651.89 530.85 655.78 546.47 662.38 560.64 C 665.84 567.85 671.34 573.78 675.37 580.64 C 680.01 588.66 678.85 598.86 674.82 606.88 C 669.55 618.65 660.44 627.96 652.94 638.24 C 656.80 635.77 659.90 632.32 663.07 629.05 C 669.19 622.47 675.49 615.96 680.43 608.42 C 686.86 598.88 688.23 586.45 685.44 575.44 C 681.57 562.83 673.46 551.98 669.85 539.27 C 666.03 526.44 665.99 512.84 668.11 499.72 C 659.81 499.04 652.36 503.52 645.43 507.48 M 789.09 523.04 C 781.54 532.96 774.05 542.99 767.78 553.79 C 760.63 565.72 754.00 578.79 754.09 593.04 C 767.26 588.72 781.46 587.25 795.12 589.90 C 801.22 591.15 807.47 592.71 812.69 596.26 C 819.85 600.99 825.06 608.04 832.03 613.00 C 839.08 617.71 848.07 617.24 856.09 616.01 C 866.89 614.26 877.55 611.72 888.24 609.39 C 892.62 608.39 897.14 607.55 901.16 605.42 C 887.82 607.14 874.53 609.99 861.01 609.51 C 853.00 609.25 843.98 610.96 837.03 605.94 C 828.50 599.06 824.62 587.71 815.05 581.90 C 801.22 572.83 783.91 573.52 768.11 574.54 C 775.14 552.46 787.40 532.63 797.95 512.15 C 794.61 515.45 791.94 519.33 789.09 523.04 M 213.88 542.94 C 205.76 545.78 201.09 553.47 194.72 558.73 C 178.80 571.89 160.23 581.28 143.85 593.82 C 141.84 595.42 139.49 596.88 138.35 599.29 C 137.00 602.17 136.95 605.42 136.75 608.54 C 142.82 604.85 147.15 599.08 152.59 594.63 C 169.72 580.17 191.40 571.43 206.13 554.10 C 214.20 544.47 228.59 544.87 237.23 536.02 C 229.33 537.90 221.53 540.23 213.88 542.94 M 753.37 553.40 C 740.40 571.13 726.46 589.07 720.42 610.55 C 719.61 614.44 718.04 618.74 719.95 622.54 C 734.49 616.98 750.23 612.16 765.92 615.20 C 776.09 617.83 785.56 622.50 795.06 626.88 C 807.35 632.47 820.24 638.46 834.08 637.65 C 846.29 637.02 858.16 633.74 870.09 631.34 C 875.82 629.80 882.09 629.61 887.21 626.34 C 882.97 626.74 878.80 627.65 874.59 628.26 C 860.86 630.59 846.87 630.91 833.00 630.27 C 821.78 629.58 813.50 621.21 804.65 615.30 C 791.66 606.31 775.73 601.96 760.00 602.24 C 751.02 602.14 742.18 603.94 733.22 604.19 C 739.37 583.04 751.68 564.51 760.98 544.74 C 757.95 547.15 755.63 550.29 753.37 553.40 M 108.03 593.16 C 108.17 596.21 106.91 600.12 109.65 602.36 C 114.91 607.43 120.50 612.21 124.87 618.11 C 127.91 622.00 129.88 626.61 133.12 630.36 C 134.32 618.09 129.50 605.72 132.71 593.57 C 132.93 591.87 134.28 590.09 133.66 588.42 C 129.97 586.74 126.16 584.81 122.05 584.63 C 116.74 586.22 112.05 589.41 108.03 593.16 Z" />
<path fill="#ffffff" opacity="1.00" d=" M 182.07 656.07 C 202.52 639.99 224.95 625.60 250.10 618.22 C 240.04 626.10 227.16 629.89 218.08 639.10 C 212.89 645.51 216.50 654.07 216.85 661.39 C 211.43 658.15 207.50 653.09 202.71 649.06 C 197.76 659.84 198.08 671.97 198.23 683.56 C 192.19 679.01 188.07 672.57 183.19 666.91 C 178.09 678.61 177.00 691.49 175.98 704.08 C 168.88 699.35 161.00 695.12 155.98 688.00 C 154.68 686.02 153.08 683.12 154.95 680.99 C 162.57 671.27 172.51 663.76 182.07 656.07 Z" />
<path fill="#ffffff" opacity="1.00" d=" M 312.92 654.98 C 324.53 651.03 336.79 649.50 348.98 648.70 C 347.96 651.53 344.69 651.69 342.24 652.44 C 330.32 655.23 319.38 660.91 308.59 666.51 C 284.07 679.53 264.00 699.94 249.49 723.45 C 237.79 741.67 227.70 760.87 216.12 779.16 C 207.74 791.76 198.80 804.34 186.85 813.82 C 169.19 829.12 146.31 840.45 122.42 838.59 C 122.42 838.04 122.40 836.95 122.39 836.40 C 132.99 836.32 143.85 833.02 151.71 825.70 C 154.09 823.52 154.73 820.12 154.52 817.04 C 153.46 815.67 151.44 816.34 149.96 816.18 C 144.42 816.43 139.30 818.75 134.03 820.21 C 128.19 822.00 122.01 821.24 116.00 821.57 C 110.59 821.76 104.63 820.87 100.83 816.63 C 109.77 816.58 118.54 814.65 127.08 812.14 C 140.97 808.59 153.82 801.76 165.46 793.50 C 179.90 783.17 192.47 770.47 203.96 756.99 C 216.28 742.46 227.61 727.11 238.33 711.37 C 256.31 685.28 282.45 664.35 312.92 654.98 Z" />
<path fill="#ffffff" opacity="1.00" d=" M 305.64 722.43 C 315.11 726.41 324.84 729.68 334.71 732.52 C 314.23 754.23 285.03 765.95 255.81 769.55 C 255.98 761.89 254.98 754.31 254.12 746.74 C 260.67 750.41 265.86 756.08 272.57 759.50 C 273.68 760.10 274.87 760.39 276.14 760.37 C 277.05 753.56 274.10 747.09 273.34 740.42 C 281.06 744.46 287.52 750.54 295.33 754.43 C 293.70 748.19 291.05 742.25 289.81 735.91 C 298.14 735.85 306.02 739.65 314.37 739.01 C 312.03 733.19 307.92 728.28 305.64 722.43 Z" />
<path fill="#ffffff" opacity="1.00" d=" M 212.67 836.32 C 222.35 845.63 231.32 855.67 240.80 865.20 C 244.05 867.85 243.65 872.39 244.45 876.11 C 245.02 877.62 243.37 878.58 242.55 879.57 C 228.75 892.76 214.98 905.98 201.24 919.24 C 200.33 919.90 199.46 921.27 198.14 920.86 C 194.37 919.95 189.77 920.12 187.13 916.84 C 179.37 908.52 171.23 900.57 163.57 892.15 C 179.85 876.20 196.44 860.57 212.82 844.71 C 212.76 841.91 212.65 839.11 212.67 836.32 M 210.42 869.41 C 201.18 878.34 191.81 887.14 182.64 896.14 C 185.48 899.53 188.61 902.66 191.74 905.79 C 204.33 893.62 217.17 881.69 229.56 869.31 C 226.63 866.15 223.61 863.07 220.67 859.92 C 216.94 862.72 213.86 866.27 210.42 869.41 Z" />
<path fill="#ffffff" opacity="1.00" d=" M 250.27 875.79 C 261.08 883.89 271.26 892.81 281.89 901.16 C 285.81 903.69 285.73 908.85 287.11 912.87 C 281.48 920.04 275.64 927.04 269.83 934.07 C 265.54 933.13 261.34 931.81 257.06 930.80 C 254.24 940.17 251.71 949.63 248.94 959.02 C 247.41 963.05 249.76 967.08 250.18 971.11 C 244.66 966.94 239.29 962.57 234.05 958.07 C 236.66 947.37 239.66 936.77 242.08 926.03 C 241.31 925.90 239.77 925.64 239.01 925.50 C 234.09 931.28 229.36 937.21 224.63 943.13 C 225.20 945.98 225.85 948.82 226.32 951.71 C 220.14 947.22 214.29 942.27 208.58 937.20 C 222.89 919.43 237.45 901.86 251.75 884.08 C 251.25 881.31 250.71 878.56 250.27 875.79 M 246.43 916.25 C 250.92 917.75 255.48 919.02 260.06 920.21 C 263.98 915.93 267.47 911.28 271.20 906.84 C 268.14 903.65 264.50 901.10 261.06 898.35 C 256.05 904.21 251.25 910.24 246.43 916.25 Z" />
<path fill="#ffffff" opacity="1.00" d=" M 304.85 918.22 C 311.46 922.07 317.85 926.28 324.42 930.19 C 318.58 953.21 311.68 975.96 305.72 998.95 C 306.28 1001.93 307.72 1004.67 308.52 1007.60 C 302.57 1004.46 296.95 1000.74 291.30 997.12 C 292.07 992.56 293.17 988.07 293.78 983.50 C 288.60 980.42 283.65 976.94 278.33 974.13 C 276.32 975.65 274.31 977.19 272.38 978.82 C 272.67 981.16 272.94 983.50 273.15 985.86 C 266.42 981.78 259.69 977.67 253.09 973.37 C 271.52 957.89 290.18 942.68 308.52 927.09 C 307.30 924.13 306.01 921.20 304.85 918.22 M 285.87 967.76 C 289.46 969.98 292.85 972.60 296.79 974.20 C 298.55 967.20 300.44 960.22 302.05 953.19 C 296.63 958.01 291.09 962.71 285.87 967.76 Z" />
<path fill="#ffffff" opacity="1.00" d=" M 349.23 950.25 C 352.86 949.71 356.82 947.84 360.32 949.73 C 368.06 953.34 375.96 956.62 383.65 960.35 C 386.33 962.64 387.54 966.21 389.49 969.11 C 386.20 976.95 382.61 984.66 378.96 992.34 C 374.86 988.62 370.83 984.81 367.08 980.75 C 367.90 975.96 371.17 971.92 372.43 967.21 C 368.42 965.47 364.54 963.42 360.40 962.00 C 353.30 977.96 345.84 993.76 338.87 1009.77 C 342.82 1011.66 346.79 1013.52 350.86 1015.16 C 353.78 1009.12 356.40 1002.96 359.24 996.89 C 363.69 1000.50 367.62 1004.70 371.60 1008.82 C 368.93 1014.75 366.32 1020.70 363.55 1026.59 C 360.09 1027.11 356.61 1028.50 353.12 1028.10 C 344.68 1024.56 336.38 1020.67 328.05 1016.89 C 325.18 1014.65 324.00 1010.89 322.01 1007.92 C 330.00 989.72 338.43 971.70 346.51 953.53 C 347.20 952.29 347.51 950.37 349.23 950.25 Z" />
<path fill="#ffffff" opacity="1.00" d=" M 407.92 969.99 C 415.26 972.00 422.49 974.41 429.83 976.44 C 430.02 1000.23 429.14 1024.03 429.28 1047.82 C 430.61 1050.59 432.80 1052.85 434.35 1055.52 C 427.81 1053.95 421.44 1051.77 415.00 1049.84 C 414.51 1045.25 414.42 1040.64 414.02 1036.05 C 408.39 1034.10 402.65 1032.48 396.95 1030.78 C 395.25 1032.72 393.08 1034.50 392.20 1037.00 C 392.81 1039.18 393.75 1041.25 394.46 1043.41 C 386.92 1041.38 379.52 1038.88 372.03 1036.68 C 385.71 1016.90 399.88 997.46 413.69 977.76 C 411.82 975.13 409.79 972.61 407.92 969.99 M 402.06 1022.72 C 406.12 1023.99 410.16 1025.30 414.27 1026.42 C 414.29 1019.28 414.42 1012.14 414.03 1005.02 C 409.64 1010.63 405.95 1016.75 402.06 1022.72 Z" />
<path fill="#ffffff" opacity="1.00" d=" M 452.49 983.69 C 466.01 985.67 479.45 988.24 492.95 990.38 C 497.35 990.85 499.65 995.22 502.74 997.87 C 501.28 1006.88 499.78 1015.89 498.16 1024.88 C 493.92 1026.30 489.43 1026.90 485.29 1028.61 C 487.69 1038.02 489.95 1047.47 492.20 1056.93 C 492.93 1061.18 496.89 1063.60 499.23 1066.95 C 492.38 1065.89 485.53 1064.84 478.75 1063.44 C 476.03 1053.35 473.36 1043.26 470.63 1033.18 C 470.49 1031.16 468.42 1032.02 467.19 1032.15 C 465.44 1039.61 464.46 1047.23 463.09 1054.77 C 465.01 1057.02 467.01 1059.20 468.83 1061.55 C 461.36 1060.67 454.01 1059.04 446.56 1058.02 C 447.44 1048.57 449.65 1039.28 451.05 1029.89 C 453.27 1016.71 455.58 1003.53 457.75 990.34 C 455.98 988.13 454.16 985.96 452.49 983.69 M 473.12 998.07 C 471.33 1005.60 470.50 1013.32 468.97 1020.92 C 473.60 1019.92 478.21 1018.79 482.83 1017.72 C 484.08 1011.94 484.99 1006.09 485.94 1000.26 C 481.67 999.50 477.39 998.78 473.12 998.07 Z" />
<path fill="#ffffff" opacity="1.00" d=" M 608.20 992.20 C 617.37 990.79 626.56 989.31 635.77 988.26 C 639.13 989.13 642.10 991.07 645.16 992.67 C 646.36 1001.05 647.62 1009.42 648.72 1017.82 C 643.15 1016.83 637.64 1015.58 632.10 1014.50 C 630.95 1009.79 630.64 1004.94 629.75 1000.18 C 625.37 1000.71 621.02 1001.38 616.67 1002.07 C 617.31 1007.96 618.11 1013.84 619.17 1019.67 C 629.45 1022.51 639.84 1024.99 650.04 1028.13 C 651.24 1037.07 652.81 1045.99 653.73 1054.96 C 651.59 1057.70 648.87 1060.42 645.81 1062.07 C 636.58 1063.54 627.33 1064.97 618.06 1066.05 C 614.83 1064.94 611.39 1063.58 608.86 1061.29 C 607.36 1052.96 606.31 1044.54 605.11 1036.17 C 610.67 1037.21 616.19 1038.47 621.73 1039.59 C 622.65 1044.37 623.06 1049.24 624.03 1054.02 C 628.36 1053.40 632.71 1052.82 637.02 1052.06 C 636.40 1046.18 635.54 1040.33 634.55 1034.51 C 624.40 1031.86 614.28 1029.09 604.12 1026.50 C 602.20 1017.49 601.36 1008.27 599.97 999.16 C 602.63 996.79 604.87 993.58 608.20 992.20 Z" />
<path fill="#ffffff" opacity="1.00" d=" M 505.89 993.12 C 514.84 993.44 523.80 993.81 532.74 994.23 C 536.94 1000.99 540.46 1008.17 544.94 1014.76 C 545.42 1009.99 545.61 1005.20 545.64 1000.42 C 543.47 998.44 541.38 996.39 539.21 994.42 C 546.79 994.85 554.38 995.10 561.97 995.41 C 561.50 1018.23 559.82 1041.03 559.06 1063.85 C 561.37 1065.90 563.74 1067.88 566.08 1069.91 C 558.30 1069.69 550.53 1069.34 542.76 1068.95 C 542.51 1064.83 544.20 1060.12 541.39 1056.59 C 536.53 1049.06 531.96 1041.35 527.03 1033.87 C 526.44 1041.92 526.31 1049.99 525.87 1058.05 C 525.93 1059.57 525.44 1061.25 526.15 1062.70 C 527.84 1064.73 529.88 1066.43 531.65 1068.41 C 524.21 1068.24 516.72 1068.20 509.32 1067.36 C 510.31 1044.60 511.41 1021.84 512.17 999.08 C 510.07 997.09 507.98 995.11 505.89 993.12 Z" />
<path fill="#ffffff" opacity="1.00" d=" M 566.43 995.02 C 573.86 994.42 581.31 994.06 588.76 993.90 C 590.04 1016.46 591.02 1039.06 592.44 1061.62 C 593.89 1064.19 597.09 1065.47 599.18 1067.61 C 591.64 1067.95 584.11 1068.44 576.57 1068.65 C 575.35 1045.85 574.28 1023.03 572.89 1000.24 C 570.69 998.56 568.51 996.84 566.43 995.02 Z" />
</g>
</svg>
