<?xml version="1.0" encoding="utf-8"?>
<!-- Generator: Adobe Illustrator 24.3.0, SVG Export Plug-In . SVG Version: 6.00 Build 0)  -->
<svg version="1.1" id="Capa_1" xmlns="http://www.w3.org/2000/svg" xmlns:xlink="http://www.w3.org/1999/xlink" x="0px" y="0px"
	 viewBox="0 0 800 800" style="enable-background:new 0 0 800 800;" xml:space="preserve">
<style type="text/css">
	.st0{fill:#AE0C17;}
	.st1{fill:#FFFFFF;}
	.st2{fill:none;}
</style>
<g id="_x23_ae0c17ff">
	<path class="st0" d="M396.6,0h6.7c8.1,1.8,16.4,0.7,24.7,1.1c49.3,3.4,98,16,142.6,37.2c74.3,34.9,137.1,93.4,177.5,164.8
		c-6.6-3.4-12.8-7.4-19.5-10.7c-10.4-5.5-21.5-9.4-32.5-13.7c-9.6-3.8-19.5-6.8-29.5-9.5c-8.7-1.7-17.5-3.1-26.1-5
		c-7.2-1.8-14.8-1.3-21.9-3.8c4.2-2.9,9.5-3,14.1-4.8c6.7-1.7,13.4-3.1,20.2-4.1c6.7-2.2,13.9-1.5,20.7-3.1c4-1,8.1-1.1,12-1.9
		c-3.3-2.7-7.8-3-11.7-4.5c-7.5-2.8-15.4-3.9-23-6.2c-4.9-1.7-10.2-1.4-15.1-2.8c-5.4-1.5-11.1-1.1-16.5-2.4
		c-8-1.9-16.2-1.5-24.3-1.8c-10.3,0-20.7,0-31,0c-8.7,0.2-17.5,0.2-26,2.2c-4.1,0.5-8.2,0.7-12.1,1.8c-4.9,1.4-10.2,1.1-15,2.9
		c-19.9,4.5-39.5,10.7-58,19.4c-1.3-0.7-1.6-1.8-1-3.1c2.3-9.5,4.7-19,5.5-28.7c2.7-12.3,1.3-24.9,1.7-37.4
		c0.2-7.2-0.2-14.5-1.6-21.6c-0.9-4.5-0.2-9.5-2.5-13.5c-3.5,0.6-2.9,5.3-4.2,7.8c-12.2,32.1-30.6,61.9-53.4,87.5
		c-16.2,18-34.4,34.2-54.1,48.3c9.4-18.2,19.3-36.5,24.9-56.4c1.4-6.1,3.1-12.6,0.8-18.7c-13.5,26.7-32.1,51.5-57.1,68.2
		c-4.4,3-9,5.4-13.8,7.7c3.6-8.8,6.9-17.7,9.9-26.7c-7.9,9.8-17.4,17.9-27.1,25.9c-3.5-8.7-0.8-18.1,0.9-26.9
		c-8.5,9.1-12.7,21-17.9,32c-0.5-5.2-1.4-10.6-4.1-15.2c-2.5,14.4-5.8,28.7-10.3,42.6c-4-6.7-5.3-14.5-7.4-21.9
		c-1,3.9-0.9,7.9-1.7,11.9c-2.2,12.3-5.4,24.5-9.5,36.3c-1,2.8-2.1,5.8-4.4,7.8c-4.5,4.3-8.2,9.5-10.8,15.2c-1,4-0.3,8.3-0.5,12.4
		c5.7,2.2,12.3,5.5,13.5,12.2c0.1,4.6-1.4,9.1-3.4,13.1c-2.6,3.4-5.9,6.4-9.5,8.7c-5.4,0.9-11.6-0.8-16.3,2.6
		c-4.6,3.7-8.2,8.4-12.7,12.2c-4.9,4.6-10.8,8-16.1,12c-6.4,4.2-3.1,14.2-9.9,18.1c-6.1,4.1-13-1.1-19.6-0.6
		c-2.9,0.2-4.8,2.4-6.8,4.2c-6.6,6.3-14.2,11.5-22.4,15.6c-5,2.5-10.4,4.2-15.3,6.8c-12.3,6.3-22.5,16-31.8,26.1
		c-3.6,3.9-3.7,9.8-2.1,14.5c1.9,5.4,7.2,8.1,11,11.9c12.5,11.8,21.3,26.9,28.6,42.4c4.9-3.4,8.9-7.9,13.5-11.6
		c23.1-19.9,49.9-36.7,80-43.3c16.3-3.3,31.5-10.9,48.1-12.7c18.6-1.9,37.3-0.7,56-1.7c15.8-0.4,32-1.7,46.9-7.2
		c15.3-7.5,31.5-13.5,45.1-24c9.4-7.1,17.7-15.8,24.1-25.8c2.2-3.4,3.8-7.2,6.2-10.6c-1.4,13.9-8.9,26.4-18,36.7
		C393,400.9,379,410.7,365,420c-7.8,5.3-16.3,9.5-23.8,15.2c-8.4,6.3-17.2,12-25.1,18.9c-8.6,8.4-17.2,16.8-26.3,24.7
		c-6.4,5.3-10.2,13-15.8,19.1c-7.7,8.3-15.6,16.4-23.8,24.3c-7.4,7.8-15.7,14.7-25.1,20c-8.8,4.2-17.7,8.2-27.2,10.7
		c-4.2,1.4-8.9,1.5-13,3.4c-0.6,2.4,1.6,4.1,2.8,6c3.8,5.7,7.9,11.3,13,15.9c13.1,12.2,30.4,18.8,47.7,22c7.1,1.2,14.3,1.1,21.4,0.7
		c-0.1-7.3-0.3-15,3.3-21.6c3.4-7.1,8.2-14.4,15.7-17.5c10.1-5.1,21.1-8,31.5-12.3c9-3.7,18.2-6.9,26.9-11.2
		c5.4-2.7,10.8-5.4,16.4-7.7c10.7-5.1,20.9-11.3,30.5-18.3c4.2-2.7,8.4-5.5,12-9c8.9-7.7,18.1-15.6,24.1-25.9
		c6.2-10.6,13.7-20.7,17.1-32.7c1.3-5.2,1.4-10.6,2.4-15.8c1.4,2.7,2.6,5.4,3.6,8.3c3.4-12.4,5-25.2,6.7-37.9
		c2.2,4.1,1.5,8.9,2.1,13.4c1.1,9,1,18.2,0.8,27.3c-1.1,7.7-0.5,15.7-2.8,23.2c-0.7,4.8-2.6,9.5-2.8,14.4c4.8-5,9.8-9.9,15.8-13.4
		c7.5-4.3,15.6-7.8,24-10.1c6-0.6,11.7-3.4,17.9-3.2c7,0,14-0.7,21-0.2c5.6,0.4,11.4-0.4,16.8,1.4c3.2,1,6.6,1.5,10,2.1
		c17.2,4.6,33.5,13.2,46.4,25.6c9.8,9.3,17.3,20.8,23.1,32.9c3.5,9.8,7.9,19.5,8.9,30.1c2,11.7,3.6,23.6,1.9,35.4
		c-1.7,10.2-3.1,20.5-6.9,30.2c-3.3,8.7-6.6,17.5-11.5,25.4c-4.3,8.9-10.4,16.8-16.2,24.8c-11.8,15.4-25.2,29.5-40,42
		c-17.4,15.1-36.3,28.4-56.4,39.5c-4.9,3.4-11.4,4.3-15.4,9c6.4-0.7,12.4-3.5,18.6-5.1c8.2-2.5,16-5.9,24-8.7
		c9.9-4.5,20.2-8,29.6-13.3c22.3-10.7,43.3-24.1,62.8-39.3c12.7-10.6,25.2-21.4,35.8-34.1c11.1-12.6,21-26.2,29-41
		c7.2-13.5,13.9-27.4,17.9-42.2c3.1-9.6,5.1-19.5,6.7-29.4c1.2-13.3,1.2-26.7,0-40c-2.4-16.8-8.1-33-16.5-47.7
		c-14.1-24.4-36.5-43.8-62.5-54.5c-8.2-3.2-16.8-5.4-25.5-7.2c-8-1-16-0.4-24.1-0.5c2.3-6.3,6.4-11.8,10.3-17.2
		c10.1-13.4,23.1-24.9,38.6-31.6c7-2.5,14.1-4.6,21.5-5.6c8.3-0.3,16.7-0.2,25.1,0c5.9,0.9,11.6,3.3,17.8,2.9
		c-9.2-13.4-24.9-20.3-40-24.4c-6.3-2.4-13.2-2-19.8-2.8c-8.9-1.1-17.9,0.6-26.8,0.9c-18.1,3.3-36.1,8.6-52.3,17.4
		c-13.5,6.6-24.7,17.2-38.4,23.5c-6.4,1.4-13.7,1.6-19.3-2.5c-4.9-2.3-6.9-7.9-7.7-12.9c-0.2-4.6,0.8-9.2,2.1-13.6
		c4.3-12.1,10.7-23.3,18.1-33.8c0.9-1.3,1.3-2.8,1.7-4.3c-16.8,4.9-33.5,11.6-47.2,22.8c-5.2,4.5-10,9.6-13.6,15.4
		c-1.9,3.2-3.1,6.9-5.5,9.9c-1.4-11.6-1.1-23.6,2.3-34.9c2.1-10.3,6.2-20,10.8-29.4c5.2-10,9.8-20.8,9.9-32.2
		c0.1-5.7,0.2-11.4-0.1-17c-0.2-3.9-1.8-7.7-1.8-11.6c8.4,8.4,15.6,18.7,17.5,30.7c0.9,7.9-0.1,15.8-1.6,23.6
		c9.5-8.8,12.8-22,16.4-33.9c8.6-1.6,17.1-3.4,25.6-5.5c3.8-0.5,7.7-0.6,11.4-1.7c5.8-1.8,11.9-1.1,17.7-2.5
		c6.6-1.9,13.6-0.9,20.4-1.6c11.1-1.2,22.2-0.5,33.3-0.6c8-0.1,16,1.1,24,1.1c6.1-0.2,11.8,2.5,18,2.5c8.6,1,16.9,3.9,25.4,5.4
		c9.6,2.1,18.7,5.7,28,8.9c10.1,4.2,20.6,8.1,29.5,14.6c-7.7,2.8-16,1.5-23.7,4.1c-2.9,0.8-5.9,0.8-8.8,1.2c1.3,1.1,2.7,2.1,4.3,2.8
		c25.5,11.5,49.1,26.8,71.2,44c5.8,22,9.3,44.6,11.5,67.3c1.1,10.1,0.5,20.3,0.6,30.5c-0.2,15.4,0.7,30.9-1.5,46.2
		c-7,68.4-32.4,134.9-72.6,190.7c-33.7,47-77.6,86.6-128,115.1c-43.7,24.8-92.1,41.3-141.9,48.1c-11.6,1.2-23.3,3.2-35,2.9
		c-5.6-0.2-11.2-0.1-16.6,1h-6.7c-7.8-1.7-15.8-0.8-23.6-1.1c-75-4.7-148.4-31.6-208.9-76C105.5,680.1,58.8,621.1,30.9,554.1
		C14.5,515.3,4.7,473.9,1.3,432c-0.8-8.6,0.6-17.3-1.3-25.7v-12.6c1.8-8.2,0.6-16.5,1.2-24.8c4.2-54.2,19.5-107.6,45-155.6
		C86,137.9,150.4,75.9,227.4,39.2C272.6,17.5,322,4.5,372,1.1C380.2,0.7,388.5,1.8,396.6,0 M129.2,472.2
		c-6.6,5.3-13.4,10.6-18.7,17.3c-1.3,1.6,0,3.8,1,5.2c3.6,5,9.3,7.8,14.2,11.4c0.6-9.2,1.6-18.5,5.2-27c3.4,4.3,6.7,8.8,10.9,12.3
		c-0.5-8.5-0.5-17.3,3.1-25.1c3.5,3,6.5,6.5,10.2,9.1c-0.3-5.3-2.9-11.6,0.9-16.3c6.6-6.5,15.8-9.3,23.1-14.9
		C160.6,449.7,144.2,460.3,129.2,472.2 M226,470.2c-17.2,4.9-32.7,15-44.8,28c-6.8,7-12.1,15.3-17.7,23.3
		c-6.9,9.4-13.9,18.7-21.7,27.3c-13.1,14.4-28.5,27.6-47.2,34c-7.5,2.1-15.2,4.6-23.1,4.3c4.3,4.9,11.7,3.3,17.5,3.5
		c7.3,0.4,13.7-5,21.1-3.5c0.3,2.5-0.2,5.2-2.2,6.9c-5.6,4.9-13.2,7.7-20.7,7.3c0,0.4,0,1.2-0.1,1.7c17.5,1.3,34.3-7.2,47.1-18.6
		c7.5-5.9,13-13.8,18.5-21.5c10.2-15.7,18.6-32.5,29.1-47.9c9.7-14.4,22.7-26.6,37.8-35.2c8.4-4.4,16.8-8.8,26.1-11
		c1.6-0.6,3.9-0.6,4.4-2.6C242.1,466.9,233.8,467.6,226,470.2 M218.8,519c2,4,4.3,7.9,6.7,11.7c-0.4,0.2-1.2,0.4-1.6,0.6
		c-5.5-0.3-10.7-2.4-16.3-2.4c1.1,4.7,2.9,9.2,4.3,13.7c-5.6-3.2-10.7-7.3-16.2-10.6c0.7,3.4,1.6,6.7,2.1,10.1
		c0,1.5,0.9,3.8-0.8,4.6c-5.7-2.3-9.9-6.9-15.1-10.1c0.6,5.5,1.5,11,1.2,16.5c21-2.7,42.1-11.1,56.9-26.8
		C232.7,524.5,225.6,522.2,218.8,519z"/>
	<path class="st0" d="M405.6,228.6c13.5-14.4,28.8-27.2,45.5-37.8c0.8,0.7,1.6,1.4,2.4,2.2c-30.9,22.3-55.7,51.8-78.2,82.2
		c-8.7,11.4-15.3,24.3-25,35c-10.8,12.2-26.7,19.9-43.2,20c-17.3,0.5-33.4-6.8-50.1-9.9c-4.7-1.2-9.1,1.4-13.4,2.7
		c3-5.5,9.4-8.5,15.5-8.6c6.8-0.5,13,2.7,19.5,4.1c14.8,3.8,31,5.2,45.5-0.5c13.5-5,23.4-16.1,31.4-27.6
		C371.4,269.3,387.2,247.9,405.6,228.6z"/>
	<path class="st0" d="M344.9,235.9c0.3-1.2,1-2.3,2-3.1c0.8,14.5,0.8,29.3-3.8,43.2c-3.4,10.7-9.2,20.9-17.6,28.4
		c-1.3,1-3.7,2.6-5,0.6c0.7-2.3,1.8-4.5,2.4-6.8c-1-1.5-2.7-0.7-4.1-0.4c-8.8,2.7-17.5,6-26.7,7.4c-3.4,0.4-7.9,1-10-2.4
		c6.6-16.6,22-28.2,38.2-34.6c6.7-2.3,11.5-7.9,15.3-13.7C339.3,248.8,342.5,242.5,344.9,235.9z"/>
	<path class="st0" d="M597.3,359.3c2.6-2.6,5-5.5,8.2-7.4c-9.2,13.4-19.7,26.2-26.7,41c11.5,1,24.1,2.3,33,10.4
		c5.7,5,7.6,12.8,12.5,18.5c5.2,5.6,13.8,4.5,20.5,2.8c7.2-1.5,13.8-5.1,20.6-7.6c-5.4,4.1-11.7,6.9-17.8,9.8
		c-6.9,3-14.8,6-22.2,2.9c-6.8-2.4-9.9-9.5-14.6-14.4c-6.2-6.7-15.4-9.6-24.2-10.9c-6.6-0.6-13.4-1-19.8,0.8
		c0.4-7.2,4-13.6,7.9-19.4C581.1,376.1,589,367.4,597.3,359.3z"/>
	<path class="st0" d="M467.3,362.3c3.9-1.8,8.3-4.1,12.6-3.4c0.3,2.4-0.7,4.7-0.8,7.1c-0.5,6.7,0.1,13.6,1.8,20.1
		c2.2,8.9,7.7,16.6,10.9,25.2c2.3,6.3,2,13.2,0.2,19.6c-2.3,6.4-7,11.6-11.4,16.6c-4,4.2-7.7,8.8-12.6,12c7-8.6,15-17.1,18.5-27.9
		c1.1-4.6,1.2-9.8-1.1-14c-3.2-5.4-7.6-10.1-10.1-15.9c-4.4-9.9-7.1-20.8-6.6-31.7c-15.1,6.8-28.2,17.1-41.8,26.4
		c1.4-2.4,3.4-4.3,5.4-6.1C442.8,379.7,454,369.4,467.3,362.3z"/>
	<path class="st0" d="M571.2,370.1c0.8-0.9,1.7-1.8,2.7-2.6c-7.9,14.8-16.6,29.4-21.9,45.4c11.6-0.9,24.4-1.3,34.4,5.6
		c6.3,4.2,9.1,11.5,14.6,16.4c5,4.3,12,2.9,18.1,3.1c9.9,0.2,19.6-1.7,29.3-3.1c-2.6,1.5-5.7,2.1-8.6,2.8
		c-8.3,1.7-16.5,3.8-24.8,5.1c-6,0.8-12.8,1.1-17.8-2.8c-6-4.7-10.6-11.4-18.1-14c-11.9-4.2-25.3-3.9-37.1,0.3
		c-0.3-11.6,6-22,11.7-31.6C558.9,386.1,565.1,378.2,571.2,370.1z"/>
	<path class="st0" d="M152.3,390.2c5.8-2.3,11.9-3.7,17.9-5.5c-6.2,6.7-17,6.3-22.9,13.5c-11.8,13.8-29.7,20-42.4,32.7
		c-2.3,2.4-4.8,4.7-7.6,6.6c0.4-3.2,0.2-7.1,3.1-9.2c12.1-9.8,26.3-16.8,38.3-26.6C143.4,398,146.6,392.5,152.3,390.2z"/>
	<path class="st0" d="M537.1,403.1c3.4-4.1,6.1-9,10.3-12.5c-7.1,14.4-15.8,28.1-20.5,43.5c6.1-0.2,12.1-1.3,18.2-1.4
		c11.6-0.4,23.4,2.6,33,9.2c5.5,3.6,10.4,8.3,16.8,10.3c5.3,1.4,10.8,0.7,16.2,0.8c9.2,0,18.3-1.7,27.3-3.2
		c-1.6,0.9-3.3,1.8-5.2,2.2c-8.3,1.8-16.5,3.7-24.8,5.2c-6.7,1.2-13.7,1.6-20.3-0.2c-13.1-3.6-24.7-11.5-37.8-15
		c-11-1.9-22.2,1-32.3,5.3c-2.4-0.7-0.9-4.4-0.9-6.3C520.2,426.9,528.8,414.8,537.1,403.1z"/>
	<path class="st0" d="M76.8,426.1c2.8-2.8,6.3-5.1,10.2-6.2c3.1,0.3,5.9,1.9,8.8,3c-4.5,9.6,0,20.3-0.9,30.3
		c-2.4-2.8-3.7-6.3-6.1-9.1c-3.4-4.6-7.9-8.3-11.9-12.3C76.6,429.9,76.6,428,76.8,426.1z"/>
</g>
<g id="_x23_ffffffff">
	<path class="st1" d="M450.6,58.7c1.4-2.5,0.8-7.2,4.2-7.8c2.4,4,1.6,9.1,2.5,13.5c1.5,7.1,1.8,14.3,1.6,21.6
		c-0.4,12.5,1,25.1-1.7,37.4c-0.8,9.7-3.2,19.2-5.5,28.7c-0.6,1.4-0.3,2.4,1,3.1c18.5-8.7,38.1-14.9,58-19.4
		c4.8-1.7,10.1-1.4,15-2.9c3.9-1.1,8-1.3,12.1-1.8c8.5-2,17.3-1.9,26-2.2c10.3,0,20.7,0,31,0c8.1,0.3,16.3-0.1,24.3,1.8
		c5.4,1.3,11.1,0.9,16.5,2.4c4.9,1.4,10.2,1,15.1,2.8c7.6,2.2,15.5,3.4,23,6.2c3.9,1.5,8.4,1.8,11.7,4.5c-4,0.8-8.1,0.9-12,1.9
		c-6.8,1.6-14,0.9-20.7,3.1c-6.8,1.1-13.6,2.4-20.2,4.1c-4.6,1.8-9.9,1.8-14.1,4.8c7.1,2.5,14.7,2,21.9,3.8c8.7,1.9,17.4,3.3,26.1,5
		c10,2.7,19.9,5.7,29.5,9.5c11,4.2,22.1,8.2,32.5,13.7c6.6,3.3,12.9,7.2,19.5,10.7c17.1,29.7,30,61.9,38.7,95
		c-22-17.2-45.7-32.4-71.2-44c-1.6-0.7-3-1.7-4.3-2.8c2.9-0.4,5.9-0.4,8.8-1.2c7.7-2.6,16.1-1.3,23.7-4.1
		c-8.9-6.5-19.4-10.4-29.5-14.6c-9.3-3.1-18.4-6.7-28-8.9c-8.5-1.5-16.8-4.4-25.4-5.4c-6.1,0-11.9-2.6-18-2.5c-8,0-16-1.1-24-1.1
		c-11.1,0.1-22.2-0.5-33.3,0.6c-6.8,0.8-13.7-0.3-20.4,1.6c-5.8,1.4-12,0.8-17.7,2.5c-3.7,1-7.6,1.1-11.4,1.7
		c-8.5,2.1-17,3.9-25.6,5.5c-3.5,12-6.9,25.2-16.4,33.9c1.4-7.8,2.5-15.7,1.6-23.6c-2-11.9-9.1-22.3-17.5-30.7
		c-0.1,4,1.6,7.7,1.8,11.6c0.2,5.7,0.2,11.4,0.1,17c-0.2,11.4-4.8,22.2-9.9,32.2c-4.6,9.4-8.7,19.1-10.8,29.4
		c-3.4,11.3-3.6,23.2-2.3,34.9c2.4-3,3.6-6.6,5.5-9.9c3.6-5.9,8.3-11,13.6-15.4c13.7-11.2,30.4-17.9,47.2-22.8
		c-0.5,1.5-0.8,3-1.7,4.3c-7.4,10.4-13.8,21.7-18.1,33.8c-1.2,4.4-2.3,9-2.1,13.6c0.8,5,2.7,10.6,7.7,12.9
		c5.5,4.1,12.9,3.9,19.3,2.5c13.7-6.3,24.8-16.9,38.4-23.5c16.3-8.8,34.2-14.1,52.3-17.4c8.9-0.4,17.9-2.1,26.8-0.9
		c6.6,0.8,13.5,0.4,19.8,2.8c15.2,4.2,30.9,11,40,24.4c-6.1,0.3-11.8-2-17.8-2.9c-8.4-0.2-16.7-0.2-25.1,0
		c-7.4,0.9-14.5,3.1-21.5,5.6c-15.5,6.6-28.6,18.2-38.6,31.6c-3.9,5.4-8,10.8-10.3,17.2c8,0.1,16.1-0.5,24.1,0.5
		c8.7,1.8,17.2,4,25.5,7.2c26,10.7,48.4,30.1,62.5,54.5c8.5,14.6,14.2,30.9,16.5,47.7c1.2,13.3,1.2,26.7,0,40
		c-1.6,9.9-3.6,19.8-6.7,29.4c-3.9,14.8-10.6,28.7-17.9,42.2c-8,14.8-17.9,28.4-29,41c-10.6,12.7-23.2,23.6-35.8,34.1
		c-19.5,15.2-40.4,28.6-62.8,39.3c-9.5,5.4-19.8,8.8-29.6,13.3c-8,2.8-15.9,6.2-24,8.7c-6.2,1.6-12.2,4.3-18.6,5.1
		c4-4.7,10.5-5.7,15.4-9c20.1-11.2,39-24.5,56.4-39.5c14.8-12.5,28.2-26.7,40-42c5.8-8,11.9-15.8,16.2-24.8
		c4.9-7.9,8.2-16.7,11.5-25.4c3.7-9.7,5.2-20,6.9-30.2c1.7-11.8,0.2-23.7-1.9-35.4c-1-10.5-5.4-20.2-8.9-30.1
		c-5.8-12.1-13.3-23.6-23.1-32.9c-12.9-12.4-29.2-21-46.4-25.6c-3.3-0.6-6.7-1.1-10-2.1c-5.5-1.8-11.2-1-16.8-1.4
		c-7-0.5-14,0.2-21,0.2c-6.2-0.2-11.8,2.6-17.9,3.2c-8.4,2.3-16.4,5.8-24,10.1c-6,3.5-11,8.5-15.8,13.4c0.1-4.9,2.1-9.5,2.8-14.4
		c2.3-7.5,1.7-15.5,2.8-23.2c0.3-9.1,0.4-18.2-0.8-27.3c-0.6-4.5,0.1-9.3-2.1-13.4c-1.7,12.7-3.2,25.5-6.7,37.9
		c-1-2.9-2.2-5.7-3.6-8.3c-1.1,5.2-1.1,10.6-2.4,15.8c-3.4,12-10.8,22.1-17.1,32.7c-6,10.3-15.2,18.2-24.1,25.9
		c-3.6,3.5-7.7,6.4-12,9c-9.6,7-19.8,13.2-30.5,18.3c-5.6,2.3-11,5-16.4,7.7c-8.7,4.4-17.9,7.5-26.9,11.2
		c-10.4,4.3-21.4,7.2-31.5,12.3c-7.6,3.1-12.3,10.4-15.7,17.5c-3.5,6.6-3.4,14.3-3.3,21.6c-7.1,0.4-14.4,0.5-21.4-0.7
		c-17.4-3.2-34.7-9.8-47.7-22c-5.1-4.6-9.2-10.2-13-15.9c-1.2-1.9-3.3-3.5-2.8-6c4.1-1.9,8.7-2,13-3.4c9.5-2.5,18.4-6.5,27.2-10.7
		c9.3-5.3,17.7-12.2,25.1-20c8.1-7.9,16.1-16,23.8-24.3c5.6-6.1,9.4-13.8,15.8-19.1c9.1-7.9,17.7-16.3,26.3-24.7
		c7.9-6.9,16.7-12.6,25.1-18.9c7.5-5.7,16-9.9,23.8-15.2c14-9.3,28-19.2,39.3-31.8c9-10.3,16.5-22.8,18-36.7
		c-2.3,3.4-3.9,7.2-6.2,10.6c-6.4,9.9-14.7,18.6-24.1,25.8c-13.6,10.4-29.8,16.5-45.1,24c-14.9,5.5-31.1,6.8-46.9,7.2
		c-18.6,1-37.4-0.2-56,1.7c-16.6,1.9-31.8,9.4-48.1,12.7c-30.1,6.5-56.9,23.4-80,43.3c-4.6,3.8-8.7,8.2-13.5,11.6
		c-7.3-15.4-16.1-30.5-28.6-42.4c-3.8-3.8-9.1-6.5-11-11.9c-1.6-4.8-1.5-10.6,2.1-14.5c9.2-10.2,19.5-19.8,31.8-26.1
		c4.9-2.6,10.3-4.3,15.3-6.8c8.2-4.1,15.8-9.3,22.4-15.6c2-1.8,4-4,6.8-4.2c6.5-0.5,13.4,4.7,19.6,0.6c6.8-3.9,3.5-13.9,9.9-18.1
		c5.3-4,11.2-7.4,16.1-12c4.5-3.8,8.1-8.5,12.7-12.2c4.8-3.4,10.9-1.7,16.3-2.6c3.6-2.3,6.9-5.3,9.5-8.7c1.9-4.1,3.5-8.6,3.4-13.1
		c-1.2-6.7-7.8-10-13.5-12.2c0.1-4.1-0.5-8.4,0.5-12.4c2.6-5.7,6.3-10.8,10.8-15.2c2.2-2.1,3.4-5,4.4-7.8c4.1-11.8,7.3-24,9.5-36.3
		c0.7-3.9,0.6-8,1.7-11.9c2.1,7.4,3.3,15.2,7.4,21.9c4.5-13.9,7.8-28.2,10.3-42.6c2.7,4.6,3.6,9.9,4.1,15.2c5.2-11,9.5-22.9,17.9-32
		c-1.7,8.8-4.4,18.2-0.9,26.9c9.6-7.9,19.2-16.1,27.1-25.9c-3,9-6.2,17.9-9.9,26.7c4.8-2.2,9.5-4.7,13.8-7.7
		c25-16.8,43.6-41.6,57.1-68.2c2.3,6,0.6,12.6-0.8,18.7c-5.5,19.9-15.4,38.1-24.9,56.4c19.7-14,37.9-30.3,54.1-48.3
		C420.1,120.6,438.5,90.8,450.6,58.7 M405.6,228.6c-18.4,19.2-34.2,40.7-50.2,61.8c-8,11.5-18,22.6-31.4,27.6
		c-14.5,5.7-30.7,4.3-45.5,0.5c-6.5-1.4-12.7-4.6-19.5-4.1c-6.1,0.1-12.6,3.1-15.5,8.6c4.4-1.4,8.7-3.9,13.4-2.7
		c16.8,3,32.9,10.4,50.1,9.9c16.4-0.1,32.3-7.8,43.2-20c9.7-10.7,16.3-23.6,25-35c22.6-30.4,47.3-60,78.2-82.2
		c-0.8-0.7-1.6-1.4-2.4-2.2C434.4,201.4,419.1,214.2,405.6,228.6 M344.9,235.9c-2.4,6.6-5.5,12.8-9.3,18.7
		c-3.8,5.7-8.6,11.4-15.3,13.7c-16.2,6.4-31.6,18-38.2,34.6c2.1,3.4,6.6,2.8,10,2.4c9.2-1.4,17.9-4.7,26.7-7.4
		c1.3-0.3,3.1-1.1,4.1,0.4c-0.6,2.4-1.7,4.5-2.4,6.8c1.3,2,3.7,0.4,5-0.6c8.4-7.6,14.2-17.7,17.6-28.4c4.7-13.9,4.7-28.7,3.8-43.2
		C345.9,233.6,345.2,234.7,344.9,235.9 M597.3,359.3c-8.3,8.1-16.2,16.8-22.6,26.5c-3.8,5.9-7.4,12.3-7.9,19.4
		c6.4-1.8,13.2-1.5,19.8-0.8c8.8,1.3,18,4.1,24.2,10.9c4.7,4.9,7.8,11.9,14.6,14.4c7.4,3.2,15.3,0.1,22.2-2.9
		c6.1-2.9,12.4-5.7,17.8-9.8c-6.9,2.6-13.4,6.1-20.6,7.6c-6.7,1.6-15.2,2.7-20.5-2.8c-4.9-5.7-6.8-13.5-12.5-18.5
		c-8.9-8.1-21.6-9.4-33-10.4c7-14.8,17.5-27.6,26.7-41C602.3,353.8,599.9,356.7,597.3,359.3 M467.3,362.3c-13.2,7.2-24.4,17.4-35,28
		c-2,1.9-4,3.8-5.4,6.1c13.6-9.3,26.7-19.6,41.8-26.4c-0.5,10.9,2.2,21.8,6.6,31.7c2.5,5.8,7,10.5,10.1,15.9c2.3,4.2,2.3,9.4,1.1,14
		c-3.6,10.8-11.5,19.2-18.5,27.9c4.9-3.2,8.6-7.9,12.6-12c4.4-5,9.1-10.2,11.4-16.6c1.8-6.3,2.1-13.3-0.2-19.6
		c-3.2-8.6-8.6-16.2-10.9-25.2c-1.7-6.5-2.3-13.4-1.8-20.1c0.1-2.4,1-4.7,0.8-7.1C475.5,358.2,471.1,360.5,467.3,362.3 M571.2,370.1
		c-6,8-12.3,15.9-17.6,24.5c-5.8,9.6-12,20-11.7,31.6c11.8-4.2,25.3-4.5,37.1-0.3c7.5,2.6,12.1,9.3,18.1,14c5,3.9,11.8,3.7,17.8,2.8
		c8.3-1.3,16.5-3.3,24.8-5.1c2.9-0.7,6-1.3,8.6-2.8c-9.7,1.4-19.5,3.4-29.3,3.1c-6-0.2-13.1,1.2-18.1-3.1
		c-5.5-4.9-8.3-12.3-14.6-16.4c-10-6.9-22.8-6.5-34.4-5.6c5.3-16,14-30.6,21.9-45.4C572.9,368.4,572,369.2,571.2,370.1 M152.3,390.2
		c-5.7,2.3-8.9,7.8-13.6,11.5c-12.1,9.9-26.2,16.8-38.3,26.6c-2.9,2.1-2.7,6-3.1,9.2c2.8-1.9,5.3-4.2,7.6-6.6
		c12.7-12.7,30.6-18.9,42.4-32.7c5.9-7.2,16.7-6.8,22.9-13.5C164.2,386.5,158.1,388,152.3,390.2 M537.1,403.1
		c-8.2,11.6-16.9,23.7-20.1,37.9c0,1.9-1.5,5.6,0.9,6.3c10.1-4.3,21.4-7.2,32.3-5.3c13.2,3.5,24.7,11.4,37.8,15
		c6.6,1.8,13.6,1.5,20.3,0.2c8.3-1.5,16.5-3.4,24.8-5.2c1.9-0.3,3.5-1.2,5.2-2.2c-9,1.5-18.1,3.2-27.3,3.2
		c-5.4-0.1-10.9,0.5-16.2-0.8c-6.4-1.9-11.3-6.7-16.8-10.3c-9.6-6.6-21.4-9.6-33-9.2c-6.1,0-12.1,1.2-18.2,1.4
		c4.7-15.4,13.5-29.1,20.5-43.5C543.2,394.1,540.5,399,537.1,403.1 M76.8,426.1c-0.2,1.9-0.3,3.8,0.1,5.7c4,4,8.5,7.7,11.9,12.3
		c2.3,2.8,3.7,6.3,6.1,9.1c0.9-10.1-3.6-20.7,0.9-30.3c-2.9-1.1-5.7-2.7-8.8-3C83.2,421.1,79.7,423.3,76.8,426.1z"/>
	<path class="st1" d="M129.2,472.2c15-11.9,31.4-22.5,49.9-28c-7.3,5.5-16.4,8.4-23.1,14.9c-3.8,4.6-1.2,10.9-0.9,16.3
		c-3.8-2.6-6.8-6.1-10.2-9.1c-3.5,7.9-3.5,16.7-3.1,25.1c-4.3-3.5-7.5-8-10.9-12.3c-3.7,8.5-4.6,17.9-5.2,27
		c-4.9-3.5-10.6-6.4-14.2-11.4c-1-1.5-2.3-3.6-1-5.2C115.8,482.8,122.6,477.5,129.2,472.2z"/>
	<path class="st1" d="M226,470.2c7.8-2.6,16-3.3,24.2-4.1c-0.5,2-2.8,2.1-4.4,2.6c-9.2,2.1-17.7,6.6-26.1,11
		c-15.2,8.5-28.1,20.8-37.8,35.2c-10.5,15.5-18.9,32.2-29.1,47.9c-5.5,7.7-11,15.6-18.5,21.5c-12.8,11.4-29.6,19.9-47.1,18.6
		c0-0.4,0-1.2,0.1-1.7c7.5,0.3,15.1-2.4,20.7-7.3c2-1.7,2.5-4.4,2.2-6.9c-7.4-1.5-13.8,3.9-21.1,3.5c-5.8-0.2-13.2,1.5-17.5-3.5
		c7.9,0.3,15.6-2.2,23.1-4.3c18.7-6.3,34.2-19.5,47.2-34c7.8-8.7,14.8-17.9,21.7-27.3c5.6-8,10.9-16.3,17.7-23.3
		C193.3,485.2,208.9,475.1,226,470.2z"/>
	<path class="st1" d="M218.8,519c6.8,3.2,13.9,5.6,21.2,7.4c-14.7,15.7-35.8,24.1-56.9,26.8c0.3-5.5-0.5-11-1.2-16.5
		c5.2,3.1,9.4,7.8,15.1,10.1c1.7-0.9,0.8-3.2,0.8-4.6c-0.6-3.4-1.5-6.8-2.1-10.1c5.6,3.3,10.6,7.4,16.2,10.6
		c-1.5-4.6-3.2-9.1-4.3-13.7c5.5,0,10.8,2.1,16.3,2.4c0.4-0.2,1.2-0.4,1.6-0.6C223.1,526.9,220.8,523,218.8,519z"/>
</g>
<path id="SVGID_x5F_1_x5F_" class="st2" d="M48,269.2C123.3,75,341.7-21.3,535.8,53.9S826.3,347.6,751,541.7
	S457.4,832.2,263.2,756.9S-27.3,463.3,48,269.2z"/>
<text><textPath  xlink:href="#SVGID_x5F_1_x5F_" startOffset="6465.7998%">
<tspan  class="st1" style="font-family:'ShadowofXizor'; font-size:115px; letter-spacing:17;">DRACARNIS</tspan></textPath>
</text>
</svg>
