<?xml version="1.0" encoding="UTF-8" ?>
<!DOCTYPE svg PUBLIC "-//W3C//DTD SVG 1.1//EN" "http://www.w3.org/Graphics/SVG/1.1/DTD/svg11.dtd">
<svg width="800pt" height="800pt" viewBox="0 0 800 800" version="1.1" xmlns="http://www.w3.org/2000/svg">
<g id="#ae0c17ff">
<path fill="#ae0c17" opacity="1.00" d=" M 396.64 0.00 L 403.34 0.00 C 411.46 1.79 419.78 0.69 428.01 1.10 C 477.31 4.46 525.97 17.12 570.60 38.35 C 644.86 73.28 707.69 131.78 748.06 203.20 C 741.50 199.78 735.23 195.82 728.61 192.53 C 718.19 187.03 707.07 183.09 696.10 178.86 C 686.50 175.05 676.58 172.08 666.61 169.38 C 657.91 167.65 649.12 166.28 640.46 164.35 C 633.24 162.56 625.65 163.05 618.57 160.57 C 622.76 157.64 628.04 157.61 632.68 155.80 C 639.35 154.09 646.10 152.74 652.90 151.67 C 659.60 149.44 666.77 150.16 673.60 148.54 C 677.55 147.56 681.65 147.47 685.63 146.63 C 682.29 143.95 677.81 143.66 673.92 142.16 C 666.44 139.41 658.52 138.24 650.91 135.99 C 646.02 134.26 640.73 134.58 635.78 133.21 C 630.38 131.70 624.69 132.13 619.27 130.82 C 611.32 128.91 603.10 129.33 595.00 129.02 C 584.67 128.99 574.33 129.00 564.00 129.02 C 555.30 129.25 546.49 129.21 537.97 131.20 C 533.91 131.66 529.81 131.86 525.87 133.01 C 520.96 134.45 515.70 134.13 510.86 135.86 C 490.93 140.34 471.32 146.60 452.81 155.29 C 451.55 154.56 451.22 153.51 451.83 152.15 C 454.15 142.67 456.57 133.17 457.36 123.42 C 460.07 111.11 458.68 98.48 459.08 86.00 C 459.25 78.77 458.88 71.52 457.43 64.42 C 456.50 59.95 457.25 54.94 454.89 50.89 C 451.43 51.52 452.01 56.16 450.65 58.69 C 438.46 90.83 420.08 120.58 397.21 146.21 C 380.99 164.20 362.81 180.45 343.07 194.48 C 352.52 176.26 362.39 157.99 367.93 138.11 C 369.35 132.06 371.08 125.46 368.73 119.42 C 355.25 146.08 336.63 170.89 311.60 187.66 C 307.25 190.67 302.56 193.10 297.78 195.33 C 301.43 186.58 304.64 177.63 307.64 168.64 C 299.79 178.43 290.20 186.56 280.56 194.51 C 277.11 185.85 279.77 176.38 281.46 167.62 C 272.98 176.71 268.75 188.63 263.52 199.66 C 263.03 194.42 262.09 189.09 259.39 184.50 C 256.94 198.90 253.62 213.20 249.11 227.11 C 245.07 220.42 243.85 212.62 241.76 205.24 C 240.71 209.11 240.81 213.18 240.08 217.11 C 237.87 229.44 234.69 241.58 230.58 253.40 C 229.60 256.24 228.48 259.15 226.23 261.24 C 221.72 265.57 218.02 270.71 215.44 276.41 C 214.44 280.44 215.12 284.68 214.98 288.80 C 220.69 291.02 227.30 294.32 228.50 300.98 C 228.61 305.54 227.05 310.04 225.12 314.11 C 222.50 317.48 219.24 320.48 215.64 322.78 C 210.23 323.63 204.07 321.95 199.31 325.37 C 194.76 329.11 191.09 333.78 186.62 337.61 C 181.72 342.20 175.87 345.56 170.52 349.57 C 164.16 353.75 167.45 363.82 160.66 367.69 C 154.54 371.79 147.64 366.58 141.11 367.11 C 138.26 367.27 136.27 369.51 134.30 371.31 C 127.71 377.63 120.07 382.83 111.90 386.89 C 106.92 389.42 101.54 391.06 96.61 393.68 C 84.30 400.01 74.07 409.63 64.85 419.80 C 61.29 423.68 61.18 429.57 62.79 434.33 C 64.67 439.68 69.97 442.43 73.81 446.18 C 86.31 458.00 95.11 473.11 102.38 488.54 C 107.27 485.12 111.30 480.67 115.92 476.92 C 139.03 457.07 165.78 440.19 195.88 433.65 C 212.17 430.35 227.39 422.78 244.00 420.91 C 262.61 419.01 281.34 420.21 299.99 419.18 C 315.82 418.74 331.98 417.45 346.93 411.93 C 362.20 404.44 378.42 398.40 392.01 387.95 C 401.43 380.82 409.68 372.11 416.09 362.18 C 418.32 358.76 419.91 354.96 422.25 351.60 C 420.81 365.48 413.32 377.95 404.30 388.28 C 392.98 400.88 379.02 410.72 364.99 420.05 C 357.21 425.34 348.72 429.52 341.24 435.25 C 332.86 441.53 324.04 447.24 316.16 454.14 C 307.54 462.55 298.92 470.96 289.83 478.87 C 283.38 484.19 279.60 491.86 273.99 497.95 C 266.28 506.24 258.34 514.33 250.20 522.21 C 242.82 529.99 234.48 536.90 225.14 542.20 C 216.36 546.43 207.42 550.44 197.96 552.91 C 193.71 554.30 189.09 554.41 185.01 556.31 C 184.45 558.74 186.62 560.43 187.78 562.29 C 191.59 567.99 195.65 573.60 200.79 578.19 C 213.86 590.40 231.16 596.99 248.53 600.21 C 255.62 601.39 262.82 601.27 269.97 600.89 C 269.88 593.62 269.71 585.93 273.24 579.33 C 276.66 572.26 281.41 564.93 288.98 561.87 C 299.07 556.73 310.09 553.88 320.52 549.56 C 329.48 545.83 338.70 542.70 347.39 538.35 C 352.80 535.66 358.22 532.98 363.79 530.63 C 374.51 525.51 384.71 519.31 394.32 512.34 C 398.57 509.68 402.72 506.85 406.29 503.31 C 415.20 495.60 424.36 487.72 430.36 477.42 C 436.61 466.84 444.05 456.69 447.41 444.70 C 448.69 439.51 448.76 434.13 449.84 428.91 C 451.28 431.57 452.47 434.36 453.44 437.23 C 456.87 424.83 458.42 412.03 460.11 399.30 C 462.26 403.43 461.64 408.24 462.20 412.72 C 463.35 421.76 463.24 430.91 462.95 440.01 C 461.88 447.73 462.48 455.67 460.19 463.20 C 459.49 468.04 457.55 472.66 457.41 477.57 C 462.24 472.62 467.16 467.65 473.19 464.15 C 480.70 459.82 488.78 456.37 497.15 454.06 C 503.19 453.42 508.86 450.67 515.01 450.84 C 522.01 450.85 529.02 450.16 536.02 450.68 C 541.63 451.10 547.42 450.28 552.87 452.07 C 556.12 453.08 559.49 453.53 562.83 454.13 C 580.06 458.74 596.35 467.37 609.27 479.74 C 619.08 489.04 626.59 500.54 632.41 512.68 C 635.92 522.52 640.31 532.22 641.33 542.74 C 643.36 554.42 644.91 566.32 643.20 578.15 C 641.52 588.33 640.09 598.67 636.35 608.36 C 633.06 617.06 629.75 625.83 624.81 633.77 C 620.50 642.70 614.38 650.55 608.56 658.53 C 596.74 673.89 583.36 688.04 568.56 700.57 C 551.18 715.63 532.30 728.97 512.18 740.12 C 507.24 743.49 500.74 744.44 496.76 749.17 C 503.18 748.44 509.12 745.70 515.34 744.10 C 523.50 741.63 531.34 738.23 539.37 735.39 C 549.24 730.90 559.56 727.43 569.01 722.07 C 591.33 711.38 612.28 697.99 631.76 682.77 C 644.44 672.21 656.97 661.34 667.60 648.66 C 678.65 636.05 688.61 622.41 696.56 607.62 C 703.78 594.15 710.50 580.25 714.43 565.42 C 717.51 555.82 719.50 545.91 721.13 535.99 C 722.34 522.68 722.32 509.26 721.14 495.95 C 718.79 479.20 713.06 462.94 704.59 448.30 C 690.54 423.90 668.10 404.54 642.11 393.81 C 633.86 390.61 625.27 388.37 616.61 386.59 C 608.63 385.59 600.56 386.15 592.54 386.08 C 594.86 379.76 598.91 374.30 602.84 368.92 C 612.91 355.51 625.95 343.98 641.46 337.34 C 648.43 334.84 655.60 332.71 662.95 331.76 C 671.30 331.49 679.68 331.51 688.04 331.73 C 693.96 332.65 699.68 334.99 705.79 334.67 C 696.62 321.30 680.89 314.41 665.74 310.25 C 659.41 307.85 652.55 308.23 645.92 307.48 C 636.98 306.36 628.05 308.04 619.12 308.41 C 601.00 311.71 583.06 317.04 566.80 325.86 C 553.26 332.45 542.11 343.05 528.43 349.38 C 522.02 350.77 514.69 350.99 509.17 346.88 C 504.24 344.59 502.31 339.00 501.51 334.01 C 501.27 329.39 502.35 324.82 503.58 320.40 C 507.89 308.33 514.24 297.09 521.64 286.65 C 522.55 285.38 522.90 283.83 523.38 282.37 C 506.55 287.29 489.85 293.96 476.17 305.18 C 470.94 309.63 466.21 314.75 462.60 320.62 C 460.69 323.86 459.45 327.51 457.07 330.47 C 455.71 318.87 455.99 306.88 459.34 295.62 C 461.47 285.34 465.56 275.61 470.16 266.22 C 475.35 256.24 479.93 245.47 480.10 234.05 C 480.23 228.37 480.26 222.69 480.01 217.01 C 479.85 213.07 478.18 209.34 478.23 205.38 C 486.68 213.75 493.80 224.11 495.78 236.05 C 496.69 243.93 495.64 251.90 494.20 259.65 C 503.69 250.89 507.03 237.69 510.58 225.72 C 519.17 224.16 527.70 222.33 536.17 220.23 C 539.98 219.69 543.86 219.58 547.60 218.55 C 553.36 216.78 559.49 217.43 565.33 216.03 C 571.97 214.14 578.93 215.17 585.71 214.41 C 596.78 213.25 607.90 213.92 619.00 213.77 C 627.01 213.72 634.98 214.86 643.00 214.83 C 649.11 214.67 654.85 217.31 660.96 217.30 C 669.57 218.34 677.86 221.22 686.41 222.69 C 695.99 224.81 705.13 228.43 714.41 231.55 C 724.50 235.79 734.99 239.67 743.87 246.20 C 736.21 248.98 727.85 247.69 720.15 250.26 C 717.29 251.06 714.28 251.06 711.36 251.44 C 712.62 252.59 714.06 253.55 715.64 254.24 C 741.12 265.78 764.79 281.02 786.80 298.22 C 792.61 320.25 796.14 342.83 798.34 365.49 C 799.41 375.63 798.83 385.83 798.98 396.00 C 798.79 411.42 799.72 426.92 797.51 442.24 C 790.52 510.68 765.14 577.10 724.92 632.90 C 691.24 679.90 647.27 719.48 596.95 747.98 C 553.24 772.79 504.82 789.32 455.01 796.11 C 443.37 797.34 431.75 799.32 420.00 798.99 C 414.42 798.82 408.84 798.85 403.35 800.00 L 396.65 800.00 C 388.86 798.28 380.89 799.23 373.00 798.94 C 298.01 794.21 224.65 767.37 164.11 722.90 C 105.47 680.12 58.79 621.10 30.87 554.08 C 14.54 515.33 4.74 473.92 1.31 432.04 C 0.48 423.46 1.89 414.78 0.00 406.30 L 0.00 393.71 C 1.83 385.55 0.56 377.21 1.24 368.96 C 5.46 314.75 20.71 261.38 46.26 213.35 C 85.96 137.94 150.45 75.93 227.36 39.23 C 272.56 17.48 321.95 4.50 371.99 1.09 C 380.22 0.70 388.53 1.78 396.64 0.00 M 129.20 472.20 C 122.60 477.53 115.80 482.81 110.46 489.47 C 109.15 491.12 110.41 493.22 111.41 494.67 C 115.02 499.67 120.70 502.48 125.58 506.03 C 126.18 496.87 127.14 487.49 130.82 478.99 C 134.23 483.29 137.50 487.81 141.77 491.32 C 141.30 482.87 141.31 474.05 144.83 466.18 C 148.29 469.16 151.29 472.67 155.06 475.29 C 154.77 469.96 152.13 463.65 155.98 459.03 C 162.60 452.56 171.76 449.70 179.05 444.16 C 160.61 449.66 144.17 460.33 129.20 472.20 M 226.04 470.20 C 208.85 475.08 193.34 485.17 181.22 498.22 C 174.42 505.26 169.17 513.56 163.56 521.53 C 156.69 530.91 149.66 540.19 141.87 548.84 C 128.78 563.29 113.36 576.48 94.62 582.80 C 87.08 584.94 79.46 587.39 71.53 587.13 C 75.82 592.05 83.22 590.43 89.01 590.59 C 96.34 590.95 102.71 585.64 110.11 587.09 C 110.42 589.58 109.96 592.27 107.93 593.95 C 102.29 598.87 94.73 601.61 87.22 601.26 C 87.21 601.68 87.18 602.51 87.16 602.93 C 104.66 604.20 121.51 595.73 134.28 584.30 C 141.75 578.37 147.26 570.50 152.76 562.81 C 162.91 547.11 171.35 530.36 181.85 514.88 C 191.57 500.47 204.53 488.24 219.70 479.70 C 228.06 475.32 236.54 470.90 245.79 468.75 C 247.43 468.19 249.70 468.13 250.21 466.11 C 242.08 466.91 233.84 467.56 226.04 470.20 M 218.81 518.97 C 220.77 523.01 223.08 526.88 225.51 530.66 C 225.11 530.81 224.32 531.10 223.93 531.25 C 218.46 530.92 213.20 528.81 207.67 528.81 C 208.76 533.49 210.53 537.98 212.00 542.55 C 206.39 539.31 201.33 535.22 195.75 531.93 C 196.41 535.31 197.31 538.65 197.88 542.06 C 197.88 543.54 198.76 545.83 197.10 546.70 C 191.41 544.39 187.16 539.78 181.97 536.64 C 182.62 542.13 183.43 547.63 183.13 553.18 C 204.17 550.47 225.28 542.10 240.00 526.38 C 232.73 524.55 225.58 522.21 218.81 518.97 Z" />
<path fill="#ae0c17" opacity="1.00" d=" M 405.61 228.62 C 419.13 214.19 434.38 201.40 451.07 190.79 C 451.84 191.51 452.63 192.23 453.42 192.94 C 422.49 215.22 397.77 244.74 375.21 275.17 C 366.48 286.57 359.87 299.52 350.17 310.19 C 339.33 322.40 323.43 330.08 307.02 330.15 C 289.72 330.64 273.62 323.34 256.87 320.29 C 252.16 319.13 247.80 321.68 243.45 323.03 C 246.41 317.50 252.87 314.52 258.98 314.41 C 265.77 313.96 272.01 317.13 278.50 318.54 C 293.29 322.35 309.48 323.77 323.98 318.03 C 337.44 313.03 347.38 301.93 355.39 290.44 C 371.42 269.28 387.25 247.85 405.61 228.62 Z" />
<path fill="#ae0c17" opacity="1.00" d=" M 344.87 235.92 C 345.21 234.70 345.89 233.64 346.83 232.79 C 347.65 247.26 347.66 262.08 342.98 275.97 C 339.59 286.68 333.82 296.84 325.41 304.41 C 324.07 305.45 321.69 307.01 320.38 305.06 C 321.04 302.74 322.21 300.59 322.76 298.23 C 321.80 296.75 320.05 297.55 318.70 297.85 C 309.89 300.59 301.18 303.87 292.02 305.30 C 288.63 305.70 284.16 306.27 282.04 302.89 C 288.67 286.26 304.03 274.74 320.26 268.30 C 326.99 266.00 331.75 260.36 335.58 254.64 C 339.32 248.75 342.49 242.48 344.87 235.92 Z" />
<path fill="#ae0c17" opacity="1.00" d=" M 597.28 359.27 C 599.91 356.71 602.28 353.81 605.44 351.85 C 596.27 365.29 585.70 378.03 578.75 392.86 C 590.21 393.81 602.88 395.18 611.78 403.23 C 617.52 408.27 619.40 416.06 624.28 421.73 C 629.51 427.30 638.04 426.19 644.75 424.56 C 651.97 423.03 658.50 419.50 665.37 416.93 C 659.96 421.03 653.69 423.79 647.61 426.72 C 640.75 429.74 632.78 432.77 625.42 429.61 C 618.59 427.16 615.48 420.15 610.77 415.22 C 604.58 408.49 595.41 405.62 586.61 404.35 C 580.03 403.72 573.20 403.34 566.79 405.17 C 567.23 398.01 570.82 391.61 574.65 385.73 C 581.13 376.08 588.96 367.39 597.28 359.27 Z" />
<path fill="#ae0c17" opacity="1.00" d=" M 467.26 362.26 C 471.15 360.46 475.55 358.19 479.87 358.88 C 480.15 361.25 479.17 363.59 479.10 365.98 C 478.62 372.72 479.24 379.56 480.93 386.11 C 483.18 395.05 488.60 402.71 491.78 411.28 C 494.08 417.54 493.79 424.51 491.99 430.85 C 489.66 437.26 484.97 442.41 480.54 447.45 C 476.51 451.62 472.85 456.29 467.94 459.47 C 474.95 450.82 482.91 442.40 486.48 431.59 C 487.61 427.02 487.65 421.84 485.35 417.61 C 482.18 412.17 477.74 407.51 475.22 401.68 C 470.81 391.75 468.10 380.88 468.61 369.97 C 453.53 376.74 440.42 387.10 426.84 396.36 C 428.26 394.00 430.24 392.09 432.24 390.24 C 442.83 379.70 454.05 369.43 467.26 362.26 Z" />
<path fill="#ae0c17" opacity="1.00" d=" M 571.18 370.15 C 571.98 369.20 572.91 368.39 573.84 367.56 C 565.92 382.35 557.26 396.98 551.95 412.98 C 563.51 412.06 576.36 411.71 586.34 418.58 C 592.60 422.74 595.44 430.10 600.93 435.02 C 605.93 439.28 612.97 437.91 619.01 438.07 C 628.91 438.30 638.63 436.36 648.36 434.92 C 645.73 436.47 642.70 437.07 639.76 437.74 C 631.50 439.45 623.29 441.49 614.95 442.79 C 608.95 443.63 602.17 443.90 597.13 439.96 C 591.09 435.29 586.51 428.51 578.99 425.95 C 567.11 421.74 553.69 422.03 541.84 426.24 C 541.58 414.63 547.80 404.26 553.58 394.63 C 558.86 386.06 565.14 378.18 571.18 370.15 Z" />
<path fill="#ae0c17" opacity="1.00" d=" M 152.32 390.24 C 158.13 387.96 164.22 386.50 170.21 384.78 C 163.97 391.52 153.19 391.09 147.31 398.29 C 135.54 412.06 117.65 418.28 104.92 430.96 C 102.57 433.36 100.08 435.63 97.30 437.53 C 97.74 434.37 97.48 430.43 100.42 428.37 C 112.54 418.56 126.68 411.60 138.76 401.73 C 143.38 398.03 146.64 392.52 152.32 390.24 Z" />
<path fill="#ae0c17" opacity="1.00" d=" M 537.07 403.14 C 540.51 399.01 543.16 394.13 547.33 390.68 C 540.27 405.03 531.53 418.76 526.82 434.15 C 532.89 433.97 538.91 432.84 544.99 432.80 C 556.56 432.43 568.38 435.40 577.96 442.00 C 583.44 445.60 588.38 450.33 594.79 452.27 C 600.08 453.63 605.61 453.01 611.02 453.09 C 620.22 453.11 629.29 451.42 638.33 449.89 C 636.69 450.80 635.02 451.70 633.17 452.05 C 624.91 453.86 616.67 455.76 608.36 457.28 C 601.65 458.53 594.63 458.87 588.01 457.03 C 574.87 453.40 563.36 445.51 550.18 442.00 C 539.20 440.07 527.94 443.01 517.84 447.28 C 515.42 446.62 516.98 442.90 516.97 441.02 C 520.16 426.87 528.82 414.78 537.07 403.14 Z" />
<path fill="#ae0c17" opacity="1.00" d=" M 76.85 426.13 C 79.70 423.33 83.20 421.07 87.07 419.97 C 90.18 420.26 92.95 421.84 95.84 422.92 C 91.29 432.52 95.80 443.18 94.93 453.24 C 92.51 450.47 91.20 446.95 88.85 444.13 C 85.43 439.51 80.95 435.87 76.93 431.82 C 76.59 429.94 76.62 428.01 76.85 426.13 Z" />
</g>
<g id="#ffffffff">
<path fill="#ffffff" opacity="1.00" d=" M 450.65 58.69 C 452.01 56.16 451.43 51.52 454.89 50.89 C 457.25 54.94 456.50 59.95 457.43 64.42 C 458.88 71.52 459.25 78.77 459.08 86.00 C 458.68 98.48 460.07 111.11 457.36 123.42 C 456.57 133.17 454.15 142.67 451.83 152.15 C 451.22 153.51 451.55 154.56 452.81 155.29 C 471.32 146.60 490.93 140.34 510.86 135.86 C 515.70 134.13 520.96 134.45 525.87 133.01 C 529.81 131.86 533.91 131.66 537.97 131.20 C 546.49 129.21 555.30 129.25 564.00 129.02 C 574.33 129.00 584.67 128.99 595.00 129.02 C 603.10 129.33 611.32 128.91 619.27 130.82 C 624.69 132.13 630.38 131.70 635.78 133.21 C 640.73 134.58 646.02 134.26 650.91 135.99 C 658.52 138.24 666.44 139.41 673.92 142.16 C 677.81 143.66 682.29 143.95 685.63 146.63 C 681.65 147.47 677.55 147.56 673.60 148.54 C 666.77 150.16 659.60 149.44 652.90 151.67 C 646.10 152.74 639.35 154.09 632.68 155.80 C 628.04 157.61 622.76 157.64 618.57 160.57 C 625.65 163.05 633.24 162.56 640.46 164.35 C 649.12 166.28 657.91 167.65 666.61 169.38 C 676.58 172.08 686.50 175.05 696.10 178.86 C 707.07 183.09 718.19 187.03 728.61 192.53 C 735.23 195.82 741.50 199.78 748.06 203.20 C 765.20 232.91 778.06 265.07 786.80 298.22 C 764.79 281.02 741.12 265.78 715.64 254.24 C 714.06 253.55 712.62 252.59 711.36 251.44 C 714.28 251.06 717.29 251.06 720.15 250.26 C 727.85 247.69 736.21 248.98 743.87 246.20 C 734.99 239.67 724.50 235.79 714.41 231.55 C 705.13 228.43 695.99 224.81 686.41 222.69 C 677.86 221.22 669.57 218.34 660.96 217.30 C 654.85 217.31 649.11 214.67 643.00 214.83 C 634.98 214.86 627.01 213.72 619.00 213.77 C 607.90 213.92 596.78 213.25 585.71 214.41 C 578.93 215.17 571.97 214.14 565.33 216.03 C 559.49 217.43 553.36 216.78 547.60 218.55 C 543.86 219.58 539.98 219.69 536.17 220.23 C 527.70 222.33 519.17 224.16 510.58 225.72 C 507.03 237.69 503.69 250.89 494.20 259.65 C 495.64 251.90 496.69 243.93 495.78 236.05 C 493.80 224.11 486.68 213.75 478.23 205.38 C 478.18 209.34 479.85 213.07 480.01 217.01 C 480.26 222.69 480.23 228.37 480.10 234.05 C 479.93 245.47 475.35 256.24 470.16 266.22 C 465.56 275.61 461.47 285.34 459.34 295.62 C 455.99 306.88 455.71 318.87 457.07 330.47 C 459.45 327.51 460.69 323.86 462.60 320.62 C 466.21 314.75 470.94 309.63 476.17 305.18 C 489.85 293.96 506.55 287.29 523.38 282.37 C 522.90 283.83 522.55 285.38 521.64 286.65 C 514.24 297.09 507.89 308.33 503.58 320.40 C 502.35 324.82 501.27 329.39 501.51 334.01 C 502.31 339.00 504.24 344.59 509.17 346.88 C 514.69 350.99 522.02 350.77 528.43 349.38 C 542.11 343.05 553.26 332.45 566.80 325.86 C 583.06 317.04 601.00 311.71 619.12 308.41 C 628.05 308.04 636.98 306.36 645.92 307.48 C 652.55 308.23 659.41 307.85 665.74 310.25 C 680.89 314.41 696.62 321.30 705.79 334.67 C 699.68 334.99 693.96 332.65 688.04 331.73 C 679.68 331.51 671.30 331.49 662.95 331.76 C 655.60 332.71 648.43 334.84 641.46 337.34 C 625.95 343.98 612.91 355.51 602.84 368.92 C 598.91 374.30 594.86 379.76 592.54 386.08 C 600.56 386.15 608.63 385.59 616.61 386.59 C 625.27 388.37 633.86 390.61 642.11 393.81 C 668.10 404.54 690.54 423.90 704.59 448.30 C 713.06 462.94 718.79 479.20 721.14 495.95 C 722.32 509.26 722.34 522.68 721.13 535.99 C 719.50 545.91 717.51 555.82 714.43 565.42 C 710.50 580.25 703.78 594.15 696.56 607.62 C 688.61 622.41 678.65 636.05 667.60 648.66 C 656.97 661.34 644.44 672.21 631.76 682.77 C 612.28 697.99 591.33 711.38 569.01 722.07 C 559.56 727.43 549.24 730.90 539.37 735.39 C 531.34 738.23 523.50 741.63 515.34 744.10 C 509.12 745.70 503.18 748.44 496.76 749.17 C 500.74 744.44 507.24 743.49 512.18 740.12 C 532.30 728.97 551.18 715.63 568.56 700.57 C 583.36 688.04 596.74 673.89 608.56 658.53 C 614.38 650.55 620.50 642.70 624.81 633.77 C 629.75 625.83 633.06 617.06 636.35 608.36 C 640.09 598.67 641.52 588.33 643.20 578.15 C 644.91 566.32 643.36 554.42 641.33 542.74 C 640.31 532.22 635.92 522.52 632.41 512.68 C 626.59 500.54 619.08 489.04 609.27 479.74 C 596.35 467.37 580.06 458.74 562.83 454.13 C 559.49 453.53 556.12 453.08 552.87 452.07 C 547.42 450.28 541.63 451.10 536.02 450.68 C 529.02 450.16 522.01 450.85 515.01 450.84 C 508.86 450.67 503.19 453.42 497.15 454.06 C 488.78 456.37 480.70 459.82 473.19 464.15 C 467.16 467.65 462.24 472.62 457.41 477.57 C 457.55 472.66 459.49 468.04 460.19 463.20 C 462.48 455.67 461.88 447.73 462.95 440.01 C 463.24 430.91 463.35 421.76 462.20 412.72 C 461.64 408.24 462.26 403.43 460.11 399.30 C 458.42 412.03 456.87 424.83 453.44 437.23 C 452.47 434.36 451.28 431.57 449.84 428.91 C 448.76 434.13 448.69 439.51 447.41 444.70 C 444.05 456.69 436.61 466.84 430.36 477.42 C 424.36 487.72 415.20 495.60 406.29 503.31 C 402.72 506.85 398.57 509.68 394.32 512.34 C 384.71 519.31 374.51 525.51 363.79 530.63 C 358.22 532.98 352.80 535.66 347.39 538.35 C 338.70 542.70 329.48 545.83 320.52 549.56 C 310.09 553.88 299.07 556.73 288.98 561.87 C 281.41 564.93 276.66 572.26 273.24 579.33 C 269.71 585.93 269.88 593.62 269.97 600.89 C 262.82 601.27 255.62 601.39 248.53 600.21 C 231.16 596.99 213.86 590.40 200.79 578.19 C 195.65 573.60 191.59 567.99 187.78 562.29 C 186.62 560.43 184.45 558.74 185.01 556.31 C 189.09 554.41 193.71 554.30 197.96 552.91 C 207.42 550.44 216.36 546.43 225.14 542.20 C 234.48 536.90 242.82 529.99 250.20 522.21 C 258.34 514.33 266.28 506.24 273.99 497.95 C 279.60 491.86 283.38 484.19 289.83 478.87 C 298.92 470.96 307.54 462.55 316.16 454.14 C 324.04 447.24 332.86 441.53 341.24 435.25 C 348.72 429.52 357.21 425.34 364.99 420.05 C 379.02 410.72 392.98 400.88 404.30 388.28 C 413.32 377.95 420.81 365.48 422.25 351.60 C 419.91 354.96 418.32 358.76 416.09 362.18 C 409.68 372.11 401.43 380.82 392.01 387.95 C 378.42 398.40 362.20 404.44 346.93 411.93 C 331.98 417.45 315.82 418.74 299.99 419.18 C 281.34 420.21 262.61 419.01 244.00 420.91 C 227.39 422.78 212.17 430.35 195.88 433.65 C 165.78 440.19 139.03 457.07 115.92 476.92 C 111.30 480.67 107.27 485.12 102.38 488.54 C 95.11 473.11 86.31 458.00 73.81 446.18 C 69.97 442.43 64.67 439.68 62.79 434.33 C 61.18 429.57 61.29 423.68 64.85 419.80 C 74.07 409.63 84.30 400.01 96.61 393.68 C 101.54 391.06 106.92 389.42 111.90 386.89 C 120.07 382.83 127.71 377.63 134.30 371.31 C 136.27 369.51 138.26 367.27 141.11 367.11 C 147.64 366.58 154.54 371.79 160.66 367.69 C 167.45 363.82 164.16 353.75 170.52 349.57 C 175.87 345.56 181.72 342.20 186.62 337.61 C 191.09 333.78 194.76 329.11 199.31 325.37 C 204.07 321.95 210.23 323.63 215.64 322.78 C 219.24 320.48 222.50 317.48 225.12 314.11 C 227.05 310.04 228.61 305.54 228.50 300.98 C 227.30 294.32 220.69 291.02 214.98 288.80 C 215.12 284.68 214.44 280.44 215.44 276.41 C 218.02 270.71 221.72 265.57 226.23 261.24 C 228.48 259.15 229.60 256.24 230.58 253.40 C 234.69 241.58 237.87 229.44 240.08 217.11 C 240.81 213.18 240.71 209.11 241.76 205.24 C 243.85 212.62 245.07 220.42 249.11 227.11 C 253.62 213.20 256.94 198.90 259.39 184.50 C 262.09 189.09 263.03 194.42 263.52 199.66 C 268.75 188.63 272.98 176.71 281.46 167.62 C 279.77 176.38 277.11 185.85 280.56 194.51 C 290.20 186.56 299.79 178.43 307.64 168.64 C 304.64 177.63 301.43 186.58 297.78 195.33 C 302.56 193.10 307.25 190.67 311.60 187.66 C 336.63 170.89 355.25 146.08 368.73 119.42 C 371.08 125.46 369.35 132.06 367.93 138.11 C 362.39 157.99 352.52 176.26 343.07 194.48 C 362.81 180.45 380.99 164.20 397.21 146.21 C 420.08 120.58 438.46 90.83 450.65 58.69 M 405.61 228.62 C 387.25 247.85 371.42 269.28 355.39 290.44 C 347.38 301.93 337.44 313.03 323.98 318.03 C 309.48 323.77 293.29 322.35 278.50 318.54 C 272.01 317.13 265.77 313.96 258.98 314.41 C 252.87 314.52 246.41 317.50 243.45 323.03 C 247.80 321.68 252.16 319.13 256.87 320.29 C 273.62 323.34 289.72 330.64 307.02 330.15 C 323.43 330.08 339.33 322.40 350.17 310.19 C 359.87 299.52 366.48 286.57 375.21 275.17 C 397.77 244.74 422.49 215.22 453.42 192.94 C 452.63 192.23 451.84 191.51 451.07 190.79 C 434.38 201.40 419.13 214.19 405.61 228.62 M 344.87 235.92 C 342.49 242.48 339.32 248.75 335.58 254.64 C 331.75 260.36 326.99 266.00 320.26 268.30 C 304.03 274.74 288.67 286.26 282.04 302.89 C 284.16 306.27 288.63 305.70 292.02 305.30 C 301.18 303.87 309.89 300.59 318.70 297.85 C 320.05 297.55 321.80 296.75 322.76 298.23 C 322.21 300.59 321.04 302.74 320.38 305.06 C 321.69 307.01 324.07 305.45 325.41 304.41 C 333.82 296.84 339.59 286.68 342.98 275.97 C 347.66 262.08 347.65 247.26 346.83 232.79 C 345.89 233.64 345.21 234.70 344.87 235.92 M 597.28 359.27 C 588.96 367.39 581.13 376.08 574.65 385.73 C 570.82 391.61 567.23 398.01 566.79 405.17 C 573.20 403.34 580.03 403.72 586.61 404.35 C 595.41 405.62 604.58 408.49 610.77 415.22 C 615.48 420.15 618.59 427.16 625.42 429.61 C 632.78 432.77 640.75 429.74 647.61 426.72 C 653.69 423.79 659.96 421.03 665.37 416.93 C 658.50 419.50 651.97 423.03 644.75 424.56 C 638.04 426.19 629.51 427.30 624.28 421.73 C 619.40 416.06 617.52 408.27 611.78 403.23 C 602.88 395.18 590.21 393.81 578.75 392.86 C 585.70 378.03 596.27 365.29 605.44 351.85 C 602.28 353.81 599.91 356.71 597.28 359.27 M 467.26 362.26 C 454.05 369.43 442.83 379.70 432.24 390.24 C 430.24 392.09 428.26 394.00 426.84 396.36 C 440.42 387.10 453.53 376.74 468.61 369.97 C 468.10 380.88 470.81 391.75 475.22 401.68 C 477.74 407.51 482.18 412.17 485.35 417.61 C 487.65 421.84 487.61 427.02 486.48 431.59 C 482.91 442.40 474.95 450.82 467.94 459.47 C 472.85 456.29 476.51 451.62 480.54 447.45 C 484.97 442.41 489.66 437.26 491.99 430.85 C 493.79 424.51 494.08 417.54 491.78 411.28 C 488.60 402.71 483.18 395.05 480.93 386.11 C 479.24 379.56 478.62 372.72 479.10 365.98 C 479.17 363.59 480.15 361.25 479.87 358.88 C 475.55 358.19 471.15 360.46 467.26 362.26 M 571.18 370.15 C 565.14 378.18 558.86 386.06 553.58 394.63 C 547.80 404.26 541.58 414.63 541.84 426.24 C 553.69 422.03 567.11 421.74 578.99 425.95 C 586.51 428.51 591.09 435.29 597.13 439.96 C 602.17 443.90 608.95 443.63 614.95 442.79 C 623.29 441.49 631.50 439.45 639.76 437.74 C 642.70 437.07 645.73 436.47 648.36 434.92 C 638.63 436.36 628.91 438.30 619.01 438.07 C 612.97 437.91 605.93 439.28 600.93 435.02 C 595.44 430.10 592.60 422.74 586.34 418.58 C 576.36 411.71 563.51 412.06 551.95 412.98 C 557.26 396.98 565.92 382.35 573.84 367.56 C 572.91 368.39 571.98 369.20 571.18 370.15 M 152.32 390.24 C 146.64 392.52 143.38 398.03 138.76 401.73 C 126.68 411.60 112.54 418.56 100.42 428.37 C 97.48 430.43 97.74 434.37 97.30 437.53 C 100.08 435.63 102.57 433.36 104.92 430.96 C 117.65 418.28 135.54 412.06 147.31 398.29 C 153.19 391.09 163.97 391.52 170.21 384.78 C 164.22 386.50 158.13 387.96 152.32 390.24 M 537.07 403.14 C 528.82 414.78 520.16 426.87 516.97 441.02 C 516.98 442.90 515.42 446.62 517.84 447.28 C 527.94 443.01 539.20 440.07 550.18 442.00 C 563.36 445.51 574.87 453.40 588.01 457.03 C 594.63 458.87 601.65 458.53 608.36 457.28 C 616.67 455.76 624.91 453.86 633.17 452.05 C 635.02 451.70 636.69 450.80 638.33 449.89 C 629.29 451.42 620.22 453.11 611.02 453.09 C 605.61 453.01 600.08 453.63 594.79 452.27 C 588.38 450.33 583.44 445.60 577.96 442.00 C 568.38 435.40 556.56 432.43 544.99 432.80 C 538.91 432.84 532.89 433.97 526.82 434.15 C 531.53 418.76 540.27 405.03 547.33 390.68 C 543.16 394.13 540.51 399.01 537.07 403.14 M 76.85 426.13 C 76.62 428.01 76.59 429.94 76.93 431.82 C 80.95 435.87 85.43 439.51 88.85 444.13 C 91.20 446.95 92.51 450.47 94.93 453.24 C 95.80 443.18 91.29 432.52 95.84 422.92 C 92.95 421.84 90.18 420.26 87.07 419.97 C 83.20 421.07 79.70 423.33 76.85 426.13 Z" />
<path fill="#ffffff" opacity="1.00" d=" M 129.20 472.20 C 144.17 460.33 160.61 449.66 179.05 444.16 C 171.76 449.70 162.60 452.56 155.98 459.03 C 152.13 463.65 154.77 469.96 155.06 475.29 C 151.29 472.67 148.29 469.16 144.83 466.18 C 141.31 474.05 141.30 482.87 141.77 491.32 C 137.50 487.81 134.23 483.29 130.82 478.99 C 127.14 487.49 126.18 496.87 125.58 506.03 C 120.70 502.48 115.02 499.67 111.41 494.67 C 110.41 493.22 109.15 491.12 110.46 489.47 C 115.80 482.81 122.60 477.53 129.20 472.20 Z" />
<path fill="#ffffff" opacity="1.00" d=" M 226.04 470.20 C 233.84 467.56 242.08 466.91 250.21 466.11 C 249.70 468.13 247.43 468.19 245.79 468.75 C 236.54 470.90 228.06 475.32 219.70 479.70 C 204.53 488.24 191.57 500.47 181.85 514.88 C 171.35 530.36 162.91 547.11 152.76 562.81 C 147.26 570.50 141.75 578.37 134.28 584.30 C 121.51 595.73 104.66 604.20 87.16 602.93 C 87.18 602.51 87.21 601.68 87.22 601.26 C 94.73 601.61 102.29 598.87 107.93 593.95 C 109.96 592.27 110.42 589.58 110.11 587.09 C 102.71 585.64 96.34 590.95 89.01 590.59 C 83.22 590.43 75.82 592.05 71.53 587.13 C 79.46 587.39 87.08 584.94 94.62 582.80 C 113.36 576.48 128.78 563.29 141.87 548.84 C 149.66 540.19 156.69 530.91 163.56 521.53 C 169.17 513.56 174.42 505.26 181.22 498.22 C 193.34 485.17 208.85 475.08 226.04 470.20 Z" />
<path fill="#ffffff" opacity="1.00" d=" M 218.81 518.97 C 225.58 522.21 232.73 524.55 240.00 526.38 C 225.28 542.10 204.17 550.47 183.13 553.18 C 183.43 547.63 182.62 542.13 181.97 536.64 C 187.16 539.78 191.41 544.39 197.10 546.70 C 198.76 545.83 197.88 543.54 197.88 542.06 C 197.31 538.65 196.41 535.31 195.75 531.93 C 201.33 535.22 206.39 539.31 212.00 542.55 C 210.53 537.98 208.76 533.49 207.67 528.81 C 213.20 528.81 218.46 530.92 223.93 531.25 C 224.32 531.10 225.11 530.81 225.51 530.66 C 223.08 526.88 220.77 523.01 218.81 518.97 Z" />
</g>
</svg>
